<?xml version="1.0" standalone="no"?>
<!DOCTYPE svg PUBLIC "-//W3C//DTD SVG 1.1//EN" "http://www.w3.org/Graphics/SVG/1.1/DTD/svg11.dtd" >
<svg>
<metadata>
Created by FontForge 20090914 at Thu Feb 23 20:18:27 2012
 By root
&#194;&#169;1997 Patrick Broderick/rotodesign. For more info, write to info@rotodesign.com, http://www.rotodesign.com
</metadata>
<defs>
<font id="DSZombieCyr" horiz-adv-x="584" >
  <font-face 
    font-family="DS Zombie Cyr"
    font-weight="700"
    font-stretch="normal"
    units-per-em="1000"
    panose-1="2 11 8 0 0 0 0 0 0 0"
    ascent="800"
    descent="-200"
    x-height="735"
    cap-height="724"
    bbox="0 -143.042 4110 900"
    underline-thickness="10"
    underline-position="-61"
    unicode-range="U+0020-U+F101"
  />
<missing-glyph horiz-adv-x="658" 
d="M40 0v763h578v-763h-578zM80 40h498v683h-498v-683z" />
    <glyph glyph-name=".notdef" horiz-adv-x="658" 
d="M40 0v763h578v-763h-578zM80 40h498v683h-498v-683z" />
    <glyph glyph-name="space" unicode=" " horiz-adv-x="500" 
 />
    <glyph glyph-name="exclam" unicode="!" horiz-adv-x="302" 
d="M186 775l4 -19q2 -5 7 -7.5t7 -2.5q4 0 15.5 8t16.5 8t13 -8h16q10 0 13 -6v-2q0 -28 -8 -34t-8 -14q0 -9 4 -27t4 -28q0 -6 -1 -17t-1.5 -22.5t-1.5 -21.5t-1 -14l-1 -164q0 -58 -36 -88l10.5 -22.5l14.5 -30.5l25 -52q4 -7 4 -19q0 -7 -8.5 -14t-21 -13t-26 -10
t-22.5 -5q-2 -25 -17 -44.5t-43 -30.5q2 0 -4.5 7l-15.5 16.5l-18.5 20t-14.5 16.5l-59 78q-1 1 -1.5 3l-0.5 2q0 5 11 15t15 25q8 37 8 85v40q0 150 -44 300q1 1 2.5 8t3 15t4 14.5t5.5 7.5q5 2 16 -5.5t18 -7.5q6 0 23 2.5t35 7.5t31.5 12.5t13.5 18.5v12q0 4 14 7z" />
    <glyph glyph-name="FLW34" unicode="&#x22;" horiz-adv-x="450" 
d="M203 729q0 -11 -5.5 -39.5t-5.5 -55.5q0 -15 2.5 -26t6.5 -21q12 9 25.5 41t27.5 58l40 16q10 -4 21 -9t21 -7q2 0 15 6l28.5 13.5t28.5 14.5t14 8h2q6 0 6 -9v-4q0 -19 -6 -50.5t-14 -62.5t-16.5 -54t-13.5 -26h-12q-11 0 -27 -5t-31 -8q-16 -3 -33 -4.5t-37 -7.5
q-14 0 -37 7.5t-45 7.5q-6 0 -20.5 3.5t-21.5 3.5q-19 0 -36.5 -12t-33.5 -12q-26 0 -26 32q0 15 4.5 43.5t13 57.5t19.5 51.5t23 25.5q14 3 25 6.5t19 3.5q12 0 20 -14l12 1l4 7q21 36 32 36q7 0 11 -16z" />
    <glyph glyph-name="dollar" unicode="$" horiz-adv-x="310" 
d="M204 734q0 -5 -2 -10.5t-2 -15.5q0 -4 2.5 -10.5t7.5 -8.5h39q20 0 25.5 -5.5t5.5 -25.5q0 -14 -4 -27t-10 -13h-6q-15 0 -22.5 -2t-11.5 -5t-8.5 -7t-13.5 -8q-8 -4 -18.5 -8t-9.5 -6q2 -11 20 -21l39 -22.5t38 -30t17 -43.5q0 -28 -18 -55q-7 -2 -13.5 -9l-15.5 -17
t-23 -21.5t-36 -21.5q-17 -7 -24.5 -25t-9.5 -18l-11.5 4l-10.5 4q-8 6 -12 6t-6 -2.5l-4 -5t-5 -2.5q-9 0 -9 26q0 4 -9 11.5l-20 17.5t-20 20.5t-9 20.5q0 9 -7 17t-7 10q0 6 10.5 8t7.5 13q-3 13 -6 19.5t-3 7.5q-5 18 13 14t42 -13t44.5 -15.5t20.5 6.5q0 16 -18.5 25.5
t-40 18t-40 20t-18.5 32.5q0 53 89 125q1 1 4 10l6.5 19l6.5 18.5t4 8.5h6q10 -25 16 -25q3 0 5.5 5l5.5 10.5t7 10.5t10 5t12 -14z" />
    <glyph glyph-name="percent" unicode="%" horiz-adv-x="983" 
d="M264 715h10l17 -4.5t37.5 -10.5t37.5 -10.5l17 -4.5q61 -34 61 -120q1 -1 3 -1q5 0 14 10t19 24.5t19.5 31l16.5 28.5l10 19q5 10 7.5 19t5.5 9q4 0 14 -20q6 -11 10.5 -6.5t9.5 14t11 19.5t14 10q2 0 14 -5v-7q0 -7 6 -7.5t13 2t12.5 5t4.5 2.5h4q-3 0 10 -21h2
q7 0 14.5 12t14.5 12q5 0 5 -7q0 -2 -2 -12l-2 -9q-1 -4 2 -6.5t6 -4.5h2q4 0 14 5t11 5h2l-1 -22l-21 -36.5l-29 -51.5l-34 -58l-26 -43v-3q0 -6 7 -5.5t16 4t18 8l13 6.5l48 22q10 -4 24.5 -11t24.5 -7q7 0 13 3q26 0 47.5 -2t38.5 -6q76 -18 76 -96v-16q0 -17 3.5 -35.5
t7.5 -35t5.5 -30t-2.5 -21.5l-38 -73l-19.5 -15.5t-33 -24.5t-37 -23t-32.5 -10q-7 0 -21 9t-18 9q-10 0 -30.5 -4t-30.5 -4q-12 0 -20.5 6t-15 13l-12 13t-11.5 6q-4 0 -14.5 6.5t-14.5 6.5h-2q-4 0 -14 8t-21.5 19.5t-23 25t-19.5 24.5l-6 -4q-3 -2 -10 -11t-16 -22
t-18 -27.5t-16 -27.5q-8 0 -17.5 14.5t-16.5 14.5q-4 -4 -20 -37q-7 -15 -14 -22h-6q-8 0 -23 5.5t-21 5.5q-13 0 -22 -13q-18 9 -18 26l3 7q15 31 15 55v2q-2 4 -9 -4.5t-16.5 -22.5t-19 -30l-15.5 -26q-4 1 -12 5t-8 2v12q0 11 16.5 37.5t27.5 52.5l40 92q3 7 -8 8.5
t-24 0t-22.5 -4t-3.5 -2.5q-26 0 -42 19h-25q-72 0 -91 33q-3 5 -12.5 14l-22 20.5l-26 23.5t-25.5 24q0 6 -1 19l-2 26.5t-2.5 25t-1.5 14.5q-1 7 -1 13v10q0 66 40 94q17 2 34 14l35 26q46 34 95 34q10 0 21 -11.5t19 -11.5zM225 590q-12 -3 -29 -14v-8q0 -6 -2 -18
t-2 -18q0 -32 31 -32q19 0 41 14.5t22 32.5q0 21 -20.5 32t-40.5 11zM732 364q-13 -9 -13 -32q0 -14 3 -41q10 -17 39 -15l31 2q11 2 11 11q0 5 -6 16t-16 23.5t-23 23t-26 12.5z" />
    <glyph glyph-name="ampersand" unicode="&#x26;" horiz-adv-x="666" 
d="M287 731l19 -10q13 -7 34.5 -13.5t48.5 -17.5q2 -1 16.5 -9.5t39.5 -24.5q43 -28 35 -28q-3 0 -10 -4t-11 -4t-9.5 3t-11.5 3h-6q-3 0 -3 -2v-2q0 -5 10.5 -11.5t16.5 -6.5q3 0 6 2t6 2q18 0 18 -30q0 -12 -12 -25.5l-26 -28t-26 -29.5t-12 -28q0 -10 12 -22t22 -12h2
q7 0 22 11.5t33.5 29.5l38.5 38.5t36 38.5h4q8 0 9 -7q-4 -9 -8.5 -22.5l-10.5 -31.5q5 -8 11 -4t12 12t13 16t14 8q12 0 12 -16q0 -6 -3 -16.5t-3 -16.5t7 -11.5t7 -11.5q0 -4 -3 -12.5t-7 -17t-7 -16t-3 -10.5q0 -11 8 -19q-2 -19 -50 -68l2 -14l40 -35q23 -20 26 -41
q-13 -13 -13 -21q0 -5 5 -12t5 -10q0 -11 -11 -11q-9 0 -26.5 9.5t-18.5 9.5q-5 0 -7.5 -4t-4.5 -8t-4.5 -8t-8.5 -4q-3 0 -10 2t-10 2q-5 0 -10 -4l2 -8t2 -6v-4q0 -5 -8.5 -11.5t-15.5 -12.5l4 -22q0 -1 -4 -1h-5q-16 0 -33 11q-57 38 -66 40l-142 -36q-38 0 -70 25
q-38 11 -78.5 29t-72.5 45q-11 9 -15 20t-4 13q0 6 4 13t4 12q0 8 -7 16t-7 16q0 30 74 145q0 21 -16 40q-37 46 -37 84q0 14 17 34.5t42.5 43.5t56.5 48l59 48q6 -2 8 -2q7 0 23 6t21 6q13 0 19 -19zM282 580h-8q-11 -6 -9 -14q5 -23 22 -15q7 1 7 17q0 12 -12 12zM266 280
l-15 19q-10 0 -15.5 -12.5t-5.5 -19.5q0 -12 13 -11q25 3 25 18q0 2 -2 6z" />
    <glyph glyph-name="FLW39" unicode="'" horiz-adv-x="304" 
d="M190 715q0 -6 3 -18t3 -18q0 -11 -8 -19q4 -4 14 -4t21 3l11 3l8 -2q40 -13 40 -27v-5l-80 -42q-6 -3 -13.5 -14.5t-14 -25t-11 -26t-4.5 -19.5q0 -40 55 -65q-2 0 9 -4.5l24.5 -10.5t25 -13t11.5 -12q0 -3 -10 -3q-12 0 -34 3q-4 -4 -4 -7q0 -11 20 -11h16q6 0 6 -10
q0 -9 -10 -12.5t-10 -12.5q0 -4 1 -5v-2q0 -12 -14 -12h-13q-16 0 -21 -8.5t-9.5 -18t-12.5 -18t-29 -8.5q-26 0 -42 18t-16 46q0 3 -13 22l-28 42l-28 43.5t-13 26.5q0 12 4 35.5t4 35.5q0 20 17 40l39 44q2 2 11.5 18l20 35l19.5 34t11 15q5 0 14 1.5t14 1.5q11 0 16 -14z
" />
    <glyph glyph-name="parenleft" unicode="(" horiz-adv-x="420" 
d="M364 624q-3 3 -12.5 -9t-20 -27t-18.5 -28.5t-7 -13.5q5 0 14.5 7.5t12.5 7.5l11 12q4 4 8 4q10 0 4.5 -14.5t-16.5 -33.5t-23.5 -37.5t-16.5 -27.5q-25 -48 -36.5 -85.5t-11.5 -61.5q0 -19 10 -44.5t24.5 -52t31 -50.5l28.5 -40q3 -4 13 -15.5t17.5 -24t7.5 -22.5
t-16 -10q-5 0 -10.5 0.5t-9.5 0.5q-11 0 -16 -8q-93 0 -177 90q-66 70 -107 174q0 1 -4.5 8l-9.5 15.5l-9.5 16.5t-4.5 12t2 10q72 172 190 248q10 0 30 6.5t49 17.5q14 0 27 -10q8 0 19.5 6t23 13.5l21.5 13.5t14 6t4 -6q0 -16 -36 -48z" />
    <glyph glyph-name="FLW41" unicode=")" horiz-adv-x="394" 
d="M189 679q58 -31 103 -96q46 -69 72 -129q10 -26 10 -47q0 -11 -1 -23t-3 -26q0 -39 -42 -113l-40 -70q-14 -25 -49.5 -47t-74.5 -22h-7q7 0 -25 -6l-10.5 -2t-9.5 -2l-9 -2q-11 -2 -17.5 -4t-11.5 -11h-23q-23 0 -31 14q90 94 160 240q0 5 4.5 17t4.5 19q0 4 -2 11t-2 11
q0 8 -3 16l-39 79.5l-57 110.5l-57 99q6 6 19 6q5 0 11 -0.5t12 -0.5v0q8 0 16.5 4t14.5 4q8 0 20.5 -4.5t25.5 -10.5t24 -10.5t17 -4.5z" />
    <glyph glyph-name="FLW42" unicode="*" horiz-adv-x="406" 
d="M277 693v-4q0 -11 7 -14.5t16 -3.5q12 0 21 3.5t4 3.5q3 0 10 -6.5t14 -15.5t12 -19.5t5 -17.5q0 -12 2.5 -17t6 -8t7 -5.5t4.5 -8.5q0 -14 -8 -29t-18 -27.5t-18 -21.5l-8 -9v-2q0 -1 11.5 -9.5t11.5 -16.5q0 -5 -1 -6l-45 -6q-7 -1 -13.5 -6l-14 -10.5t-15 -10
t-16.5 -4.5q-5 0 -13.5 1.5t-13.5 1.5q-3 0 -11.5 -3.5l-18 -7.5l-18 -7.5t-11.5 -3.5q-13 0 -21.5 4.5t-16 10.5t-15 11t-19.5 6l-50 26q-2 2 -2 7q0 7 10 24l6 12q3 4 3 7q0 6 -6.5 10l-14 8.5t-14 10t-6.5 15.5l16 77q15 11 21.5 18.5l11 12.5t10.5 7t20 2q10 0 13 10v11
q0 9 11.5 15.5t28.5 11t37 7t38 2.5q17 0 30.5 -10.5t19.5 -25.5z" />
    <glyph glyph-name="FLW44" unicode="," horiz-adv-x="332" 
d="M260 324q3 -2 7 -18.5t10 -18.5q4 0 12.5 9t12.5 9q10 0 10 -25q0 -9 -10.5 -36.5t-26 -60l-32.5 -65t-29 -52.5q-10 -18 -63 -18q-4 0 -10.5 -1t-10.5 -1q-3 0 -11 2.5l-17 5.5l-16 5.5t-9 2.5q-13 0 -23 -13q-34 0 -34 20q0 11 7.5 26.5l18.5 37.5l100 193h2
q3 0 11.5 -7t14.5 -7h2l5 7t12 15t15 15t14 7h6z" />
    <glyph glyph-name="hyphen" unicode="-" horiz-adv-x="422" 
d="M78 526l314 -18q6 0 8 -6t2 -14q0 -14 -15 -39t-31 -39v-2q0 -4 7 -7t7 -8t-6 -9.5l-12.5 -9t-11.5 -8.5t-3 -7q0 -1 4 -6t4 -9q0 -18 -69 -18h-30q-34 0 -84 -10t-99 -10q-16 0 -27.5 4t-15.5 14v2q0 5 10.5 16.5t10.5 15.5q0 3 -2 8t-2 8q0 11 6 13.5t13 3t13 2.5t6 13
q0 16 7.5 26.5t7.5 15.5q0 2 -2 8l-6 38q-1 5 -6 13.5t-5 10.5q0 5 7 8z" />
    <glyph glyph-name="period" unicode="." horiz-adv-x="386" 
d="M198 326q4 0 13 4.5t14 4.5q4 0 15 -10.5t16 -10.5q4 0 9 4t9 4l12 -3q11 -3 11 -13v-5q0 -16 13.5 -21t13.5 -10v-6q0 -14 -6.5 -25t4.5 -11q2 0 14 8t17 8q13 0 13 -18q0 -21 -32 -53l-126 -123q-4 -3 -18 -3q-10 0 -22.5 7t-24.5 17.5t-20.5 21.5t-10.5 20
q-2 2 -17 13t-31.5 24.5t-30 27t-13.5 20.5q0 6 2 10l12 18l124 126q8 8 17 8q13 0 17 -9t6 -25z" />
    <glyph glyph-name="slash" unicode="/" horiz-adv-x="567" 
d="M378 744q2 -8 2 -13l-3 -14.5t-5 -25.5l6 1q5 2 14 10.5t19 19t20 18.5t17 8q-4 -16 -4 -25q0 -8 6 -11h2q3 0 11 7t12 7h2q5 0 14 2t13 2q10 0 11 -7t-2 -17t-7 -21t-4 -19l4 -2q2 -1 7 2l11 6.5l11.5 6.5t8.5 3t3 -4q0 -3 -4.5 -12.5t-10.5 -21t-13 -23t-13 -19.5
l-20 -28q-28 -39 -51 -85t-42.5 -95t-36.5 -98.5l-32 -95.5l-10 -20l-10 -20q-6 -11 -14.5 -23.5t-18 -22.5t-18.5 -16.5t-15 -6.5q-14 0 -28 14.5t-28 24.5q-26 -26 -50 -32q-3 6 -3 12q0 4 2.5 14.5t2.5 15.5q0 12 -16 12q-5 0 -12 9.5t-13 9.5h-2q-2 0 -10 -6l-18 -14
l-21.5 -17.5t-21.5 -15.5q0 6 12 32q6 14 5 20t-4.5 9.5t-8 7.5t-4.5 13q0 6 6 12l98 178q72 131 128 335q3 5 8 5q11 0 29 -19l12 -13q5 -6 10 -6h4q3 0 8.5 9l12 20t13.5 20t13 9q9 0 16 -6z" />
    <glyph glyph-name="zero" unicode="0" horiz-adv-x="661" 
d="M308 698l42 2q4 0 11 2t16 2q7 0 20 -4t26 -8.5t24 -9t13 -4.5l33 -9q18 -5 32.5 -16t25.5 -24t18.5 -26t12.5 -20q26 -37 33 -63q1 -4 5.5 -19t9 -34.5t8 -41t3.5 -39.5q0 -48 -12 -100l-26 -44.5t-10 -16.5l-18.5 -29.5t-17.5 -21t-24 -12.5t-37 -4q-21 -18 -64 -46
q-1 0 -10 -2l-21 -4.5t-25 -4t-22 -1.5h-21q-69 0 -113 29l-40 28t-39 18q-106 64 -106 204q0 17 -15 48q0 145 83 193q5 15 25 32.5t44.5 31.5t49 23.5t39.5 9.5q28 0 47 -19zM284 503l-10.5 -22.5l-13 -28l-13 -28l-10.5 -22.5q2 -10 11 -25.5t21 -30t25.5 -24.5t24.5 -10
q5 0 21.5 8.5t17.5 9.5q32 7 44.5 41t9.5 83q-2 26 -32.5 41t-61.5 15q-24 0 -34 -7z" />
    <glyph glyph-name="one" unicode="1" horiz-adv-x="396" 
d="M342 723q2 -2 2 -5t-2 -9t-2 -9q0 -9 15.5 -17t20.5 -19q0 -44 -6 -96q-15 -134 -15 -164v-28v-35q-1 -16 -1 -28v-20l-1 -111q-8 -7 -21 -7q-8 0 -30 3q-17 0 -24.5 -20t-7.5 -37q0 -3 0.5 -12.5t0.5 -13.5q0 -31 -25 -31q-3 1 -12 15t-18 14h-3q-7 0 -14 8.5t-13 19
l-11 19t-9 8.5q-7 0 -13.5 -10.5t-17.5 -10.5q-6 0 -13 4l-6 13q-2 6 -2 14v32q0 37 -16 52l-3 162q0 8 0.5 18t1.5 20l7 65q4 33 -26 33q-3 0 -10 -1t-10 -1q-22 0 -22 22q0 6 -8 15.5t-8 15.5v2l198 89q10 4 30.5 20l39.5 31h2q9 0 12 -4t3.5 -9t0.5 -9t4 -4q8 0 32 16z
" />
    <glyph glyph-name="two" unicode="2" horiz-adv-x="600" 
d="M326 710q45 -6 74 -44q3 -3 9.5 -23.5t12.5 -44.5t10.5 -45t4.5 -25v-12q0 -40 -18 -80t-42 -82l-39 -68q-1 -1 -1 -4q0 -6 10 -10l225 6q10 0 7 -4.5t-11.5 -11.5t-19 -13t-14.5 -9q4 -11 2 -17.5t-6 -12.5t-7.5 -14t-3.5 -21q0 -6 -10.5 -10t-23 -7t-23 -6t-10.5 -6
t14 -11q9 -5 4.5 -9.5t-13 -9t-17.5 -10t-9 -11.5q0 -20 -69 -20q-14 0 -42 0.5t-71 1.5l-85 2q-12 0 -92 -3q-28 -1 -28 22q0 6 -24 22l144 240q5 8 -15 16q-48 20 -55 59q-52 36 -52 128q0 -1 1.5 17t3.5 55q5 5 13 3.5t14 -1.5q5 0 22 15.5l37.5 34t40 34t30.5 15.5
q10 0 28 -5l78 -23q7 -2 16 2zM194 530q0 -5 -3 -16t-3 -16q0 -11 10 -19.5t21 -8.5q7 0 13.5 7t11.5 16t7.5 17.5t2.5 10.5q0 17 -38 17q-14 0 -22 -8z" />
    <glyph glyph-name="three" unicode="3" horiz-adv-x="427" 
d="M279 690q80 -31 109 -72q17 -26 17 -70q0 -72 -59 -142q0 -7 12.5 -19t12.5 -15q19 -17 27.5 -40.5t8.5 -48.5q0 -27 -8 -55.5t-20 -56.5q0 -40 -56 -61l-36 -14q-31 -12 -79 -12q-45 0 -69 28q-29 3 -42 9q-3 1 -13 9t-20.5 17.5t-18.5 19.5t-8 17q0 6 12 6q5 0 12.5 -1
t15.5 -3l53 12q49 10 49 51q0 4 -17 67l-9.5 5l-22 12t-23.5 15t-14 14q-49 0 -62 18v3q0 13 18 13h14q-5 0 5 4.5t23.5 9l25 8.5t8.5 2q68 30 68 62q0 19 -20 51q-27 41 -60 41q-7 0 -20 2t-20 2q-10 0 -17.5 -7t-17.5 -7q-17 0 -17 8q0 3 13.5 23.5t35 44.5t49 45.5
t54.5 26.5l23.5 -3t32 -5t30.5 -6.5t20 -7.5z" />
    <glyph glyph-name="four" unicode="4" horiz-adv-x="599" 
d="M544 736l-6 -56l-40 -160q-1 -3 -5.5 -15t-9.5 -27l-9.5 -29.5t-4.5 -20.5q0 -7 -1.5 -20t-1.5 -20q0 -38 44 -38q4 0 13 2t18 3.5t16 1.5t7 -3q0 -4 -7 -12.5t-7 -10.5q0 -7 8.5 -6t12.5 1q12 0 7 -7.5t-13.5 -16.5t-13 -16.5t7.5 -7.5h9q0 -12 -9 -24.5t-20.5 -23
l-20.5 -19t-9 -14.5q0 -5 6 -7.5t12.5 -4.5t11 -5t1.5 -8q-2 -3 -21 -3h-19q-18 0 -24 -11v-18q0 -27 10 -34v-2q0 -8 -11 -8t-21 18q-7 9 -11.5 10t-8.5 -1.5t-7.5 -5.5t-8.5 -3q-2 0 -10 2q-8 8 -13 7t-11 -5l-14 -9t-23 -5h-21l-23 -2q-8 -1 -25 4l-7 4q-2 2 -2 8v10
l1 28q1 18 -13 24.5t-34 6.5q-23 0 -48 -4t-45 -4q-39 0 -54 7l-8 14l-18 31l-19 32t-11 17q0 26 19.5 44t40.5 32q34 22 57.5 49t34.5 63l62 66.5l74 83.5l80 92q0 1 8.5 16.5t15.5 15.5q5 0 11 -9.5l11 -17.5h2q3 0 9 4.5t12 10l10.5 10l4.5 4.5q6 0 12 -11v-2
q0 -2 -6 -18l-11.5 -29.5t-6.5 -15.5q0 -15 24 -21q8 11 22 41.5l28 59.5h2q8 0 8 -12zM254 396q-10 -8 -25 -23.5t-15 -19.5q0 -8 18 -8h10q24 0 24 25v14q0 12 -12 12z" />
    <glyph glyph-name="five" unicode="5" horiz-adv-x="506" 
d="M486 717q-1 -7 -14.5 -19t-13.5 -19v-2q0 -7 -21 -26l-16 -14l-9 -9l6 -6h5q5 0 29 6q12 0 12 -4q0 -3 -16 -15t-39 -26t-47.5 -26t-41.5 -15l-60 -12q-6 -2 -9 -7t-3 -7q0 -6 8.5 -11.5t20 -11l24 -11.5t20.5 -14l31 -30q43 -41 69 -52q14 -34 14 -64q0 -63 -54 -134
q-61 -78 -149 -106q-34 0 -67.5 10t-61.5 28t-49.5 43t-33.5 57q0 14 11 18t26 4q11 0 22 -1t20 -1h15q2 0 9 -4l16.5 -9t18 -9t13.5 -4q23 0 23 58q0 38 -19 77q-40 31 -83 35q-15 -12 -42 -16q0 35 3 91q5 79 6 91q1 19 1 31.5v19.5v13q0 40 -6 79q16 9 38 9q-2 0 13 -1.5
t49 -5.5q4 -1 7 -1h4q7 0 15 2l170 4q10 0 30 3l41.5 6l39.5 5.5t25 2.5z" />
    <glyph glyph-name="six" unicode="6" horiz-adv-x="565" 
d="M545 348q0 2 -9 -84q-4 -40 -32.5 -73t-71.5 -58q-1 -3 -15.5 -8.5t-31.5 -11t-32 -9.5t-16 -4q-7 0 -20 5t-26 5h-22q-14 0 -20 2l-94 23q-19 5 -50 33q-20 4 -32 19t-20.5 37t-15.5 48.5t-17 53.5q0 35 40 130l-9 32q10 30 45 68l101 111q1 1 8.5 8t16 13.5t15 10
t6.5 -1.5v-7q0 -4 4 -7q13 4 62 34q11 6 28 11l4 -6q1 -2 -5.5 -13.5t-6.5 -12.5q0 -6 6 -7q13 4 31 9l43 12q2 -2 4.5 -12.5t7.5 -10.5t15.5 3.5t13.5 3.5q8 0 8 -4t-6.5 -14t-6.5 -16q0 -11 12 -11q6 0 11.5 3t11 5.5t9.5 1.5t6 -10l-3 -10l-121 -92q0 -11 10 -17
q38 -6 68.5 -26t51.5 -46t32.5 -55t11.5 -55zM333 280q6 16 6 32q0 8 -6 23t-15 30t-19.5 26t-19.5 11q-17 0 -36.5 -7t-36 -18t-27 -25t-10.5 -28q0 -21 19.5 -43t42.5 -22q6 0 19 1t19 1q48 0 64 19z" />
    <glyph glyph-name="seven" unicode="7" horiz-adv-x="574" 
d="M341 662h172q19 10 25 10q16 0 16 -25q0 -12 -4.5 -24t-10.5 -23.5t-10.5 -22t-4.5 -18.5q0 -4 0.5 -12.5t0.5 -12.5v-10q0 -8 -7.5 -25.5t-13.5 -37.5l-49 -162l-10.5 -33.5t-8.5 -23.5q-9 -3 -12 -10t-3 -15t1.5 -16.5t1.5 -16.5q0 -2 -10.5 -14t-24 -26t-26 -25
t-16.5 -11h-4q5 0 -1.5 6.5t-11.5 8.5l-20 7q-1 1 -4 1q-4 0 -11 -7.5t-9 -7.5l-11.5 5t-19.5 5h-17q-12 0 -18 7.5t-9 18.5t-4 23.5t-3 22.5q10 38 21 70t21 58q26 60 51 126q0 12 -13 12q-96 -18 -236 -18q-28 6 -28 18q1 3 11.5 10t23.5 14.5t23.5 14.5t10.5 10
q-2 7 0.5 17.5t9 20t15 16.5t18.5 7h6l4 2q3 1 -3.5 3.5t-9.5 2.5q1 -7 -18.5 -2t-40 14t-34 17.5t-0.5 8.5q5 0 16 -2t16 -2q14 0 14.5 4t-4 10t-11 13t-6.5 15q0 22 13 22q105 -18 267 -18z" />
    <glyph glyph-name="eight" unicode="8" horiz-adv-x="514" 
d="M370 706q5 0 12.5 11.5t10.5 11.5q9 0 16 -7t14 -17.5l15.5 -22.5t19.5 -22q22 -20 27 -41t5 -58q0 -77 -38 -130v-8q0 -10 8 -21q34 -40 34 -95q0 -73 -66 -153q-63 -57 -72 -62q-26 -15 -51 -15q-36 0 -99 27q-33 14 -65.5 32.5t-64.5 41.5q-9 7 -19 25.5t-18 40.5
t-13.5 43.5t-5.5 34.5q0 57 42 136q0 8 -4 22.5t-9 29.5l-9 27t-4 13q0 6 -1 18t-1 18q0 43 63 101h3q4 0 12 -2.5t12 -2.5q9 0 9 16q0 14 15 23.5t37 15.5t47 8.5t44 2.5q61 0 94 -42zM286 520l-21 34q-1 1 -4.5 1.5t-4.5 0.5q-5 0 -19.5 -10t-21.5 -12q1 -2 6.5 -9.5
t12 -15t14 -13.5t13.5 -6q2 0 15 7t13 17q0 3 -3 6zM223 354q-13 -38 -13 -50q0 -32 38 -32q52 0 52 32q0 8 -4 18t-11 19.5t-16 16t-19 6.5q-17 0 -27 -10z" />
    <glyph glyph-name="nine" unicode="9" horiz-adv-x="597" 
d="M340 725l25 5q10 2 28.5 -6.5t38 -20l35 -21t20.5 -9.5l27.5 -33t34.5 -48q15 -23 21.5 -48.5t6.5 -49.5q0 -48 -23 -90.5t-53 -91.5q0 -14 -25 -48.5t-59.5 -70.5t-71.5 -63.5t-62 -27.5q2 -2 -12.5 2t-28.5 4h-11q-6 0 -15 -3t-17 -5t-13.5 -2.5t-5.5 4.5q0 2 3 7t3 12
q0 5 -14 11.5t-31 12.5t-32 10.5t-18 4.5q-9 0 -23.5 -4.5t-20.5 -4.5q-8 0 -16 5l2 7q2 8 48 41q3 2 20 11.5t36.5 24t19.5 21.5q0 3 -12.5 12.5l-29 22l-33.5 26t-25 25.5q-28 38 -34 130l-2 30q-2 26 17 45q-5 15 -5 26q0 35 66 106q46 49 146 49q17 0 41 -2t54 -6z
M315 574q-29 -10 -42 -15q-49 -24 -49 -48q0 -11 7 -26t18 -28.5t23.5 -23t23.5 -9.5q9 0 14 5h4q23 0 42 23.5t19 47.5q0 12 -10 22l-26 28q-6 7 -11.5 15.5t-12.5 8.5z" />
    <glyph glyph-name="FLW58" unicode=":" horiz-adv-x="386" 
d="M182 747q-3 -12 -3 -18q0 -10 13.5 -4t29 15t29 14t13.5 -7v-14q0 -8 11 -12t11 -13q-14 -14 -14 -36q0 -17 10 -29.5t27 -12.5q2 0 9 4.5t16 4.5h2q4 0 6 -5t2 -8q0 -16 -19 -39t-44 -45t-50 -40t-37 -25q9 0 -5 8.5t-33.5 18.5t-35.5 16.5t-11 3.5q-89 56 -89 97
q0 5 21.5 27t48.5 46.5t51 44t29 19.5q6 0 12 -11zM198 365q4 0 13 4.5t14 4.5q4 0 15 -10.5t16 -10.5q4 0 9 4t9 4l12 -3q11 -3 11 -13v-5q0 -16 13.5 -21t13.5 -10v-6q0 -14 -6.5 -25t4.5 -11q2 0 14 8t17 8q13 0 13 -18q0 -21 -32 -53l-126 -123q-4 -3 -18 -3
q-10 0 -22.5 7t-24.5 17.5t-20.5 21.5t-10.5 20q-2 2 -17 13t-31.5 24.5t-30 27t-13.5 20.5q0 6 2 10l12 18l124 126q8 8 17 8q13 0 17 -8.5t6 -25.5z" />
    <glyph glyph-name="FLW59" unicode=";" horiz-adv-x="337" 
d="M212 723q0 -1 -3 -7t-5.5 -13t-3.5 -12.5t2 -5.5t9 3t9 3q8 0 18 -28h2q6 0 14.5 7.5t11.5 7.5q11 0 11 -19q0 -6 -5 -14.5l-10 -17t-7.5 -14.5t1.5 -6q6 0 29 15q8 6 13 3t8.5 -10.5t5.5 -17.5t5 -20q0 -17 -15.5 -38.5t-37.5 -43t-46 -40t-40 -28.5q-7 0 -21.5 11.5
t-32 29.5t-36 39.5t-33.5 42.5l-10 11q-15 17 -15 22q0 13 18 33t43.5 41t54.5 40.5l50 33.5q12 -2 16 -8zM270 399q1 -3 1 -14v-14q0 -28 -6.5 -58.5t-17 -60t-23.5 -56.5t-27 -48q-15 -20 -59 -48q-22 -13 -25.5 3t-3.5 42q0 7 -7 7q-2 0 -9 -2.5t-15.5 -6t-17 -6
t-14.5 -2.5q-14 0 -26 6l56 248q21 7 41 7.5t45 0.5q8 0 20.5 2l26 4t25.5 4t20 2q12 0 16 -10z" />
    <glyph glyph-name="FLW61" unicode="=" horiz-adv-x="423" 
d="M79 526l314 -18q6 0 8 -6t2 -14q0 -14 -15 -39t-31 -39v-2q0 -4 7 -7t7 -8t-6 -9.5l-12.5 -9t-11.5 -8.5t-3 -7q0 -1 4 -6t4 -9q0 -18 -69 -18h-30q-8 0 -29.5 -3t-49 -6.5t-56.5 -6.5t-53 -3q-13 0 -23.5 3.5t-14.5 13.5v2q0 5 10.5 16.5t10.5 15.5q0 3 -2 8t-2 8
q0 11 6 13.5t13 3t13 2.5t6 13q0 16 7.5 26.5t7.5 15.5q0 2 -2 8l-6 38q-1 5 -6 13.5t-5 10.5q0 5 7 8zM78 284l314 -18q6 0 8 -6t2 -14q0 -14 -15 -39t-31 -39v-2q0 -4 7 -7t7 -8t-6 -9.5l-12.5 -9t-11.5 -8.5t-3 -7q0 -1 4 -6t4 -9q0 -18 -69 -18h-30q-34 0 -84 -10
t-99 -10q-16 0 -27.5 4t-15.5 14v2q0 5 10.5 16.5t10.5 15.5q0 3 -2 8t-2 8q0 11 6 13.5t13 3t13 2.5t6 13q0 16 7.5 26.5t7.5 15.5q0 2 -2 8l-6 38q-1 5 -6 13.5t-5 10.5q0 5 7 8z" />
    <glyph glyph-name="question" unicode="?" horiz-adv-x="431" 
d="M320 686q42 -39 42 -146v-46l-8.5 -13.5l-18 -29.5l-18 -30t-8.5 -15q0 -52 55 -52h19q14 0 24.5 -6t-6.5 -18l-16 -12q-6 -5 -19 -8t-26 -7t-22.5 -9t-9.5 -15q0 -7 5 -15.5l12 -19.5l18 -25.5t11 -16.5t5 -13.5t1 -17.5q0 -16 -26 -36l-48 -37q-20 -16 -70 -16
q-23 0 -38 7l-4 35q3 3 8.5 10t9 13.5t1 11.5t-15.5 5t-26.5 -4t-6.5 -4q-17 0 -23.5 8t-14.5 8q-4 0 -10 -3t-12 -3q-19 0 -19 9q0 7 8.5 17.5t21 23.5l27.5 28t28 30v2q0 4 -7 13.5l-16 21.5t-17.5 25t-11.5 25q-6 10 -16.5 14.5t-11.5 6.5q0 25 7 49.5t24 46.5
q5 7 16 18.5l22.5 24.5t20 24.5t8.5 17.5q0 11 -24 21t-45 14l-13 2q-28 4 -40 18.5t-2 20.5h16l-6 2.5t-13.5 6.5l-14 7.5t-6.5 5.5q0 5 6.5 6.5t16.5 1.5q9 0 18 -0.5t15 -0.5q25 0 34 21q10 0 26 -2l33 -4l33 -4t25 -2q-9 5 -58 25q-1 0 -14 6t-26.5 13t-21 13t2.5 6
q5 0 14 -2t14 -2l90.5 -25.5z" />
    <glyph glyph-name="A" unicode="A" horiz-adv-x="757" 
d="M426 740q-6 -12 -6 -25v-7q0 -6 8 -6.5t18 1t19 3.5t10 2q4 0 13.5 -4t13.5 -4q7 0 11.5 7t13.5 7q23 0 37 -24t24.5 -61t18.5 -82t17 -87l18 -78l10.5 -53t20.5 -72l63 -174q3 -8 -3.5 -12.5t-10.5 -4.5t-12.5 4.5l-17.5 9.5t-16 9.5t-8 4.5q-10 0 -21 -17q-4 0 -10.5 8
t-13 15t-11.5 9t-5 -9q0 1 2 -9v-3q0 -9 -10 -11.5t-19 -4.5q-6 0 -12 6.5t-12 14l-11 14t-8 6.5q-5 0 -6.5 -5.5t-2 -11.5t-1.5 -11.5t-5 -5.5t-10 12t-13.5 29.5l-15 36.5t-14.5 33q-41 0 -78 -2t-71 -6q-6 -4 -10.5 -21t-13 -35.5t-23.5 -33t-41 -14.5q-9 0 -16 -6h-2
q-6 0 -8 5l-8 7q-45 -18 -71 -47l-7 -1q1 10 1.5 17t0.5 11q0 14 -6 12t-12 -2t-8 5v2q0 5 4 13t4 10q0 11 -8 8q-12 -4 -35 -27l-10 -10l-31 1q0 17 46 78q20 8 33.5 38l27.5 59l16 83q58 142 85 262q28 69 70 129h2q5 0 14.5 -2.5t13.5 -2.5q2 2 10 12t15 10h4
q3 -25 11 -25q4 0 9 5.5l10.5 12t11.5 12t11 5.5q7 0 16 -12zM414 475q-5 -6 -36 -79q0 -18 9 -26h8q2 0 5.5 1t7.5 -1h16q15 0 21.5 8t6.5 19q0 12 -8 28l-9 19l-6 20q-3 10 -15 11z" />
    <glyph glyph-name="B" unicode="B" 
d="M260 704l159 -4q-8 0 6 -11q23 -17 44 -36.5t37 -38.5l17 -19q15 -18 28 -35.5t13 -31.5t-12 -37t-24 -37l-60 -71v-2q0 -12 38 -59q34 -40 34 -96q-26 -89 -83 -124q-23 -14 -46 -14q-27 0 -50 4l-7 1h-17q-3 0 -6.5 -2t-4.5 -2q-14 0 -31.5 3.5t-35.5 8t-34 8t-27 3.5
l-5.5 -3.5t-12.5 -7t-14.5 -6.5t-11.5 -3h-2l-10 16q-5 8 -12 8h-3l-15 -24q-8 -12 -37 -14l-19 -1q-12 -1 -16.5 9t-4.5 26q0 19 3.5 42.5t3.5 43.5v60q0 12 2 31t5 40t5 40t2 31q0 11 -4.5 31t-5.5 29q-4 20 -4 92v76q0 3 -11 11t-11 13q0 2 9.5 9.5t14.5 10.5l2 30
q8 0 37 8q39 -21 59 -21q2 -2 6 3t4 8q0 13 8 12.5t19 -6t20.5 -12t12.5 -6.5q4 0 6.5 5.5t5 12.5t5 12.5t7.5 5.5t12 -7.5zM264 556q-6 -6 -6 -20q0 -7 3 -19t3 -19v-16q0 -9 6.5 -7t14.5 9t14.5 17.5t6.5 17.5q0 13 -14.5 25t-27.5 12zM260 322v-23q0 -3 -1 -9.5t-1 -9.5
q0 -16 4 -31.5t16 -15.5q11 0 22.5 10.5t11.5 21.5q0 6 -5.5 16.5t-13 20.5t-16.5 16t-17 4z" />
    <glyph glyph-name="C" unicode="C" horiz-adv-x="569" 
d="M424 710v-4q0 -2 -10.5 -8.5t-20 -14t-12.5 -13.5t12 -6q5 0 15 1.5t16 1.5q5 0 5 -2q0 -1 -4.5 -5t-16.5 -10q-12 -8 -15.5 -16t17.5 -8q10 0 29 4.5t29 4.5q2 -2 2 -15q0 -6 5 -8h25q-2 -5 -18 -14t-28 -18q0 -5 9.5 -9t10.5 -5v-2q0 -3 -3 -7t-3 -7q0 -9 20 -9
q3 0 11 0.5t11 0.5q9 0 9 -3t-4 -6.5t-8.5 -7t-4.5 -5.5q0 -8 33 -12q17 -2 14 -5t-15 -5.5t-28 -5t-26 -4.5q-19 -3 -51 -12.5t-62.5 -23.5t-52.5 -33t-22 -43q0 -14 10.5 -27t25.5 -24t32.5 -20t31.5 -14q15 -5 118 -30q-14 -14 -14 -17q0 -6 2 -18t2 -21q0 -6 -8 -13.5
t-8 -11.5v-2q0 -3 -16 -3h-7q-6 0 -9 1l-17 2q-21 2 -21 -4q0 -4 6.5 -9.5t16.5 -11t20.5 -10.5t18.5 -8v-2q3 -9 -30 -17l-29 -8q-16 -4 -26 -10l23 -30l-6 -6q-22 0 -39.5 6t-40.5 15q-16 6 -39 20.5l-48 29.5t-49 27.5t-43 15.5q-17 12 -30 23.5t-26 26.5l-29 34.5
l-38 46.5q-6 18 -6 37q0 13 5 35t12.5 46t16 46t16.5 36q54 103 110 103q86 74 171 98q-22 -7 -25 -23l6 -4l38 13q11 4 24.5 8t29.5 8z" />
    <glyph glyph-name="D" unicode="D" horiz-adv-x="684" 
d="M456 658h2q9 0 15.5 -12.5t11.5 -15.5l82 -81.5t66 -85.5q19 -34 31 -70q0 -5 -11 -11.5t-12 -9.5q3 -15 3 -31q0 -73 -90 -160q-86 -81 -138 -81q-2 0 -10.5 -1t-24.5 -4l-130 -23l-13.5 -2l-12.5 -2h-61q-90 0 -128 42q4 9 39 23q13 5 10.5 9t-11 7t-17.5 5.5t-9 6.5
q0 5 26 12q13 3 9 9.5t-13.5 14.5t-19.5 17.5t-10 19.5q0 3 7 12.5t7 15.5q0 11 11 15t13 14l-12 203q0 3 -8 9.5t-8 11.5q0 6 10 13t10 12v2q0 5 -9.5 15t-9.5 15q0 12 -12.5 20t-12.5 12q0 6 5 14t5 18q-2 7 -16 30q10 13 40.5 16t53.5 3q8 0 22.5 -0.5t36.5 -1.5l44 -2
q1 0 17.5 8.5t39.5 8.5h26q4 0 13 1t13 1q90 0 130 -42zM312 463l-1 -168l7 -9q8 2 25.5 10t36 20t32.5 26.5t14 28.5q0 13 -11.5 23l-30.5 27l-52 46l-8 2q-9 0 -12 -6z" />
    <glyph glyph-name="E" unicode="E" horiz-adv-x="510" 
d="M142 687q2 0 18 1.5t44 3.5l37 3q8 1 14.5 1h10.5q5 0 10 -0.5t10 -1.5h8q6 0 16 2l44 6q17 2 34 -13q15 1 33 4.5t38 8.5h5q8 0 10 -6v-2q0 -7 -11 -17.5t-11 -12.5q0 -4 11 -10h4q2 0 3.5 0.5t2.5 0.5q5 0 2.5 -3.5t-8 -9l-10.5 -11t-5 -9.5v-2q0 -3 14 -9t14 -13
q-3 -4 -17.5 -9t-13.5 -11q1 -5 18 -10q18 -8 13 -12.5t-18 -7t-27 -4.5t-14 -6q0 -3 10 -7t22.5 -8.5t22.5 -9t10 -8.5v-2q0 -4 -10 -5.5t-26 -1.5q-25 0 -55.5 2t-50.5 2h-9t-11 1q-52 4 -52 -21v-6l14 -9l99 8q13 1 33 1.5t48 0.5q0 -5 10 -15t6 -15l-11.5 -5.5t-21 -12
t-11.5 -13.5q0 -5 4 -12q0 -6 -13 -15t-13 -15q1 -2 13.5 -10.5t12.5 -14.5q0 -2 -2 -5.5t-2 -5.5t4 -8t4 -8v-2l-22 -12l-142 -5q-6 0 -6 -15q0 -5 2 -13.5t2 -13.5l10 -8q16 -1 28.5 -1.5t21.5 -0.5h10.5t16.5 1l40 2q11 1 20 1h17q16 0 16 -3t-2 -7.5t-2 -6.5
q0 -7 13 -5.5t15 1.5q6 0 6 -5t-3.5 -12.5t-9.5 -16l-11 -15.5q-9 -12 -10.5 -15.5t-0.5 -5t4 -4t3 -12.5v-4l-37 -19q-1 -1 6 -7.5t7 -9.5q0 -6 -7 -10.5t-17 -7.5t-20 -4.5t-17 -1.5q-5 0 -28 3.5t-55 3.5h-12q-6 0 -17 -1.5t-17 -1.5q-8 0 -23.5 1t-23.5 1q-30 0 -51 -12
h-4q-6 0 -17 3t-13 3q-10 0 -14 -10q-5 1 -18 8.5t-27 18.5t-24.5 21.5t-10.5 17.5q0 2 2 19.5t4 43.5t4 58t2 63q0 56 -5 103t-7 103l-2 54q6 15 6 42q0 12 -2 36t-2 36v12q0 2 1 6.5t1 6.5l6 6h2q8 0 26 -9.5t23 -9.5q10 0 15 11l4 19q7 0 12 -7.5t9.5 -17t9.5 -17.5
t11 -9z" />
    <glyph glyph-name="F" unicode="F" horiz-adv-x="541" 
d="M118 721q3 -2 11 -15.5t13 -13.5h2q5 0 11 10t9 10q12 -8 29.5 -11t38.5 -3q25 0 51.5 2t49.5 2h18q5 0 14 -1t14 -1q7 0 22.5 5t22.5 5q22 0 22 -44q0 -3 -6 -5.5t-14 -5t-14 -6.5t-6 -10q12 -5 24 -5h12q5 0 14.5 2t14.5 2h3q1 0 1 -5q0 -3 -5 -9t-11.5 -12.5
t-11.5 -12.5t-5 -10q0 -6 3 -14.5t3 -25.5q0 -4 13.5 -10t22.5 -13v0q0 -3 -8 -9.5t-8 -11.5q0 -11 52 -35l1 -8q0 -1 -5 -1h-10q-12 0 -34.5 4t-34.5 4q-5 -5 -4 -9.5t1 -9.5q0 -7 -12 -15.5t-13 -9.5q-1 -3 3 -4.5t9.5 -3t11 -4t7.5 -7.5v-2q0 -7 -6 -19.5t-6 -16.5
q0 -10 10 -17v-3q0 -14 -13 -15t-17 -9v0q0 -6 14 -15.5l14 -9.5q0 -7 -16.5 -9t-29.5 -2q-10 0 -26.5 2l-41.5 5l-34 4q-8 1 -13 1.5t-7 0.5l-9 -12q0 -12 1.5 -30.5t2.5 -38t2.5 -37.5t1.5 -29q0 -21 -3 -42q-5 -5 -8 -5q-15 0 -21.5 12.5t-20.5 31.5q-2 1 -18.5 -1
t-40.5 -7.5t-51.5 -14.5t-50.5 -22q-11 0 -14.5 21t-3.5 50q0 34 2.5 70.5t2.5 59.5q0 37 -2 70t-6 63l3 10q0 135 -15 226q1 3 1.5 7.5t-0.5 10.5q-1 5 -1 8.5v5.5q0 19 7.5 14.5t15.5 -4.5q5 0 18 6.5t15 6.5q9 -2 21.5 -1.5t20.5 -8.5zM266 496h-22l-6 -4v-2
q0 -19 38 -19h20q-1 0 3.5 0t14.5 1l39 2l11 4v4q0 4 -11 6.5t-26 4t-32 2.5t-29 1z" />
    <glyph glyph-name="G" unicode="G" horiz-adv-x="674" 
d="M436 706l2 -4v-2q0 -4 -8 -15t-8 -13q0 -3 10 -6l81 6q3 0 4.5 -13t8.5 -15l52 5v-2q0 -4 -7 -13.5t-7 -11.5q0 -3 6 -8h16q9 0 11 -3t-0.5 -7.5t-8 -8t-10.5 -5.5l-146 -50q-17 -6 -17 -20q0 -15 21 -15q6 0 10.5 6t13.5 6q3 0 18 -9l2 -2q4 -4 8 -4h2q4 0 6.5 6.5
t6.5 6.5q7 0 13 -21q9 -16 13.5 -11.5t15.5 24.5q5 7 28 11.5t33 4.5q22 0 27.5 -26.5t5.5 -58.5q0 1 -1.5 -10.5t-3 -31t-3 -44t-1.5 -50.5q0 -34 8 -86.5t16 -99.5q-2 -6 -6 -6q-1 0 -6 8t-11.5 17.5l-12 17.5t-8.5 8q-4 0 -4 -19q0 -6 2 -18t2 -18v-6q0 -7 -4 -4.5
t-9.5 8l-11 11t-9.5 5.5q-5 0 -10 -8v-4q0 -16 -13 -23h-2q-5 0 -12 6.5t-12 6.5q-6 0 -16 -6.5t-17 -6.5l-4 21q-1 9 -8 16h-2q-4 0 -15 -6.5t-15 -7.5q-7 0 -21.5 -1l-29.5 -2t-27.5 -2.5t-15.5 -1.5q-8 -1 -14 -1h-11q-29 0 -52.5 8t-45.5 23q-37 25 -81.5 67t-87.5 103
q-44 61 -44 91q0 16 24 40q19 53 56 106q15 20 36 44t48 50q14 14 45.5 27t69 23.5t74.5 17t63 6.5zM378 507h-2q-13 0 -29 -17.5t-30.5 -39t-24 -41.5t-9.5 -25q0 -6 2 -12l49 -52q3 -4 11 -4t7 0h10q50 0 50 42q0 9 -11 70l-7 40q-2 9 -3 15.5t-1 10.5v2q0 11 -12 11z" />
    <glyph glyph-name="H" unicode="H" horiz-adv-x="614" 
d="M374 702l12 -28h2q4 0 8.5 7t6.5 7q7 0 13.5 -15t11.5 -15q-1 0 14 12.5t37 12.5q3 0 7 3.5t8 3.5q15 -8 23 -5t12 22q4 18 15.5 12t11.5 -21v-17l-2 -19q-2 -14 7 -23l21 15l6 -7q2 -3 2.5 -26t1.5 -51l2 -54v-32q0 -15 -1 -44t-1 -43v-29q0 -14 -12 -29.5t-12 -26.5
v-14q0 -7 3 -28l5 -46q4 -34 6 -56t2 -32q0 -16 -11 -39.5t-11 -42.5v-18q0 -2 -5 -4l-5 -2q-3 -1 -8 3t-10 9.5t-9 10.5l-4 5q-6 0 -12 -5t-7 -5q-4 0 -7.5 7.5t-7 16t-8 15.5t-10.5 6q-8 -2 -21.5 -5t-31.5 -5l-4.5 15t-9.5 8q-17 -29 -28 -36q-10 0 -13 7t-2 14.5t3 12
t2 0.5q0 9 -6 38l-5 19q-3 11 -1 23t2 22q0 24 -8 51q-9 9 -22 9l-24 -3q-12 -1 -15.5 -12.5t-3.5 -25.5q0 -7 0.5 -13t0.5 -10q0 -6 -1 -19.5t-6 -34.5q-3 -16 -18.5 -31t-20.5 -25h-2q-2 0 -9 5t-11 5q-2 0 -16 -14q-7 -3 -10.5 -0.5t-5.5 6.5t-5 8t-9 4q-3 0 -8.5 -5
t-9.5 -5q-1 0 -18.5 13.5t-26.5 24.5h-11l-27 -30q-23 -24 -31 -24q-6 0 -14 4l-2 5l9 80q1 10 2 23.5t3 29.5q4 43 5 76t1 58l-2 193q0 8 -1 25.5t-1 26.5l-4 37q8 4 10 11t2 13q0 12 2.5 13t6.5 -2.5t9 -8.5t10 -5q9 0 12.5 13t9.5 32h4q8 0 12.5 -7t7 -16t5 -16t5.5 -7
q6 0 15 14t17 22l8 14q6 10 10.5 10t7.5 -6.5t4.5 -17t1.5 -19.5q0 -17 10 -16t21 1q20 0 24 31q2 14 5 16t6 -3t5 -15.5t3 -20.5l1 -12v-15q0 -12 -1 -34.5t-1 -34.5q0 -38 8 -60q5 -5 13 -5q22 0 28.5 10t6.5 33v16q0 3 -0.5 8t-0.5 8v19q0 -1 0 4t1 15l2 40l2 2h1
q3 0 8.5 -4t7.5 -4q4 0 7 6v18q0 3 -0.5 8t-0.5 7q0 27 9 27q10 0 17 -18z" />
    <glyph glyph-name="I" unicode="I" horiz-adv-x="312" 
d="M242 692q2 2 8.5 11t13.5 9h3q4 0 4 -26q0 -6 -3.5 -37.5t-8 -68.5t-8 -68.5t-3.5 -37.5v-22q44 -129 44 -286q-3 -17 -26 -27t-56 -6q-3 -19 -19.5 -27t-48.5 -19h-2q-4 0 -8.5 6.5t-8.5 14t-7 14t-6 6.5q-5 0 -16.5 -8t-15.5 -8q-1 0 -6.5 6t-13 13t-15 13t-11.5 6
q0 25 0.5 50.5t1.5 52.5v27v12q0 45 -6 90q2 27 3 51.5t1 46.5v54q0 11 -0.5 22.5t-1.5 21.5l-4 47l-6 51l4 9q0 1 4 -4.5l9.5 -12.5l10.5 -14t8 -10l18 66q3 0 8.5 -10l12 -22t12.5 -21.5t11 -9.5q14 0 19 21.5t12 41.5h5q13 0 20 -10v-9q0 -22 6 -22q3 0 8 8.5l11 19
t11.5 19t8.5 8.5q5 0 9 -9t14 -23z" />
    <glyph glyph-name="J" unicode="J" horiz-adv-x="488" 
d="M224 710q7 -10 8 -22l4 -27q4 -33 24 -39l5 4q2 2 2 11v9q0 7 -1 19.5t-1 19.5q0 15 3 23h4q8 0 13 -9t9 -22t7.5 -28.5t7.5 -28.5h2q4 0 6 5.5t3 6.5l7 38q4 0 14.5 -9t14.5 -9q7 0 12.5 14.5t15.5 14.5h4q2 0 5 -1t5 -1q11 0 18 22l6 17q3 7 8 12h18q9 0 11 -19t2 -37
v-22l-2 -49q-1 -24 4 -51t5 -66q0 -35 -6 -130l-5 -65q-1 -14 -1.5 -22.5t-0.5 -9.5q-5 -7 -12.5 -21l-15 -29l-14 -28t-10.5 -19q-39 -60 -101 -60h-25q-13 0 -36 -3.5t-35 -3.5q-90 0 -139 55q-27 16 -27 21q0 4 13 8t13 17q0 5 -4 11t-4 12q0 7 8 25q-8 7 -13 36
q-3 16 -18 26t-15 26q0 22 22 22q2 0 10 -3l17 -6.5t16 -7l7 -3.5l145 -33q2 -1 3.5 5t1.5 8q0 4 -3.5 14.5t-3.5 15.5q0 4 1 5q0 49 -3 96t-10 93q-6 44 -13.5 89.5t-17.5 93.5l6 11q19 0 26 -22z" />
    <glyph glyph-name="K" unicode="K" horiz-adv-x="594" 
d="M423 738q1 -5 1.5 -8.5t0.5 -4.5q0 -7 -3.5 -20t-3.5 -20q0 -16 12 -16q6 0 13.5 2t14.5 2q11 0 26.5 -5.5t25.5 -5.5q19 0 16 -16q-1 -4 -1.5 -7t-1.5 -7q-1 -7 5 -10l8 6q8 6 15 6t12 -8l2 -2q1 -2 -10.5 -21l-29 -46l-36.5 -57l-33 -52v-26l100 -144q18 -26 18 -34
t-7 -14l-19 -30q-10 -16 -28 -19q0 -5 -13 -23t-23 -35h-4q-5 0 -17 -6.5t-15 -6.5t-8 5.5t-10 5.5q-4 0 -15.5 -9.5t-16.5 -9.5h-2l-29 45q-7 10 -11.5 17.5t-8.5 11.5q-19 27 -36 42h-2q-10 0 -12.5 -14.5t-5 -31.5t-8 -31.5t-22.5 -14.5q-3 0 -14.5 -11t-16.5 -11
q-6 0 -15 6t-19 6q-13 0 -26 -4l-22 -6q-25 2 -39 3t-16 2q-32 6 -48 25q0 33 0.5 68t1.5 72v36v79q0 19 -1.5 39t-3.5 43v3q0 3 -3.5 10l-7.5 14.5l-7.5 14t-3.5 9.5q0 6 12 15t12 29q2 -2 0.5 5l-4 19.5t-4.5 28.5t-2 31q0 13 -4 39.5t-4 39.5q0 19 14 19q15 0 23 -7.5
t11.5 -18.5t4.5 -24t3 -24q1 2 4 11l6.5 20t8 19.5t7.5 8.5q4 0 13 -2.5t13 -2.5q7 0 12 8h2q3 0 8.5 -4.5t11 -10.5l10 -10.5t5.5 -4.5t5.5 6t11.5 13t15 13t17 6q38 0 49 -26t11 -68v-30q9 -6 11 -6v0l42 58.5l59 81.5q13 -1 19 -18z" />
    <glyph glyph-name="L" unicode="L" horiz-adv-x="484" 
d="M128 658q1 -3 4 -4h2q2 0 8 11t13 11q16 0 27 -6t19 -13t13.5 -13t9.5 -6q7 0 12.5 6t11.5 6q9 0 10 -1l4 -10l-8 -213q0 6 1 1.5t1.5 -14.5l1 -21t0.5 -17v-11q0 -14 -1 -21t19 -7q7 0 23 4.5t24 4.5l56 10q13 2 27 4.5t28 4.5h12q10 0 12 -6q-2 -8 -9 -14t-15 -10.5
t-14 -7.5t-6 -5q0 -3 25 -3q15 0 13.5 -3.5t-9.5 -8.5t-17.5 -12t-9.5 -14q0 -4 6 -10h16q23 0 26 -11q-5 -4 -17.5 -7t-28.5 -6l-33 -6t-31 -6v0q0 -5 8.5 -8t20 -5.5t23.5 -3.5t20 -2v-2q0 -1 -12 -6.5t-25.5 -11t-25 -9.5t-9.5 -2q0 -3 7 -6t15.5 -5t16 -3.5t8.5 -1.5
q-59 -54 -121 -54q-20 0 -41 -4t-44 -4q-17 0 -32 1t-27 3l-8.5 15t-11.5 8q-9 0 -27 -6t-27 -6q-10 0 -18 5v22q0 3 -3.5 39t-7 78.5t-7 78t-3.5 37.5q0 32 6 58.5t6 54.5q0 6 -0.5 12.5t-1.5 13.5l-7 46l-2.5 15.5t-2 18.5t-0.5 15.5t2 6.5q10 0 16.5 14l13.5 30t16 30
t24 14q5 0 10 -6t10.5 -14.5t9 -17.5z" />
    <glyph glyph-name="M" unicode="M" horiz-adv-x="875" 
d="M186 742l12 2l11 -23l7 -5l15.5 -11t16.5 -11t10 -5l21.5 7t26.5 8h6l109 -220q3 -7 11 -7t15.5 9.5t14 22t12.5 26.5l10 23l23 48q2 2 9 2q3 0 7.5 -12.5t6.5 -19.5q12 2 16.5 18.5t7.5 36.5t6.5 39.5t13.5 27.5v24q0 12 8 18h2q4 0 11 -5l15.5 -11t17 -11t16.5 -5
q5 0 22 14q2 0 8.5 -3t15 -6.5t18.5 -7t17 -3.5q11 0 18.5 -14t14 -34.5t11.5 -44.5l9 -44l30 -134l9 -24q13 -35 21.5 -62.5t13.5 -47.5q3 -11 3 -17q0 -8 -5 -8q-9 0 -19 15t-20.5 37.5t-21 49l-19.5 49.5q-7 -1 -7 -8q0 -3 1.5 -11.5t3.5 -18t4 -18t2 -11.5l45 -114
q4 -10 20 -46t16 -92q0 -2 -2 -2q-1 0 -10.5 4t-18.5 4h-23q-1 -2 -8 -4t-15.5 -5.5t-15 -8t-6.5 -10.5v-3q0 -2 -4 -1.5t-9 2l-8.5 2.5t-2.5 0l-28 6l-75 78l-40 82l-4 1q-3 1 -7 1l-19 -32q-32 -55 -54 -80q-16 -19 -28 -26v-4q0 -5 6.5 -15.5t6.5 -15.5q0 -12 -26 9
t-59 53l-64 64.5l-42 44.5q-14 0 -22 -26.5t-18 -51.5l-21 -54q-18 -19 -25 -19q-5 0 -6.5 6.5l-3 13.5t-5 13.5t-12.5 6.5h-4q-6 0 -14 -10.5l-17 -22.5t-18.5 -22.5t-18.5 -10.5q-5 0 -8.5 8.5t-3.5 30.5v2q0 7 -16 7l-7 -4.5l-15 -9.5t-16 -9.5t-11 -4.5q-17 0 -17 30
q0 25 10 62.5t21 64.5l9 22t2 7t-1 6t-1 15q0 9 23 93l2 7l17.5 80.5t26.5 112.5q0 1 6 24t14 51t18 51t19 25z" />
    <glyph glyph-name="N" unicode="N" horiz-adv-x="739" 
d="M139 700h19q14 0 27 12.5t25 12.5q18 0 29.5 -19t25.5 -40l185 -182q15 3 24.5 18.5t14.5 37t7 46t2 47.5q0 24 -5.5 12t-12.5 -33q-3 -10 -5.5 -10t-4 5.5t-2 13t-0.5 11.5l1 10q2 28 7 40q2 7 5 7t6 -2.5t6 -6t4 -3.5q2 0 6.5 12.5t15.5 12.5q4 0 9 -3t8 -3q4 0 15 14
t19 14q-3 0 19.5 -1t57.5 -1q19 0 29 8t23 8q12 0 16 -15t4 -37q0 -28 -3.5 -64t-3.5 -64v-39q0 -7 -0.5 -19t-1.5 -29l-4 -71q-6 -110 -6 -99q0 -56 6 -85q3 -5 10 -86q-5 -15 -15.5 -10t-20.5 5q-1 0 -17 -11.5t-39 -11.5q-7 0 -20 7t-16 7q-6 0 -12 -8l-36 32
q-16 0 -16 -10v-6q0 -15 -10 -15q-8 0 -18.5 6t-22.5 15l-23.5 18.5l-19.5 16.5l-18 16l-53 55q-29 29 -58 48q-2 2 -4 2q-15 0 -15 -34v-14q0 -63 -16 -82h-3q-4 0 -13 4t-12 4q-1 -1 -6.5 -10.5t-14 -22.5t-15.5 -18l-22 -16q-11 -8 -16 -19q-2 0 -9.5 6t-19 13t-23.5 13
t-23 6q-6 0 -16.5 -1t-16.5 -1q-2 0 -6 0.5t-10 1.5l-10 30q0 -2 3 100l2 66q1 16 1 27v19v12q0 24 -1 44t-3 36q-6 24 -6 62q0 12 1 37t1 37v18q0 3 -1 9t-1 9q0 11 -3 32.5t-3 32.5q0 27 10 27q4 0 11 -5t8 -5q7 2 16 4t22 6q21 8 27 28q2 0 5 -6l6.5 -13.5t7 -14
t6.5 -8.5z" />
    <glyph glyph-name="O" unicode="O" horiz-adv-x="688" 
d="M398 734l19 -15q122 -22 187 -93q24 -27 24 -46q0 -6 -1 -8q41 -134 41 -271q-10 -48 -15 -63q-10 -35 -22.5 -58.5t-28.5 -39.5q-10 -2 -20.5 -1t-19.5 1q-3 0 -11 -2q-132 -45 -233 -45q-26 11 -40 28q-45 0 -82.5 23.5t-86.5 65.5q-4 3 -17 14.5t-26.5 28t-24.5 36
t-11 39.5q0 5 0.5 17t0.5 17q0 26 -11 40q11 82 30 134q48 129 182 185h2q9 0 17 -9q7 -8 24 -5.5t37.5 9l40.5 13t32 6.5q11 0 13 -1zM434 475l-44 42q-28 0 -58 -8q-10 -3 -25.5 -7t-30 -12.5t-24.5 -24t-10 -42.5q0 -15 6.5 -29.5t16.5 -26.5t21 -21.5t20 -13.5h14
q4 0 10 1t11 -1l26 -2q15 -1 28.5 3t21.5 14l21 55q6 16 6 35q0 22 -10 38zM608 276l-6 -4l-42 -74q4 -6 12 -6h7q16 0 16.5 8t6.5 13l10 47q2 9 -4 16z" />
    <glyph glyph-name="P" unicode="P" horiz-adv-x="566" 
d="M160 725h4q4 0 12.5 -2t12.5 -2q11 0 12 13.5t7 15.5h2q9 0 13 -4l13 -10q68 0 136 -20q5 -4 9.5 -9t12 -11.5t20 -16.5t34.5 -24l50 -33l16.5 -10.5t8 -7t3.5 -8.5t3 -16l7 -39q10 -50 10 -69q0 -40 -19 -72q-3 -2 -7.5 -12.5l-10 -23.5t-11 -24t-10.5 -14
q-17 -29 -64 -50q-116 -51 -120 -57q0 -8 2 -24l5 -40l4 -34q1 -8 1.5 -12.5t0.5 -6.5q-10 -10 -15 -10h-2q-7 0 -15 13t-12 13q-2 0 -6 -2t-7 -2q-4 0 -9 3t-7 3h-3q-1 0 -9 -15t-14 -15q-8 0 -13 6t-8 14t-6 14t-8 6q-8 0 -19 -16q-7 -7 -30 -9.5t-48 -2.5q-8 0 -8 17
q0 8 -7 12h-2q-8 0 -15.5 -12.5t-13.5 -12.5h-2q3 0 6.5 24.5l7.5 55t6.5 58.5t2.5 34q-3 10 -7 42t-7.5 68.5t-6 69.5t-2.5 46q0 21 4 32l-22 178v26l39 2q9 -7 16 -22l12 -26q5 -13 6.5 -4t1.5 32q0 10 3 9.5t7.5 -5l10 -10.5t9.5 -6q7 0 7 25t6 25q5 0 10.5 -13.5
t11.5 -21.5zM362 486l-54 42q-4 4 -9 5t-7 1q-15 0 -15 -36q0 -10 1 -22.5t3.5 -24t5.5 -19t7 -7.5l11 5q58 25 58 50q0 5 -1 6z" />
    <glyph glyph-name="Q" unicode="Q" horiz-adv-x="729" 
d="M363 742l22 -13q92 0 162 -35q17 -8 36 -21.5t36 -30t28 -35.5t11 -38v-5q0 -7 6.5 -29.5l14.5 -48l14.5 -48t6.5 -30.5q0 -15 -9.5 -31t-21.5 -31.5t-21.5 -30t-9.5 -25.5q0 -18 9 -37t21 -39l24 -41t16 -43q2 -14 -21 -14l-16.5 8l-33 15.5t-22.5 8.5t-4 -4
q0 -5 6 -14.5t6 -13.5q0 -6 -9 -6q1 0 -5.5 4t-15 8.5t-15.5 6t-7 -2.5t1.5 -10.5t1.5 -9.5q0 -2 -3 -4h-2q-4 0 -18 9.5t-23 18.5l-5 5q-19 15 -35 15h-6q-15 0 -36.5 -4t-43 -8.5l-42 -8.5t-33.5 -4q-122 0 -206 75q-42 37 -54 82l-23 36q-6 9 -15 27.5t-9 37.5
q0 24 15 43l-6 32l17 44t25 58.5t30.5 58t33.5 44.5t38 22.5t44 18.5q67 38 146 38zM314 546l-10 -13q-57 -73 -57 -123q0 -6 10.5 -22t18.5 -24l7 -8q11 -15 42 -15q12 0 34.5 3.5t34.5 3.5q19 13 39 38l14.5 19l19.5 25l2 18q-6 13 -18.5 31.5l-31.5 44.5q-3 0 -18.5 3.5
l-34 7.5l-34.5 7.5t-18 3.5z" />
    <glyph glyph-name="R" unicode="R" horiz-adv-x="533" 
d="M250 772l92 -55q16 -10 39 -29l53 -42q68 -52 79 -112q-10 -8 -19 -36t-19 -50l-65 -80q0 -14 1.5 -22.5t5.5 -17.5t11.5 -20.5t19.5 -31.5l59 -98l4 -24q-11 -4 -31 -4q-27 0 -55 11q-4 -1 -12 -16t-15 -15q-42 13 -47 13q-10 0 -17 -6.5t-16 -6.5q-19 0 -35 28.5
t-35 55.5q-12 -2 -12 -18v-16q0 -6 -3.5 -20t-7.5 -14q-9 0 -9 10v8q0 14 -6 10t-14 -4q-4 0 -8 0.5t-9 1.5q-2 -1 -9 -8l-15 -15.5t-15 -15t-9 -6.5q-4 0 -10 5.5l-13 12.5t-14 12.5t-13 5.5l-9 -2l-38 -19l-4 8q-3 6 -3.5 17.5t-0.5 24.5v29v22t1 27q1 38 3 49
q0 22 -2 32.5t-2 33.5q0 14 2 42.5t2 42.5v26q0 4 -2 10t-2 8q1 9 1.5 15.5t0.5 10.5q0 13 -1 28.5t-3 29.5t-3 25.5t-1 15.5q0 28 8 49q0 19 -4 40q0 26 26 26q3 0 12 -2.5l19 -5.5t17.5 -5.5l7.5 -2.5q3 0 11 7t13 7q6 0 13 -9l13 -16h4q15 0 21 7.5t11 17t12.5 17
t25.5 7.5h8q2 0 12 -4zM230 572q-5 -17 -5 -40q0 -32 3 -69l4 -7q2 -5 12.5 3t22 20t21 24t9.5 15q-29 47 -67 54z" />
    <glyph glyph-name="S" unicode="S" horiz-adv-x="511" 
d="M268 750h4l2 -15q1 -8 2.5 -11.5t2 -6t-1 -7t-5.5 -14.5q2 0 12 6t21 13.5t21 13.5t12 6q17 0 43 -8t65 -8q2 0 6 2q2 2 2 -4q0 -3 -5 -11.5l-11 -18l-11 -17t-5 -8.5h4q2 0 16.5 4t26.5 7t14 4q16 0 2.5 -12.5t-35 -30l-42 -35.5t-18.5 -29l12 -70q4 -30 40 -58
q11 -49 11 -92q0 -59 -14 -90q-10 -21 -24.5 -45t-31 -44.5t-34.5 -34t-36 -13.5q-9 0 -11 6.5t-0.5 14t4 14t2.5 7.5q0 6 -6 7t-20 1q-11 0 -33.5 -7.5t-32.5 -7.5q-8 0 -12.5 7t-8.5 15.5t-8.5 15.5t-12.5 7q-9 0 -26 -5.5t-26 -5.5q-21 0 -21 4q0 2 7 9t7 11v2l-6 4
q-6 4 -24.5 -3t-36.5 -7q-14 0 -28 8v4l116 54q65 30 84 94v5q0 10 -13.5 30.5t-23.5 40.5l-26 21l-14 92q55 103 69 123l26.5 33.5t29.5 32.5z" />
    <glyph glyph-name="T" unicode="T" horiz-adv-x="602" 
d="M542 726q-1 -3 -5 -12t-4 -12q0 -5 6 -8l14 -2v-2q0 -11 -5 -29t-5 -22q-7 -20 -36 -25t-59 -13v-2q0 -9 11 -9q24 0 60 -6l60 -10q1 0 1 -4q10 -21 -52 -21h-31q-13 0 -23.5 -3.5t-10.5 -7.5q0 -8 22 -12q15 -3 15 -8t-8.5 -9.5t-21 -7.5t-21.5 -3h-16q-5 0 -10 0.5
t-10 1.5l-28 2q-7 -11 -9.5 -33t-2.5 -48q0 -23 1 -47.5t1 -45.5v-44.5t-1 -46.5q-1 -8 -1 -14v-10q0 -9 1 -27.5t1 -27.5q0 4 -7.5 -7l-18 -26t-22 -28t-19.5 -13q-17 0 -27 43q-34 43 -72 43q-9 -4 -30 -9q-5 0 -12 9l-7 9q-3 4 -4 9t-1 6q0 5 1 6l5 158q0 4 -0.5 13.5
t-1.5 25.5l-4 53q0 7 -1 18l-2 21.5t-2 17.5t-1 6l-6 5q-2 2 -9.5 1.5t-18 -2l-21.5 -3t-20 -1.5q-54 0 -54 21q0 9 9.5 18t9.5 24q0 7 5.5 12t12.5 8t13 4.5t6 3.5t-8.5 6l-18.5 8.5t-18.5 9.5t-8.5 8q0 7 10.5 17t10.5 13q0 -4 -6 16q-2 2 -2 5q0 6 6 20t6 19l8 5l328 -4
q22 2 54.5 4.5t75.5 3.5q18 -1 29 -9z" />
    <glyph glyph-name="U" unicode="U" horiz-adv-x="636" 
d="M543 782q0 -6 1.5 -17t4.5 -22t7 -19.5t9 -8.5t15 1.5t15 1.5q14 0 21 -10l-9 -178q-6 -124 -6 -158l2 -222q-22 -13 -22 -38q0 -4 2 -13.5t2 -14.5v-3q0 -3 -4 -3q-9 0 -23 19t-23 30q-3 -16 -11 -16q-4 0 -11 7.5l-14.5 16l-14.5 16t-11 7.5q-5 0 -8 -7.5t-4.5 -18.5
t-1.5 -23v-21v-24q0 -1 -4 -1.5t-5 -0.5q-2 0 -8 14t-15 14q-13 0 -16 -16l-3 -13q-1 -6 -5 -10q-17 0 -22.5 17.5t-8 39t-6.5 39t-18 17.5q-9 0 -29 -12q-59 -36 -64 -36q-111 0 -186 60q-49 39 -49 119q0 1 1.5 13t3 30t3 39.5t1.5 42.5v13q0 4 -0.5 9t-1.5 12q1 8 1.5 15
t0.5 15v27v13t-1 18l-4 87q-1 11 -1 18.5v12.5v35q0 33 16 33q4 0 12.5 -3t12.5 -3q9 0 15.5 -9t11 -23t8.5 -31t9 -33q6 4 9 20t8 30l13 45q8 24 21 39l10 -1v-29q0 -62 12 -88q1 2 6 21.5t12 42.5t16 42t18 19q5 0 6 -1l4 -5q1 -1 0.5 -7t-1.5 -13l-2 -35q-1 -10 -1 -13
t0 -1v-22l6 -4l42 32q2 2 2 -8q0 -5 -2 -14.5t-2 -13.5v-2q0 -7 -3 -43l-7 -82q-5 -58 -7.5 -99t-2.5 -66q11 -9 34.5 -14.5l41.5 -9.5q24 3 24 36q0 27 -6 56.5t-7 54.5l-4 94q-1 11 -1 19.5v13.5q0 69 13 108q3 9 13 10h12l2 -18q2 -20 6 -38t9 -18q6 0 8.5 13t6 28
t10.5 28t21 13t38 -11q0 -51 13 -73q10 0 10 15q0 24 4 43l5 26q2 11 10 21t15 15z" />
    <glyph glyph-name="V" unicode="V" horiz-adv-x="748" 
d="M306 674l64 -180h2q10 0 14 15l91 267q1 5 7.5 2t14 -9.5t13 -14.5t5.5 -14v-8q0 -5 7 -5q4 0 10 7t12 16t13 16t13 7h4q6 0 6 -10q0 -5 -3 -15t5 -10q9 0 24 14t26 16v-5q0 -9 -7 -28t-7 -23q0 -16 12 -8t26.5 22.5l26.5 26t12 1.5q0 -4 -3 -12t-3 -10q0 -5 6 -7.5
t12.5 -4.5t12.5 -6t6 -13q0 -20 -15.5 -45t-26.5 -51l-81 -185l-59 -155q-9 -23 -19.5 -58l-24.5 -81v-16q0 -23 -19 -23q-10 0 -10 6v15q0 12 -10 11l-11 -3q-8 -2 -11.5 4t-3.5 13q0 6 2 17t2 17q0 11 -3 11q-2 0 -5.5 -7t-7.5 -16t-7.5 -18.5t-5.5 -14.5l-6 -16
q-4 0 -8 5.5t-7.5 11.5t-8 11.5t-8.5 5.5q-1 -1 -10.5 -7l-20.5 -13.5t-13 -7.5q-4 0 -12 4.5t-10 4.5l-10 -17q-4 -6 -8 -6q-21 0 -35.5 14t-25.5 37t-21.5 52t-22.5 59q-22 89 -75 214l-88 210l-2 6q0 20 5 20q3 0 8.5 -7l12 -16t14 -16t14.5 -7q3 0 12.5 8l20 17l19 16
t8.5 6q-1 5 -1 16q0 8 2 9.5t5.5 0t7.5 -4.5t8 -3t15 7.5t14 7.5q9 0 13 -18q-3 3 5.5 -3.5l20 -16l21 -18t8.5 -8.5q4 0 4 11q0 7 -3.5 19t-8 24.5l-8 23t-3.5 14.5q0 11 10 0.5t23 -29.5t24.5 -39.5t14.5 -29.5z" />
    <glyph glyph-name="W" unicode="W" horiz-adv-x="973" 
d="M756 761l-5 -69q6 -6 11 -6q4 0 16.5 10t16.5 10h2q3 0 9 3t9 3q8 0 8 -10q0 -4 -2 -11t-2 -11q0 -8 12 -8h2q2 0 7 10l11.5 22.5t13 22.5t11.5 10q6 0 6 -21q0 -17 3 -17t9 7.5t15.5 16.5t21.5 9q16 0 22 -15l-4 -19l-64 -160l-85 -228l-45 -196q-5 -18 -13.5 -31
t-26.5 -13q-16 0 -22 14q0 20 -18.5 31.5t-39.5 11.5q-9 0 -19 10.5t-19.5 26.5t-19.5 35.5l-20 38.5l-58 108q-5 8 -10 8t-8 -5l-16 -23l-94 -192l-10 -7q-1 -1 -4 -1q-11 0 -9.5 13t1.5 17q0 7 -9 7h-2l-10 -10l-22 -22.5t-23 -22.5t-12 -10q-6 0 -20 -7.5t-16 -7.5
t-6.5 6.5t-10.5 16.5l-12.5 21l-11.5 19l-45 123l-22.5 62l-19.5 57q-5 13 -13 39t-21 64l-46 141l-6 47q-1 7 1.5 15t4.5 12h3q5 0 10 -6.5t7 -7.5l20 1q5 0 18 -31l12 -25t18.5 -37t17.5 -28t8 4q0 15 -4 32t-8.5 33t-8.5 28t-4 18q0 25 11 25q9 0 16.5 -11t15.5 -11
q10 0 17 -7l13.5 -14t12.5 -9t15 8q8 10 13 10.5t8.5 -5t6.5 -14t9 -16.5h2q5 0 21 13q7 -10 17.5 -45t22.5 -67h2q7 0 22.5 29l34.5 64t39 64t36 29q5 0 12.5 -5t11.5 -5q1 1 10.5 8.5t22.5 16.5t19 9q8 0 18 -10t20.5 -25t20.5 -32t17 -31q0 -2 7.5 -19.5t17.5 -38
t19.5 -37.5t13.5 -17h2q7 0 26 87l17 75q14 56 42 56q5 0 8 -1z" />
    <glyph glyph-name="X" unicode="X" horiz-adv-x="736" 
d="M557 750l5 -6v-2q0 -3 -4 -8.5t-4 -7.5q0 -4 7 -5q2 12 35 27h11q9 0 9 -6q0 -3 -3.5 -13.5t-3.5 -14.5q0 -5 22 -27l-7.5 -11t-11.5 -18.5t-10.5 -22t-4.5 -21.5q0 -8 14 4l22 16q31 24 37 24q10 0 28 -13t18 -23l-2 -6l-168 -188l3 -18l115 -134q8 -10 8 -22v-4
q0 -5 -10.5 -9t-10.5 -11q0 -3 3.5 -10t3.5 -13q0 -39 -36 -39q-9 0 -42 11q-4 -4 -4 -12q0 -3 1 -8.5t1 -8.5v-4h-2q-7 0 -21 -8.5t-17 -8.5q-10 0 -23 13l-17 15q-6 5 -14 9.5t-8 -4.5q0 -2 4 -10t4 -12q0 -7 -7.5 -12.5t-14.5 -5.5l-83 108q-5 6 -11 6t-10 -4l-108 -130
q-10 24 -29 24q-5 0 -20.5 3.5t-23.5 3.5q-11 0 -20 -1.5t-9 16.5q0 6 5 14.5t5 9.5v2q0 3 -10 3q-7 0 -23.5 -13.5t-26.5 -13.5h-6l-10 2q2 0 2 12q0 8 -6 22t-6 22q0 7 5 14l94 138q36 52 36 68v5q0 17 -17.5 42t-44 55t-58.5 62l-61 62q-12 12 -1.5 9.5t28.5 -11
l35.5 -17.5t19.5 -9q2 13 5 15.5t8 0t12 -7t15 -4.5q4 0 4 6q0 4 -2 11.5t-2 10.5q0 9 6.5 9.5t14 -2.5t14.5 -7l7 -4q12 0 9 10.5t-3 15.5q0 6 6 10h2q7 0 16 15t10 15q8 -7 22 -17t22 -10h4l5.5 11t6.5 12l9 -4q17 -8 36 -38l41 -62l8 2q9 2 49 63q53 77 99 77q13 0 25 -4
z" />
    <glyph glyph-name="Y" unicode="Y" horiz-adv-x="632" 
d="M583 761h24q5 -10 5 -21q0 -9 -3 -24q-1 -7 -2.5 -22t-4.5 -35t-8.5 -43.5t-14.5 -45.5l-30.5 -66t-45.5 -104q-11 -27 -33 -70t-39 -100l-16 -54q-7 -25 -22 -47q-9 0 -18 12.5t-15 12.5t-11.5 -9l-11.5 -19t-13.5 -19t-17.5 -9h-5q1 8 1.5 13.5t0.5 9.5q0 14 -2.5 20.5
t-7.5 8.5t-12 1.5t-16 -0.5q-20 0 -34.5 10.5t-33.5 10.5q-1 0 -30 -9q-3 -2 -8.5 -5t-10.5 -4t-9 1.5t-4 12.5q0 12 14 33t26 41l54 94l-4 18l-119 121l-82 97q1 -1 3 3t2 7q0 1 -2 11l-6 12q-1 3 1 5t11 6h2q3 0 8.5 -5.5t7.5 -5.5q6 0 4 6q-1 5 -3.5 12t-6.5 15l-4 6
l7.5 6t17 14.5t18 18t11.5 17.5q3 0 15.5 -10t18.5 -10t6.5 6t-0.5 12.5t-3.5 11.5t-2.5 2q0 4 7 10h2q4 0 16 -8t19 -8q8 0 14 12.5t14 12.5q15 0 31 -18.5t31.5 -41.5l29 -44.5t23.5 -28.5q18 3 42 42l63 104q6 10 15 10q8 0 10 -9t11 -9h4q5 0 14 2t13 2q13 0 17 -13
q1 2 10.5 11.5t25 21t27.5 11.5q9 0 15 -10z" />
    <glyph glyph-name="Z" unicode="Z" horiz-adv-x="750" 
d="M730 726l-7 -22l-31 -35t-40 -51l-23 -33l-29 -41l-23.5 -33.5l-25.5 -36.5l-51 -72q-5 -8 -18 -26.5t-13 -34.5q0 -9 7 -15t26 -6q9 0 27 2t27 2q8 0 24 0.5t40 1.5l48 2h19q16 0 16 -3t-16 -9t-36.5 -12t-40 -11t-26.5 -7q9 -4 39.5 -7.5t56.5 -8.5l1 -7l-45.5 -13
t-36.5 -10q4 -2 14.5 -4.5t24.5 -5.5l29.5 -6.5t27.5 -7.5v-2q0 -4 -20 -7t-43.5 -5t-43.5 -5t-20 -7q0 -9 37 -9h23q12 0 23 -3q15 -8 12.5 -14t-12.5 -11.5t-20.5 -12.5t-10.5 -16v-16q0 -6 -22 -6q-8 0 -25 3t-25 3q-15 0 -45 -3t-45 -3q-47 0 -68 10q-17 2 -39 3t-48 1
q-14 0 -39 -0.5t-60 -1.5l-70 -2q-4 0 -13.5 4.5t-19 10.5t-16.5 12.5t-7 10.5l2 8l114 166l86 184q2 2 2 5v3q0 9 -17 11q-14 0 -36.5 -4t-49.5 -13l-36 -12l-66 -23l-57 -21v2q0 5 6 17.5t6 18.5q0 8 -10 14v6q0 2 7 7l17 12t21.5 14t20.5 13l12 7q1 0 -3.5 7.5t-4.5 9.5
q0 4 42 18l33 10q8 2 13.5 4t9.5 4v2q0 3 -10 4.5t-11 1.5q1 0 -10 -1.5t-36 -5.5q-5 -1 -9 -1q-25 0 -25 5q0 3 6 7l12.5 8.5t12.5 10t6 11.5q0 3 -3 8t-3 8t5 5.5t11 5t11 5.5t5 8q-38 20 -38 33v9l12 2l196 -11h144l173 -4q17 -10 25 -10t16.5 11.5t25.5 15.5h4
q9 0 20 -20z" />
    <glyph glyph-name="bracketleft" unicode="[" horiz-adv-x="430" 
d="M148 688q1 0 6.5 5.5l12 12l12.5 12t9 5.5q7 -15 14 -15q8 0 17 8t25 8q10 0 19 -10.5l17 -19.5l94 10q11 -6 11 -11l-5 -4q-1 -1 -6 -4.5t-10 -7.5l-9.5 -7.5t-4.5 -5.5q19 -5 19 -12q0 -8 -14.5 -15.5t-14.5 -16.5v-2q0 -3 30 -11l24 -6q6 -1 10 -2.5t6 -2.5v-5
q-40 -6 -40 -36q0 -6 -14.5 -10t-32.5 -8t-35 -9t-22 -13q0 -7 -1.5 -23.5t-3.5 -34l-3.5 -31.5t-1.5 -16q-5 -55 -7.5 -88t-2.5 -46l6 -6h72q8 0 23 -3t27 -7.5t15 -9t-14 -7.5l-32 -5q-4 -1 -6 -4t-2 -4q0 -9 21.5 -15t36.5 -11v0q0 -9 -8.5 -12.5t-19.5 -5t-19.5 -3
t-8.5 -7.5t15 -20q-7 -16 -28 -14l-27 2q-28 1 -28 -15q0 -1 8 -4.5l18.5 -8t22 -10t18.5 -10.5l-6 -3l-8 0.5t-20 0.5q-13 -1 -35.5 -1t-55.5 -1l-122 -1q-45 0 -45 32q0 10 4 21l1 190q0 16 -2.5 46.5t-2.5 45.5v30q0 57 -7 86q1 3 1 19q0 10 -1.5 24.5l-3.5 34.5l-3 28
q-1 10 -4.5 20.5t-5.5 24.5q0 19 31 19h21q10 0 14.5 7.5t11.5 7.5h4q10 0 23 -14.5t23 -24.5z" />
    <glyph glyph-name="backslash" unicode="\" horiz-adv-x="567" 
d="M191 744q-2 -4 -2 -13q0 -6 3 -18.5t3 -18.5v-3l-4 1q-7 2 -16 11t-17.5 19.5t-16 18.5t-11.5 8q-6 0 -6 -26q0 -8 -5 -11h-2q-5 0 -12.5 7t-10.5 7h-2q-5 0 -14.5 2t-14.5 2q-11 0 -10 -10q2 -8 5.5 -19.5l7.5 -25.5q3 -11 -5 -11q-3 0 -17 9t-21 9q-3 0 -3 -3
q0 -7 7 -19.5t16.5 -27.5l20 -30.5l18.5 -27.5q16 -27 41 -84.5l52 -121.5l51 -122t39 -86l9 -14t16 -23t18 -22t15 -10q9 0 18 5.5t17.5 12.5l15.5 13t11 8l26 -21q2 -2 6.5 -5t9.5 -4.5t8.5 0.5t3.5 10q0 5 -2.5 15t-2.5 15q0 12 15 12q5 0 13 9.5t13 9.5h2q1 -1 4 -2.5
t8 -4.5l43 -34q12 -10 13.5 -6t-2 14t-9 22.5t-7.5 19.5q20 5 20 20q0 6 -6 12l-96 178q-20 38 -39.5 79t-34.5 84q-1 3 -9 31t-18.5 60.5t-20.5 59t-15 26.5q-4 0 -10.5 -6t-13 -13t-14 -13t-13.5 -6h-4q-6 0 -11.5 9t-11 20t-11.5 20t-12 9q-10 0 -16 -6z" />
    <glyph glyph-name="bracketright" unicode="]" horiz-adv-x="474" 
d="M427 702l5 -39q3 -21 12.5 -31.5t9.5 -25.5q0 -6 -1 -18.5t-2.5 -26t-2.5 -25t-2 -15.5l-16 -237q0 -3 -2.5 -8.5t-2.5 -9.5q0 -8 4 -22t4 -22q0 -13 -12 -22q0 -31 -13 -100l-20 -9h-57t-61 -1l-116 -1q-10 0 -17.5 4.5t-7.5 9.5l8 13q6 10 -46 16h-9q-27 0 -27 7
q0 4 7.5 10t18 12.5l21.5 13l19 11.5l-25.5 12.5l-19.5 9.5q0 27 -14 30l-10 2q19 19 100 34l32 6q8 2 10.5 21t2.5 43q0 18 -1 36.5t-2.5 30.5t-2.5 16t-1 -6q0 -1 0.5 16.5l1.5 52.5l2 70l-10 8h-61q-1 0 -9 0.5l-25 1.5q-23 1 -46 7t-23 17q0 7 23.5 9.5t42.5 10.5l2 17
q7 0 32 2t52 5t48.5 7.5t21.5 9.5q0 8 -22 7l-28 -2q-8 -1 -71 8q-41 6 -61 32l212 2q3 0 126 12q24 0 29 -12z" />
    <glyph glyph-name="FLW95" unicode="_" horiz-adv-x="578" 
d="M101 294l443 -18q8 0 11 -6t3 -14q0 -7 -6.5 -18t-16.5 -22.5t-21.5 -21.5t-20.5 -16v-2q0 -4 10 -7t10 -8t-8 -9.5t-17.5 -9t-16.5 -8.5t-4 -7q0 -1 5.5 -6t5.5 -9q0 -18 -97 -18h-43q-24 0 -57 -2t-74 -6q-23 -2 -59 -7t-67 -5q-22 0 -38.5 4t-22.5 14v2q0 3 4.5 7.5
t10 9.5l10 9t4.5 6q0 3 -2.5 8t-2.5 8q0 11 8 13.5t18 3t18 2.5t8 13q0 12 3.5 18.5t7.5 10.5t7.5 6.5t3.5 6.5q0 2 -2 8l-9 38q-1 5 -8 13.5t-7 10.5q0 5 9 8z" />
    <glyph glyph-name="a" unicode="a" horiz-adv-x="757" 
d="M426 740q-6 -12 -6 -25v-7q0 -6 8 -6.5t18 1t19 3.5t10 2q4 0 13.5 -4t13.5 -4q7 0 11.5 7t13.5 7q23 0 37 -24t24.5 -61t18.5 -82t17 -87l18 -78l10.5 -53t20.5 -72l63 -174q3 -8 -3.5 -12.5t-10.5 -4.5t-12.5 4.5l-17.5 9.5t-16 9.5t-8 4.5q-10 0 -21 -17q-4 0 -10.5 8
t-13 15t-11.5 9t-5 -9q0 1 2 -9v-3q0 -9 -10 -11.5t-19 -4.5q-6 0 -12 6.5t-12 14l-11 14t-8 6.5q-5 0 -6.5 -5.5t-2 -11.5t-1.5 -11.5t-5 -5.5t-10 12t-13.5 29.5l-15 36.5t-14.5 33q-41 0 -78 -2t-71 -6q-6 -4 -10.5 -21t-13 -35.5t-23.5 -33t-41 -14.5q-9 0 -16 -6h-2
q-6 0 -8 5l-8 7q-45 -18 -71 -47l-7 -1q1 10 1.5 17t0.5 11q0 14 -6 12t-12 -2t-8 5v2q0 5 4 13t4 10q0 11 -8 8q-12 -4 -35 -27l-10 -10l-31 1q0 17 46 78q20 8 33.5 38l27.5 59l16 83q58 142 85 262q28 69 70 129h2q5 0 14.5 -2.5t13.5 -2.5q2 2 10 12t15 10h4
q3 -25 11 -25q4 0 9 5.5l10.5 12t11.5 12t11 5.5q7 0 16 -12zM414 475q-5 -6 -36 -79q0 -18 9 -26h8q2 0 5.5 1t7.5 -1h16q15 0 21.5 8t6.5 19q0 12 -8 28l-9 19l-6 20q-3 10 -15 11z" />
    <glyph glyph-name="b" unicode="b" 
d="M260 704l159 -4q-8 0 6 -11q23 -17 44 -36.5t37 -38.5l17 -19q15 -18 28 -35.5t13 -31.5t-12 -37t-24 -37l-60 -71v-2q0 -12 38 -59q34 -40 34 -96q-26 -89 -83 -124q-23 -14 -46 -14q-27 0 -50 4l-7 1h-17q-3 0 -6.5 -2t-4.5 -2q-14 0 -31.5 3.5t-35.5 8t-34 8t-27 3.5
l-5.5 -3.5t-12.5 -7t-14.5 -6.5t-11.5 -3h-2l-10 16q-5 8 -12 8h-3l-15 -24q-8 -12 -37 -14l-19 -1q-12 -1 -16.5 9t-4.5 26q0 19 3.5 42.5t3.5 43.5v60q0 12 2 31t5 40t5 40t2 31q0 11 -4.5 31t-5.5 29q-4 20 -4 92v76q0 3 -11 11t-11 13q0 2 9.5 9.5t14.5 10.5l2 30
q8 0 37 8q39 -21 59 -21q2 -2 6 3t4 8q0 13 8 12.5t19 -6t20.5 -12t12.5 -6.5q4 0 6.5 5.5t5 12.5t5 12.5t7.5 5.5t12 -7.5zM264 556q-6 -6 -6 -20q0 -7 3 -19t3 -19v-16q0 -9 6.5 -7t14.5 9t14.5 17.5t6.5 17.5q0 13 -14.5 25t-27.5 12zM260 322v-23q0 -3 -1 -9.5t-1 -9.5
q0 -16 4 -31.5t16 -15.5q11 0 22.5 10.5t11.5 21.5q0 6 -5.5 16.5t-13 20.5t-16.5 16t-17 4z" />
    <glyph glyph-name="c" unicode="c" horiz-adv-x="569" 
d="M424 710v-4q0 -2 -10.5 -8.5t-20 -14t-12.5 -13.5t12 -6q5 0 15 1.5t16 1.5q5 0 5 -2q0 -1 -4.5 -5t-16.5 -10q-12 -8 -15.5 -16t17.5 -8q10 0 29 4.5t29 4.5q2 -2 2 -15q0 -6 5 -8h25q-2 -5 -18 -14t-28 -18q0 -5 9.5 -9t10.5 -5v-2q0 -3 -3 -7t-3 -7q0 -9 20 -9
q3 0 11 0.5t11 0.5q9 0 9 -3t-4 -6.5t-8.5 -7t-4.5 -5.5q0 -8 33 -12q17 -2 14 -5t-15 -5.5t-28 -5t-26 -4.5q-19 -3 -51 -12.5t-62.5 -23.5t-52.5 -33t-22 -43q0 -14 10.5 -27t25.5 -24t32.5 -20t31.5 -14q15 -5 118 -30q-14 -14 -14 -17q0 -6 2 -18t2 -21q0 -6 -8 -13.5
t-8 -11.5v-2q0 -3 -16 -3h-7q-6 0 -9 1l-17 2q-21 2 -21 -4q0 -4 6.5 -9.5t16.5 -11t20.5 -10.5t18.5 -8v-2q3 -9 -30 -17l-29 -8q-16 -4 -26 -10l23 -30l-6 -6q-22 0 -39.5 6t-40.5 15q-16 6 -39 20.5l-48 29.5t-49 27.5t-43 15.5q-17 12 -30 23.5t-26 26.5l-29 34.5
l-38 46.5q-6 18 -6 37q0 13 5 35t12.5 46t16 46t16.5 36q54 103 110 103q86 74 171 98q-22 -7 -25 -23l6 -4l38 13q11 4 24.5 8t29.5 8z" />
    <glyph glyph-name="d" unicode="d" horiz-adv-x="684" 
d="M456 658h2q9 0 15.5 -12.5t11.5 -15.5l82 -81.5t66 -85.5q19 -34 31 -70q0 -5 -11 -11.5t-12 -9.5q3 -15 3 -31q0 -73 -90 -160q-86 -81 -138 -81q-2 0 -10.5 -1t-24.5 -4l-130 -23l-13.5 -2l-12.5 -2h-61q-90 0 -128 42q4 9 39 23q13 5 10.5 9t-11 7t-17.5 5.5t-9 6.5
q0 5 26 12q13 3 9 9.5t-13.5 14.5t-19.5 17.5t-10 19.5q0 3 7 12.5t7 15.5q0 11 11 15t13 14l-12 203q0 3 -8 9.5t-8 11.5q0 6 10 13t10 12v2q0 5 -9.5 15t-9.5 15q0 12 -12.5 20t-12.5 12q0 6 5 14t5 18q-2 7 -16 30q10 13 40.5 16t53.5 3q8 0 22.5 -0.5t36.5 -1.5l44 -2
q1 0 17.5 8.5t39.5 8.5h26q4 0 13 1t13 1q90 0 130 -42zM312 463l-1 -168l7 -9q8 2 25.5 10t36 20t32.5 26.5t14 28.5q0 13 -11.5 23l-30.5 27l-52 46l-8 2q-9 0 -12 -6z" />
    <glyph glyph-name="e" unicode="e" horiz-adv-x="510" 
d="M142 687q2 0 18 1.5t44 3.5l37 3q8 1 14.5 1h10.5q5 0 10 -0.5t10 -1.5h8q6 0 16 2l44 6q17 2 34 -13q15 1 33 4.5t38 8.5h5q8 0 10 -6v-2q0 -7 -11 -17.5t-11 -12.5q0 -4 11 -10h4q2 0 3.5 0.5t2.5 0.5q5 0 2.5 -3.5t-8 -9l-10.5 -11t-5 -9.5v-2q0 -3 14 -9t14 -13
q-3 -4 -17.5 -9t-13.5 -11q1 -5 18 -10q18 -8 13 -12.5t-18 -7t-27 -4.5t-14 -6q0 -3 10 -7t22.5 -8.5t22.5 -9t10 -8.5v-2q0 -4 -10 -5.5t-26 -1.5q-25 0 -55.5 2t-50.5 2h-9t-11 1q-52 4 -52 -21v-6l14 -9l99 8q13 1 33 1.5t48 0.5q0 -5 10 -15t6 -15l-11.5 -5.5t-21 -12
t-11.5 -13.5q0 -5 4 -12q0 -6 -13 -15t-13 -15q1 -2 13.5 -10.5t12.5 -14.5q0 -2 -2 -5.5t-2 -5.5t4 -8t4 -8v-2l-22 -12l-142 -5q-6 0 -6 -15q0 -5 2 -13.5t2 -13.5l10 -8q16 -1 28.5 -1.5t21.5 -0.5h10.5t16.5 1l40 2q11 1 20 1h17q16 0 16 -3t-2 -7.5t-2 -6.5
q0 -7 13 -5.5t15 1.5q6 0 6 -5t-3.5 -12.5t-9.5 -16l-11 -15.5q-9 -12 -10.5 -15.5t-0.5 -5t4 -4t3 -12.5v-4l-37 -19q-1 -1 6 -7.5t7 -9.5q0 -6 -7 -10.5t-17 -7.5t-20 -4.5t-17 -1.5q-5 0 -28 3.5t-55 3.5h-12q-6 0 -17 -1.5t-17 -1.5q-8 0 -23.5 1t-23.5 1q-30 0 -51 -12
h-4q-6 0 -17 3t-13 3q-10 0 -14 -10q-5 1 -18 8.5t-27 18.5t-24.5 21.5t-10.5 17.5q0 2 2 19.5t4 43.5t4 58t2 63q0 56 -5 103t-7 103l-2 54q6 15 6 42q0 12 -2 36t-2 36v12q0 2 1 6.5t1 6.5l6 6h2q8 0 26 -9.5t23 -9.5q10 0 15 11l4 19q7 0 12 -7.5t9.5 -17t9.5 -17.5
t11 -9z" />
    <glyph glyph-name="f" unicode="f" horiz-adv-x="541" 
d="M118 721q3 -2 11 -15.5t13 -13.5h2q5 0 11 10t9 10q12 -8 29.5 -11t38.5 -3q25 0 51.5 2t49.5 2h18q5 0 14 -1t14 -1q7 0 22.5 5t22.5 5q22 0 22 -44q0 -3 -6 -5.5t-14 -5t-14 -6.5t-6 -10q12 -5 24 -5h12q5 0 14.5 2t14.5 2h3q1 0 1 -5q0 -3 -5 -9t-11.5 -12.5
t-11.5 -12.5t-5 -10q0 -6 3 -14.5t3 -25.5q0 -4 13.5 -10t22.5 -13v0q0 -3 -8 -9.5t-8 -11.5q0 -11 52 -35l1 -8q0 -1 -5 -1h-10q-12 0 -34.5 4t-34.5 4q-5 -5 -4 -9.5t1 -9.5q0 -7 -12 -15.5t-13 -9.5q-1 -3 3 -4.5t9.5 -3t11 -4t7.5 -7.5v-2q0 -7 -6 -19.5t-6 -16.5
q0 -10 10 -17v-3q0 -14 -13 -15t-17 -9v0q0 -6 14 -15.5l14 -9.5q0 -7 -16.5 -9t-29.5 -2q-10 0 -26.5 2l-41.5 5l-34 4q-8 1 -13 1.5t-7 0.5l-9 -12q0 -12 1.5 -30.5t2.5 -38t2.5 -37.5t1.5 -29q0 -21 -3 -42q-5 -5 -8 -5q-15 0 -21.5 12.5t-20.5 31.5q-2 1 -18.5 -1
t-40.5 -7.5t-51.5 -14.5t-50.5 -22q-11 0 -14.5 21t-3.5 50q0 34 2.5 70.5t2.5 59.5q0 37 -2 70t-6 63l3 10q0 135 -15 226q1 3 1.5 7.5t-0.5 10.5q-1 5 -1 8.5v5.5q0 19 7.5 14.5t15.5 -4.5q5 0 18 6.5t15 6.5q9 -2 21.5 -1.5t20.5 -8.5zM266 496h-22l-6 -4v-2
q0 -19 38 -19h20q-1 0 3.5 0t14.5 1l39 2l11 4v4q0 4 -11 6.5t-26 4t-32 2.5t-29 1z" />
    <glyph glyph-name="g" unicode="g" horiz-adv-x="674" 
d="M436 704l2 -4v-2q0 -4 -8 -15t-8 -13q0 -3 10 -6l81 6q3 0 4.5 -13t8.5 -15l52 5v-2q0 -4 -7 -13.5t-7 -11.5q0 -3 6 -8h16q9 0 11 -3t-0.5 -7.5t-8 -8t-10.5 -5.5l-146 -50q-17 -6 -17 -20q0 -15 21 -15q6 0 10.5 6t13.5 6q3 0 18 -9l2 -2q4 -4 8 -4h2q4 0 6.5 6.5
t6.5 6.5q7 0 13 -21q9 -16 13.5 -11.5t15.5 24.5q5 7 28 11.5t33 4.5q22 0 27.5 -26.5t5.5 -58.5q0 1 -1.5 -10.5t-3 -31t-3 -44t-1.5 -50.5q0 -34 8 -86.5t16 -99.5q-2 -6 -6 -6q-1 0 -6 8t-11.5 17.5l-12 17.5t-8.5 8q-4 0 -4 -19q0 -6 2 -18t2 -18v-6q0 -7 -4 -4.5
t-9.5 8l-11 11t-9.5 5.5q-5 0 -10 -8v-4q0 -16 -13 -23h-2q-5 0 -12 6.5t-12 6.5q-6 0 -16 -6.5t-17 -6.5l-4 21q-1 9 -8 16h-2q-4 0 -15 -6.5t-15 -7.5q-7 0 -21.5 -1l-29.5 -2t-27.5 -2.5t-15.5 -1.5q-8 -1 -14 -1h-11q-29 0 -52.5 8t-45.5 23q-37 25 -81.5 67t-87.5 103
q-44 61 -44 91q0 16 24 40q19 53 56 106q15 20 36 44t48 50q14 14 45.5 27t69 23.5t74.5 17t63 6.5zM378 505h-2q-13 0 -29 -17.5t-30.5 -39t-24 -41.5t-9.5 -25q0 -6 2 -12l49 -52q3 -4 11 -4t7 0h10q50 0 50 42q0 9 -11 70l-7 40q-2 9 -3 15.5t-1 10.5v2q0 11 -12 11z" />
    <glyph glyph-name="h" unicode="h" horiz-adv-x="614" 
d="M374 702l12 -28h2q4 0 8.5 7t6.5 7q7 0 13.5 -15t11.5 -15q-1 0 14 12.5t37 12.5q3 0 7 3.5t8 3.5q15 -8 23 -5t12 22q4 18 15.5 12t11.5 -21v-17l-2 -19q-2 -14 7 -23l21 15l6 -7q2 -3 2.5 -26t1.5 -51l2 -54v-32q0 -15 -1 -44t-1 -43v-29q0 -14 -12 -29.5t-12 -26.5
v-14q0 -7 3 -28l5 -46q4 -34 6 -56t2 -32q0 -16 -11 -39.5t-11 -42.5v-18q0 -2 -5 -4l-5 -2q-3 -1 -8 3t-10 9.5t-9 10.5l-4 5q-6 0 -12 -5t-7 -5q-4 0 -7.5 7.5t-7 16t-8 15.5t-10.5 6q-8 -2 -21.5 -5t-31.5 -5l-4.5 15t-9.5 8q-17 -29 -28 -36q-10 0 -13 7t-2 14.5t3 12
t2 0.5q0 9 -6 38l-5 19q-3 11 -1 23t2 22q0 24 -8 51q-9 9 -22 9l-24 -3q-12 -1 -15.5 -12.5t-3.5 -25.5q0 -7 0.5 -13t0.5 -10q0 -6 -1 -19.5t-6 -34.5q-3 -16 -18.5 -31t-20.5 -25h-2q-2 0 -9 5t-11 5q-2 0 -16 -14q-7 -3 -10.5 -0.5t-5.5 6.5t-5 8t-9 4q-3 0 -8.5 -5
t-9.5 -5q-1 0 -18.5 13.5t-26.5 24.5h-11l-27 -30q-23 -24 -31 -24q-6 0 -14 4l-2 5l9 80q1 10 2 23.5t3 29.5q4 43 5 76t1 58l-2 193q0 8 -1 25.5t-1 26.5l-4 37q8 4 10 11t2 13q0 12 2.5 13t6.5 -2.5t9 -8.5t10 -5q9 0 12.5 13t9.5 32h4q8 0 12.5 -7t7 -16t5 -16t5.5 -7
q6 0 15 14t17 22l8 14q6 10 10.5 10t7.5 -6.5t4.5 -17t1.5 -19.5q0 -17 10 -16t21 1q20 0 24 31q2 14 5 16t6 -3t5 -15.5t3 -20.5l1 -12v-15q0 -12 -1 -34.5t-1 -34.5q0 -38 8 -60q5 -5 13 -5q22 0 28.5 10t6.5 33v16q0 3 -0.5 8t-0.5 8v19q0 -1 0 4t1 15l2 40l2 2h1
q3 0 8.5 -4t7.5 -4q4 0 7 6v18q0 3 -0.5 8t-0.5 7q0 27 9 27q10 0 17 -18z" />
    <glyph glyph-name="i" unicode="i" horiz-adv-x="312" 
d="M242 692q2 2 8.5 11t13.5 9h3q4 0 4 -26q0 -6 -3.5 -37.5t-8 -68.5t-8 -68.5t-3.5 -37.5v-22q44 -129 44 -286q-3 -17 -26 -27t-56 -6q-3 -19 -19.5 -27t-48.5 -19h-2q-4 0 -8.5 6.5t-8.5 14t-7 14t-6 6.5q-5 0 -16.5 -8t-15.5 -8q-1 0 -6.5 6t-13 13t-15 13t-11.5 6
q0 25 0.5 50.5t1.5 52.5v27v12q0 45 -6 90q2 27 3 51.5t1 46.5v54q0 11 -0.5 22.5t-1.5 21.5l-4 47l-6 51l4 9q0 1 4 -4.5l9.5 -12.5l10.5 -14t8 -10l18 66q3 0 8.5 -10l12 -22t12.5 -21.5t11 -9.5q14 0 19 21.5t12 41.5h5q13 0 20 -10v-9q0 -22 6 -22q3 0 8 8.5l11 19
t11.5 19t8.5 8.5q5 0 9 -9t14 -23z" />
    <glyph glyph-name="j" unicode="j" horiz-adv-x="488" 
d="M224 710q7 -10 8 -22l4 -27q4 -33 24 -39l5 4q2 2 2 11v9q0 7 -1 19.5t-1 19.5q0 15 3 23h4q8 0 13 -9t9 -22t7.5 -28.5t7.5 -28.5h2q4 0 6 5.5t3 6.5l7 38q4 0 14.5 -9t14.5 -9q7 0 12.5 14.5t15.5 14.5h4q2 0 5 -1t5 -1q11 0 18 22l6 17q3 7 8 12h18q9 0 11 -19t2 -37
v-22l-2 -49q-1 -24 4 -51t5 -66q0 -35 -6 -130l-5 -65q-1 -14 -1.5 -22.5t-0.5 -9.5q-5 -7 -12.5 -21l-15 -29l-14 -28t-10.5 -19q-39 -60 -101 -60h-25q-13 0 -36 -3.5t-35 -3.5q-90 0 -139 55q-27 16 -27 21q0 4 13 8t13 17q0 5 -4 11t-4 12q0 7 8 25q-8 7 -13 36
q-3 16 -18 26t-15 26q0 22 22 22q2 0 10 -3l17 -6.5t16 -7l7 -3.5l145 -33q2 -1 3.5 5t1.5 8q0 4 -3.5 14.5t-3.5 15.5q0 4 1 5q0 49 -3 96t-10 93q-6 44 -13.5 89.5t-17.5 93.5l6 11q19 0 26 -22z" />
    <glyph glyph-name="k" unicode="k" horiz-adv-x="594" 
d="M423 738q1 -5 1.5 -8.5t0.5 -4.5q0 -7 -3.5 -20t-3.5 -20q0 -16 12 -16q6 0 13.5 2t14.5 2q11 0 26.5 -5.5t25.5 -5.5q19 0 16 -16q-1 -4 -1.5 -7t-1.5 -7q-1 -7 5 -10l8 6q8 6 15 6t12 -8l2 -2q1 -2 -10.5 -21l-29 -46l-36.5 -57l-33 -52v-26l100 -144q18 -26 18 -34
t-7 -14l-19 -30q-10 -16 -28 -19q0 -5 -13 -23t-23 -35h-4q-5 0 -17 -6.5t-15 -6.5t-8 5.5t-10 5.5q-4 0 -15.5 -9.5t-16.5 -9.5h-2l-29 45q-7 10 -11.5 17.5t-8.5 11.5q-19 27 -36 42h-2q-10 0 -12.5 -14.5t-5 -31.5t-8 -31.5t-22.5 -14.5q-3 0 -14.5 -11t-16.5 -11
q-6 0 -15 6t-19 6q-13 0 -26 -4l-22 -6q-25 2 -39 3t-16 2q-32 6 -48 25q0 33 0.5 68t1.5 72v36v79q0 19 -1.5 39t-3.5 43v3q0 3 -3.5 10l-7.5 14.5l-7.5 14t-3.5 9.5q0 6 12 15t12 29q2 -2 0.5 5l-4 19.5t-4.5 28.5t-2 31q0 13 -4 39.5t-4 39.5q0 19 14 19q15 0 23 -7.5
t11.5 -18.5t4.5 -24t3 -24q1 2 4 11l6.5 20t8 19.5t7.5 8.5q4 0 13 -2.5t13 -2.5q7 0 12 8h2q3 0 8.5 -4.5t11 -10.5l10 -10.5t5.5 -4.5t5.5 6t11.5 13t15 13t17 6q38 0 49 -26t11 -68v-30q9 -6 11 -6v0l42 58.5l59 81.5q13 -1 19 -18z" />
    <glyph glyph-name="l" unicode="l" horiz-adv-x="484" 
d="M128 658q1 -3 4 -4h2q2 0 8 11t13 11q16 0 27 -6t19 -13t13.5 -13t9.5 -6q7 0 12.5 6t11.5 6q9 0 10 -1l4 -10l-8 -213q0 6 1 1.5t1.5 -14.5l1 -21t0.5 -17v-11q0 -14 -1 -21t19 -7q7 0 23 4.5t24 4.5l56 10q13 2 27 4.5t28 4.5h12q10 0 12 -6q-2 -8 -9 -14t-15 -10.5
t-14 -7.5t-6 -5q0 -3 25 -3q15 0 13.5 -3.5t-9.5 -8.5t-17.5 -12t-9.5 -14q0 -4 6 -10h16q23 0 26 -11q-5 -4 -17.5 -7t-28.5 -6l-33 -6t-31 -6v0q0 -5 8.5 -8t20 -5.5t23.5 -3.5t20 -2v-2q0 -1 -12 -6.5t-25.5 -11t-25 -9.5t-9.5 -2q0 -3 7 -6t15.5 -5t16 -3.5t8.5 -1.5
q-59 -54 -121 -54q-20 0 -41 -4t-44 -4q-17 0 -32 1t-27 3l-8.5 15t-11.5 8q-9 0 -27 -6t-27 -6q-10 0 -18 5v22q0 3 -3.5 39t-7 78.5t-7 78t-3.5 37.5q0 32 6 58.5t6 54.5q0 6 -0.5 12.5t-1.5 13.5l-7 46l-2.5 15.5t-2 18.5t-0.5 15.5t2 6.5q10 0 16.5 14l13.5 30t16 30
t24 14q5 0 10 -6t10.5 -14.5t9 -17.5z" />
    <glyph glyph-name="m" unicode="m" horiz-adv-x="875" 
d="M186 742l12 2l11 -23l7 -5l15.5 -11t16.5 -11t10 -5l21.5 7t26.5 8h6l109 -220q3 -7 11 -7t15.5 9.5t14 22t12.5 26.5l10 23l23 48q2 2 9 2q3 0 7.5 -12.5t6.5 -19.5q12 2 16.5 18.5t7.5 36.5t6.5 39.5t13.5 27.5v24q0 12 8 18h2q4 0 11 -5l15.5 -11t17 -11t16.5 -5
q5 0 22 14q2 0 8.5 -3t15 -6.5t18.5 -7t17 -3.5q11 0 18.5 -14t14 -34.5t11.5 -44.5l9 -44l30 -134l9 -24q13 -35 21.5 -62.5t13.5 -47.5q3 -11 3 -17q0 -8 -5 -8q-9 0 -19 15t-20.5 37.5t-21 49l-19.5 49.5q-7 -1 -7 -8q0 -3 1.5 -11.5t3.5 -18t4 -18t2 -11.5l45 -114
q4 -10 20 -46t16 -92q0 -2 -2 -2q-1 0 -10.5 4t-18.5 4h-23q-1 -2 -8 -4t-15.5 -5.5t-15 -8t-6.5 -10.5v-3q0 -2 -4 -1.5t-9 2l-8.5 2.5t-2.5 0l-28 6l-75 78l-40 82l-4 1q-3 1 -7 1l-19 -32q-32 -55 -54 -80q-16 -19 -28 -26v-4q0 -5 6.5 -15.5t6.5 -15.5q0 -12 -26 9
t-59 53l-64 64.5l-42 44.5q-14 0 -22 -26.5t-18 -51.5l-21 -54q-18 -19 -25 -19q-5 0 -6.5 6.5l-3 13.5t-5 13.5t-12.5 6.5h-4q-6 0 -14 -10.5l-17 -22.5t-18.5 -22.5t-18.5 -10.5q-5 0 -8.5 8.5t-3.5 30.5v2q0 7 -16 7l-7 -4.5l-15 -9.5t-16 -9.5t-11 -4.5q-17 0 -17 30
q0 25 10 62.5t21 64.5l9 22t2 7t-1 6t-1 15q0 9 23 93l2 7l17.5 80.5t26.5 112.5q0 1 6 24t14 51t18 51t19 25z" />
    <glyph glyph-name="n" unicode="n" horiz-adv-x="739" 
d="M139 700h19q14 0 27 12.5t25 12.5q18 0 29.5 -19t25.5 -40l185 -182q15 3 24.5 18.5t14.5 37t7 46t2 47.5q0 24 -5.5 12t-12.5 -33q-3 -10 -5.5 -10t-4 5.5t-2 13t-0.5 11.5l1 10q2 28 7 40q2 7 5 7t6 -2.5t6 -6t4 -3.5q2 0 6.5 12.5t15.5 12.5q4 0 9 -3t8 -3q4 0 15 14
t19 14q-3 0 19.5 -1t57.5 -1q19 0 29 8t23 8q12 0 16 -15t4 -37q0 -28 -3.5 -64t-3.5 -64v-39q0 -7 -0.5 -19t-1.5 -29l-4 -71q-6 -110 -6 -99q0 -56 6 -85q3 -5 10 -86q-5 -15 -15.5 -10t-20.5 5q-1 0 -17 -11.5t-39 -11.5q-7 0 -20 7t-16 7q-6 0 -12 -8l-36 32
q-16 0 -16 -10v-6q0 -15 -10 -15q-8 0 -18.5 6t-22.5 15l-23.5 18.5l-19.5 16.5l-18 16l-53 55q-29 29 -58 48q-2 2 -4 2q-15 0 -15 -34v-14q0 -63 -16 -82h-3q-4 0 -13 4t-12 4q-1 -1 -6.5 -10.5t-14 -22.5t-15.5 -18l-22 -16q-11 -8 -16 -19q-2 0 -9.5 6t-19 13t-23.5 13
t-23 6q-6 0 -16.5 -1t-16.5 -1q-2 0 -6 0.5t-10 1.5l-10 30q0 -2 3 100l2 66q1 16 1 27v19v12q0 24 -1 44t-3 36q-6 24 -6 62q0 12 1 37t1 37v18q0 3 -1 9t-1 9q0 11 -3 32.5t-3 32.5q0 27 10 27q4 0 11 -5t8 -5q7 2 16 4t22 6q21 8 27 28q2 0 5 -6l6.5 -13.5t7 -14
t6.5 -8.5z" />
    <glyph glyph-name="o" unicode="o" horiz-adv-x="688" 
d="M398 734l19 -15q122 -22 187 -93q24 -27 24 -46q0 -6 -1 -8q41 -134 41 -271q-10 -48 -15 -63q-10 -35 -22.5 -58.5t-28.5 -39.5q-10 -2 -20.5 -1t-19.5 1q-3 0 -11 -2q-132 -45 -233 -45q-26 11 -40 28q-45 0 -82.5 23.5t-86.5 65.5q-4 3 -17 14.5t-26.5 28t-24.5 36
t-11 39.5q0 5 0.5 17t0.5 17q0 26 -11 40q11 82 30 134q48 129 182 185h2q9 0 17 -9q7 -8 24 -5.5t37.5 9l40.5 13t32 6.5q11 0 13 -1zM434 475l-44 42q-28 0 -58 -8q-10 -3 -25.5 -7t-30 -12.5t-24.5 -24t-10 -42.5q0 -15 6.5 -29.5t16.5 -26.5t21 -21.5t20 -13.5h14
q4 0 10 1t11 -1l26 -2q15 -1 28.5 3t21.5 14l21 55q6 16 6 35q0 22 -10 38zM608 276l-6 -4l-42 -74q4 -6 12 -6h7q16 0 16.5 8t6.5 13l10 47q2 9 -4 16z" />
    <glyph glyph-name="p" unicode="p" horiz-adv-x="566" 
d="M160 725h4q4 0 12.5 -2t12.5 -2q11 0 12 13.5t7 15.5h2q9 0 13 -4l13 -10q68 0 136 -20q5 -4 9.5 -9t12 -11.5t20 -16.5t34.5 -24l50 -33l16.5 -10.5t8 -7t3.5 -8.5t3 -16l7 -39q10 -50 10 -69q0 -40 -19 -72q-3 -2 -7.5 -12.5l-10 -23.5t-11 -24t-10.5 -14
q-17 -29 -64 -50q-116 -51 -120 -57q0 -8 2 -24l5 -40l4 -34q1 -8 1.5 -12.5t0.5 -6.5q-10 -10 -15 -10h-2q-7 0 -15 13t-12 13q-2 0 -6 -2t-7 -2q-4 0 -9 3t-7 3h-3q-1 0 -9 -15t-14 -15q-8 0 -13 6t-8 14t-6 14t-8 6q-8 0 -19 -16q-7 -7 -30 -9.5t-48 -2.5q-8 0 -8 17
q0 8 -7 12h-2q-8 0 -15.5 -12.5t-13.5 -12.5h-2q3 0 6.5 24.5l7.5 55t6.5 58.5t2.5 34q-3 10 -7 42t-7.5 68.5t-6 69.5t-2.5 46q0 21 4 32l-22 178v26l39 2q9 -7 16 -22l12 -26q5 -13 6.5 -4t1.5 32q0 10 3 9.5t7.5 -5l10 -10.5t9.5 -6q7 0 7 25t6 25q5 0 10.5 -13.5
t11.5 -21.5zM362 486l-54 42q-4 4 -9 5t-7 1q-15 0 -15 -36q0 -10 1 -22.5t3.5 -24t5.5 -19t7 -7.5l11 5q58 25 58 50q0 5 -1 6z" />
    <glyph glyph-name="q" unicode="q" horiz-adv-x="729" 
d="M363 742l22 -13q92 0 162 -35q17 -8 36 -21.5t36 -30t28 -35.5t11 -38v-5q0 -7 6.5 -29.5l14.5 -48l14.5 -48t6.5 -30.5q0 -15 -9.5 -31t-21.5 -31.5t-21.5 -30t-9.5 -25.5q0 -18 9 -37t21 -39l24 -41t16 -43q2 -14 -21 -14l-16.5 8l-33 15.5t-22.5 8.5t-4 -4
q0 -5 6 -14.5t6 -13.5q0 -6 -9 -6q1 0 -5.5 4t-15 8.5t-15.5 6t-7 -2.5t1.5 -10.5t1.5 -9.5q0 -2 -3 -4h-2q-4 0 -18 9.5t-23 18.5l-5 5q-19 15 -35 15h-6q-15 0 -36.5 -4t-43 -8.5l-42 -8.5t-33.5 -4q-122 0 -206 75q-42 37 -54 82l-23 36q-6 9 -15 27.5t-9 37.5
q0 24 15 43l-6 32l17 44t25 58.5t30.5 58t33.5 44.5t38 22.5t44 18.5q67 38 146 38zM314 546l-10 -13q-57 -73 -57 -123q0 -6 10.5 -22t18.5 -24l7 -8q11 -15 42 -15q12 0 34.5 3.5t34.5 3.5q19 13 39 38l14.5 19l19.5 25l2 18q-6 13 -18.5 31.5l-31.5 44.5q-3 0 -18.5 3.5
l-34 7.5l-34.5 7.5t-18 3.5z" />
    <glyph glyph-name="r" unicode="r" horiz-adv-x="533" 
d="M250 772l92 -55q16 -10 39 -29l53 -42q68 -52 79 -112q-10 -8 -19 -36t-19 -50l-65 -80q0 -14 1.5 -22.5t5.5 -17.5t11.5 -20.5t19.5 -31.5l59 -98l4 -24q-11 -4 -31 -4q-27 0 -55 11q-4 -1 -12 -16t-15 -15q-42 13 -47 13q-10 0 -17 -6.5t-16 -6.5q-19 0 -35 28.5
t-35 55.5q-12 -2 -12 -18v-16q0 -6 -3.5 -20t-7.5 -14q-9 0 -9 10v8q0 14 -6 10t-14 -4q-4 0 -8 0.5t-9 1.5q-2 -1 -9 -8l-15 -15.5t-15 -15t-9 -6.5q-4 0 -10 5.5l-13 12.5t-14 12.5t-13 5.5l-9 -2l-38 -19l-4 8q-3 6 -3.5 17.5t-0.5 24.5v29v22t1 27q1 38 3 49
q0 22 -2 32.5t-2 33.5q0 14 2 42.5t2 42.5v26q0 4 -2 10t-2 8q1 9 1.5 15.5t0.5 10.5q0 13 -1 28.5t-3 29.5t-3 25.5t-1 15.5q0 28 8 49q0 19 -4 40q0 26 26 26q3 0 12 -2.5l19 -5.5t17.5 -5.5l7.5 -2.5q3 0 11 7t13 7q6 0 13 -9l13 -16h4q15 0 21 7.5t11 17t12.5 17
t25.5 7.5h8q2 0 12 -4zM230 572q-5 -17 -5 -40q0 -32 3 -69l4 -7q2 -5 12.5 3t22 20t21 24t9.5 15q-29 47 -67 54z" />
    <glyph glyph-name="s" unicode="s" horiz-adv-x="511" 
d="M268 750h4l2 -15q1 -8 2.5 -11.5t2 -6t-1 -7t-5.5 -14.5q2 0 12 6t21 13.5t21 13.5t12 6q17 0 43 -8t65 -8q2 0 6 2q2 2 2 -4q0 -3 -5 -11.5l-11 -18l-11 -17t-5 -8.5h4q2 0 16.5 4t26.5 7t14 4q16 0 2.5 -12.5t-35 -30l-42 -35.5t-18.5 -29l12 -70q4 -30 40 -58
q11 -49 11 -92q0 -59 -14 -90q-10 -21 -24.5 -45t-31 -44.5t-34.5 -34t-36 -13.5q-9 0 -11 6.5t-0.5 14t4 14t2.5 7.5q0 6 -6 7t-20 1q-11 0 -33.5 -7.5t-32.5 -7.5q-8 0 -12.5 7t-8.5 15.5t-8.5 15.5t-12.5 7q-9 0 -26 -5.5t-26 -5.5q-21 0 -21 4q0 2 7 9t7 11v2l-6 4
q-6 4 -24.5 -3t-36.5 -7q-14 0 -28 8v4l116 54q65 30 84 94v5q0 10 -13.5 30.5t-23.5 40.5l-26 21l-14 92q55 103 69 123l26.5 33.5t29.5 32.5z" />
    <glyph glyph-name="t" unicode="t" horiz-adv-x="602" 
d="M542 726q-1 -3 -5 -12t-4 -12q0 -5 6 -8l14 -2v-2q0 -11 -5 -29t-5 -22q-7 -20 -36 -25t-59 -13v-2q0 -9 11 -9q24 0 60 -6l60 -10q1 0 1 -4q10 -21 -52 -21h-31q-13 0 -23.5 -3.5t-10.5 -7.5q0 -8 22 -12q15 -3 15 -8t-8.5 -9.5t-21 -7.5t-21.5 -3h-16q-5 0 -10 0.5
t-10 1.5l-28 2q-7 -11 -9.5 -33t-2.5 -48q0 -23 1 -47.5t1 -45.5v-44.5t-1 -46.5q-1 -8 -1 -14v-10q0 -9 1 -27.5t1 -27.5q0 4 -7.5 -7l-18 -26t-22 -28t-19.5 -13q-17 0 -27 43q-34 43 -72 43q-9 -4 -30 -9q-5 0 -12 9l-7 9q-3 4 -4 9t-1 6q0 5 1 6l5 158q0 4 -0.5 13.5
t-1.5 25.5l-4 53q0 7 -1 18l-2 21.5t-2 17.5t-1 6l-6 5q-2 2 -9.5 1.5t-18 -2l-21.5 -3t-20 -1.5q-54 0 -54 21q0 9 9.5 18t9.5 24q0 7 5.5 12t12.5 8t13 4.5t6 3.5t-8.5 6l-18.5 8.5t-18.5 9.5t-8.5 8q0 7 10.5 17t10.5 13q0 -4 -6 16q-2 2 -2 5q0 6 6 20t6 19l8 5l328 -4
q22 2 54.5 4.5t75.5 3.5q18 -1 29 -9z" />
    <glyph glyph-name="u" unicode="u" horiz-adv-x="636" 
d="M543 782q0 -6 1.5 -17t4.5 -22t7 -19.5t9 -8.5t15 1.5t15 1.5q14 0 21 -10l-9 -178q-6 -124 -6 -158l2 -222q-22 -13 -22 -38q0 -4 2 -13.5t2 -14.5v-3q0 -3 -4 -3q-9 0 -23 19t-23 30q-3 -16 -11 -16q-4 0 -11 7.5l-14.5 16l-14.5 16t-11 7.5q-5 0 -8 -7.5t-4.5 -18.5
t-1.5 -23v-21v-24q0 -1 -4 -1.5t-5 -0.5q-2 0 -8 14t-15 14q-13 0 -16 -16l-3 -13q-1 -6 -5 -10q-17 0 -22.5 17.5t-8 39t-6.5 39t-18 17.5q-9 0 -29 -12q-59 -36 -64 -36q-111 0 -186 60q-49 39 -49 119q0 1 1.5 13t3 30t3 39.5t1.5 42.5v13q0 4 -0.5 9t-1.5 12q1 8 1.5 15
t0.5 15v27v13t-1 18l-4 87q-1 11 -1 18.5v12.5v35q0 33 16 33q4 0 12.5 -3t12.5 -3q9 0 15.5 -9t11 -23t8.5 -31t9 -33q6 4 9 20t8 30l13 45q8 24 21 39l10 -1v-29q0 -62 12 -88q1 2 6 21.5t12 42.5t16 42t18 19q5 0 6 -1l4 -5q1 -1 0.5 -7t-1.5 -13l-2 -35q-1 -10 -1 -13
t0 -1v-22l6 -4l42 32q2 2 2 -8q0 -5 -2 -14.5t-2 -13.5v-2q0 -7 -3 -43l-7 -82q-5 -58 -7.5 -99t-2.5 -66q11 -9 34.5 -14.5l41.5 -9.5q24 3 24 36q0 27 -6 56.5t-7 54.5l-4 94q-1 11 -1 19.5v13.5q0 69 13 108q3 9 13 10h12l2 -18q2 -20 6 -38t9 -18q6 0 8.5 13t6 28
t10.5 28t21 13t38 -11q0 -51 13 -73q10 0 10 15q0 24 4 43l5 26q2 11 10 21t15 15z" />
    <glyph glyph-name="v" unicode="v" horiz-adv-x="748" 
d="M306 674l64 -180h2q10 0 14 15l91 267q1 5 7.5 2t14 -9.5t13 -14.5t5.5 -14v-8q0 -5 7 -5q4 0 10 7t12 16t13 16t13 7h4q6 0 6 -10q0 -5 -3 -15t5 -10q9 0 24 14t26 16v-5q0 -9 -7 -28t-7 -23q0 -16 12 -8t26.5 22.5l26.5 26t12 1.5q0 -4 -3 -12t-3 -10q0 -5 6 -7.5
t12.5 -4.5t12.5 -6t6 -13q0 -20 -15.5 -45t-26.5 -51l-81 -185l-59 -155q-9 -23 -19.5 -58l-24.5 -81v-16q0 -23 -19 -23q-10 0 -10 6v15q0 12 -10 11l-11 -3q-8 -2 -11.5 4t-3.5 13q0 6 2 17t2 17q0 11 -3 11q-2 0 -5.5 -7t-7.5 -16t-7.5 -18.5t-5.5 -14.5l-6 -16
q-4 0 -8 5.5t-7.5 11.5t-8 11.5t-8.5 5.5q-1 -1 -10.5 -7l-20.5 -13.5t-13 -7.5q-4 0 -12 4.5t-10 4.5l-10 -17q-4 -6 -8 -6q-21 0 -35.5 14t-25.5 37t-21.5 52t-22.5 59q-22 89 -75 214l-88 210l-2 6q0 20 5 20q3 0 8.5 -7l12 -16t14 -16t14.5 -7q3 0 12.5 8l20 17l19 16
t8.5 6q-1 5 -1 16q0 8 2 9.5t5.5 0t7.5 -4.5t8 -3t15 7.5t14 7.5q9 0 13 -18q-3 3 5.5 -3.5l20 -16l21 -18t8.5 -8.5q4 0 4 11q0 7 -3.5 19t-8 24.5l-8 23t-3.5 14.5q0 11 10 0.5t23 -29.5t24.5 -39.5t14.5 -29.5z" />
    <glyph glyph-name="w" unicode="w" horiz-adv-x="973" 
d="M756 761l-5 -69q6 -6 11 -6q4 0 16.5 10t16.5 10h2q3 0 9 3t9 3q8 0 8 -10q0 -4 -2 -11t-2 -11q0 -8 12 -8h2q2 0 7 10l11.5 22.5t13 22.5t11.5 10q6 0 6 -21q0 -17 3 -17t9 7.5t15.5 16.5t21.5 9q16 0 22 -15l-4 -19l-64 -160l-85 -228l-45 -196q-5 -18 -13.5 -31
t-26.5 -13q-16 0 -22 14q0 20 -18.5 31.5t-39.5 11.5q-9 0 -19 10.5t-19.5 26.5t-19.5 35.5l-20 38.5l-58 108q-5 8 -10 8t-8 -5l-16 -23l-94 -192l-10 -7q-1 -1 -4 -1q-11 0 -9.5 13t1.5 17q0 7 -9 7h-2l-10 -10l-22 -22.5t-23 -22.5t-12 -10q-6 0 -20 -7.5t-16 -7.5
t-6.5 6.5t-10.5 16.5l-12.5 21l-11.5 19l-45 123l-22.5 62l-19.5 57q-5 13 -13 39t-21 64l-46 141l-6 47q-1 7 1.5 15t4.5 12h3q5 0 10 -6.5t7 -7.5l20 1q5 0 18 -31l12 -25t18.5 -37t17.5 -28t8 4q0 15 -4 32t-8.5 33t-8.5 28t-4 18q0 25 11 25q9 0 16.5 -11t15.5 -11
q10 0 17 -7l13.5 -14t12.5 -9t15 8q8 10 13 10.5t8.5 -5t6.5 -14t9 -16.5h2q5 0 21 13q7 -10 17.5 -45t22.5 -67h2q7 0 22.5 29l34.5 64t39 64t36 29q5 0 12.5 -5t11.5 -5q1 1 10.5 8.5t22.5 16.5t19 9q8 0 18 -10t20.5 -25t20.5 -32t17 -31q0 -2 7.5 -19.5t17.5 -38
t19.5 -37.5t13.5 -17h2q7 0 26 87l17 75q14 56 42 56q5 0 8 -1z" />
    <glyph glyph-name="x" unicode="x" horiz-adv-x="736" 
d="M557 750l5 -6v-2q0 -3 -4 -8.5t-4 -7.5q0 -4 7 -5q2 12 35 27h11q9 0 9 -6q0 -3 -3.5 -13.5t-3.5 -14.5q0 -5 22 -27l-7.5 -11t-11.5 -18.5t-10.5 -22t-4.5 -21.5q0 -8 14 4l22 16q31 24 37 24q10 0 28 -13t18 -23l-2 -6l-168 -188l3 -18l115 -134q8 -10 8 -22v-4
q0 -5 -10.5 -9t-10.5 -11q0 -3 3.5 -10t3.5 -13q0 -39 -36 -39q-9 0 -42 11q-4 -4 -4 -12q0 -3 1 -8.5t1 -8.5v-4h-2q-7 0 -21 -8.5t-17 -8.5q-10 0 -23 13l-17 15q-6 5 -14 9.5t-8 -4.5q0 -2 4 -10t4 -12q0 -7 -7.5 -12.5t-14.5 -5.5l-83 108q-5 6 -11 6t-10 -4l-108 -130
q-10 24 -29 24q-5 0 -20.5 3.5t-23.5 3.5q-11 0 -20 -1.5t-9 16.5q0 6 5 14.5t5 9.5v2q0 3 -10 3q-7 0 -23.5 -13.5t-26.5 -13.5h-6l-10 2q2 0 2 12q0 8 -6 22t-6 22q0 7 5 14l94 138q36 52 36 68v5q0 17 -17.5 42t-44 55t-58.5 62l-61 62q-12 12 -1.5 9.5t28.5 -11
l35.5 -17.5t19.5 -9q2 13 5 15.5t8 0t12 -7t15 -4.5q4 0 4 6q0 4 -2 11.5t-2 10.5q0 9 6.5 9.5t14 -2.5t14.5 -7l7 -4q12 0 9 10.5t-3 15.5q0 6 6 10h2q7 0 16 15t10 15q8 -7 22 -17t22 -10h4l5.5 11t6.5 12l9 -4q17 -8 36 -38l41 -62l8 2q9 2 49 63q53 77 99 77q13 0 25 -4
z" />
    <glyph glyph-name="y" unicode="y" horiz-adv-x="632" 
d="M583 761h24q5 -10 5 -21q0 -9 -3 -24q-1 -7 -2.5 -22t-4.5 -35t-8.5 -43.5t-14.5 -45.5l-30.5 -66t-45.5 -104q-11 -27 -33 -70t-39 -100l-16 -54q-7 -25 -22 -47q-9 0 -18 12.5t-15 12.5t-11.5 -9l-11.5 -19t-13.5 -19t-17.5 -9h-5q1 8 1.5 13.5t0.5 9.5q0 14 -2.5 20.5
t-7.5 8.5t-12 1.5t-16 -0.5q-20 0 -34.5 10.5t-33.5 10.5q-1 0 -30 -9q-3 -2 -8.5 -5t-10.5 -4t-9 1.5t-4 12.5q0 12 14 33t26 41l54 94l-4 18l-119 121l-82 97q1 -1 3 3t2 7q0 1 -2 11l-6 12q-1 3 1 5t11 6h2q3 0 8.5 -5.5t7.5 -5.5q6 0 4 6q-1 5 -3.5 12t-6.5 15l-4 6
l7.5 6t17 14.5t18 18t11.5 17.5q3 0 15.5 -10t18.5 -10t6.5 6t-0.5 12.5t-3.5 11.5t-2.5 2q0 4 7 10h2q4 0 16 -8t19 -8q8 0 14 12.5t14 12.5q15 0 31 -18.5t31.5 -41.5l29 -44.5t23.5 -28.5q18 3 42 42l63 104q6 10 15 10q8 0 10 -9t11 -9h4q5 0 14 2t13 2q13 0 17 -13
q1 2 10.5 11.5t25 21t27.5 11.5q9 0 15 -10z" />
    <glyph glyph-name="z" unicode="z" horiz-adv-x="750" 
d="M730 726l-7 -22l-31 -35t-40 -51l-23 -33l-29 -41l-23.5 -33.5l-25.5 -36.5l-51 -72q-5 -8 -18 -26.5t-13 -34.5q0 -9 7 -15t26 -6q9 0 27 2t27 2q8 0 24 0.5t40 1.5l48 2h19q16 0 16 -3t-16 -9t-36.5 -12t-40 -11t-26.5 -7q9 -4 39.5 -7.5t56.5 -8.5l1 -7l-45.5 -13
t-36.5 -10q4 -2 14.5 -4.5t24.5 -5.5l29.5 -6.5t27.5 -7.5v-2q0 -4 -20 -7t-43.5 -5t-43.5 -5t-20 -7q0 -9 37 -9h23q12 0 23 -3q15 -8 12.5 -14t-12.5 -11.5t-20.5 -12.5t-10.5 -16v-16q0 -6 -22 -6q-8 0 -25 3t-25 3q-15 0 -45 -3t-45 -3q-47 0 -68 10q-17 2 -39 3t-48 1
q-14 0 -39 -0.5t-60 -1.5l-70 -2q-4 0 -13.5 4.5t-19 10.5t-16.5 12.5t-7 10.5l2 8l114 166l86 184q2 2 2 5v3q0 9 -17 11q-14 0 -36.5 -4t-49.5 -13l-36 -12l-66 -23l-57 -21v2q0 5 6 17.5t6 18.5q0 8 -10 14v6q0 2 7 7l17 12t21.5 14t20.5 13l12 7q1 0 -3.5 7.5t-4.5 9.5
q0 4 42 18l33 10q8 2 13.5 4t9.5 4v2q0 3 -10 4.5t-11 1.5q1 0 -10 -1.5t-36 -5.5q-5 -1 -9 -1q-25 0 -25 5q0 3 6 7l12.5 8.5t12.5 10t6 11.5q0 3 -3 8t-3 8t5 5.5t11 5t11 5.5t5 8q-38 20 -38 33v9l12 2l196 -11h144l173 -4q17 -10 25 -10t16.5 11.5t25.5 15.5h4
q9 0 20 -20z" />
    <glyph glyph-name="FLW123" unicode="{" horiz-adv-x="420" 
d="M364 624q-3 3 -12.5 -9t-20 -27t-18.5 -28.5t-7 -13.5q5 0 14.5 7.5t12.5 7.5l11 12q4 4 8 4q10 0 4.5 -14.5t-16.5 -33.5t-23.5 -37.5t-16.5 -27.5q-25 -48 -36.5 -85.5t-11.5 -61.5q0 -19 10 -44.5t24.5 -52t31 -50.5l28.5 -40q3 -4 13 -15.5t17.5 -24t7.5 -22.5
t-16 -10q-5 0 -10.5 0.5t-9.5 0.5q-11 0 -16 -8q-93 0 -177 90q-66 70 -107 174q0 1 -4.5 8l-9.5 15.5l-9.5 16.5t-4.5 12t2 10q72 172 190 248q10 0 30 6.5t49 17.5q14 0 27 -10q8 0 19.5 6t23 13.5l21.5 13.5t14 6t4 -6q0 -16 -36 -48z" />
    <glyph glyph-name="FLW124" unicode="|" horiz-adv-x="250" 
d="M230 -2v819h-210v-819h210z" />
    <glyph glyph-name="FLW125" unicode="}" horiz-adv-x="394" 
d="M189 679q58 -31 103 -96q46 -69 72 -129q10 -26 10 -47q0 -11 -1 -23t-3 -26q0 -39 -42 -113l-40 -70q-14 -25 -49.5 -47t-74.5 -22h-7q7 0 -25 -6l-10.5 -2t-9.5 -2l-9 -2q-11 -2 -17.5 -4t-11.5 -11h-23q-23 0 -31 14q90 94 160 240q0 5 4.5 17t4.5 19q0 4 -2 11t-2 11
q0 8 -3 16l-39 79.5l-57 110.5l-57 99q6 6 19 6q5 0 11 -0.5t12 -0.5v0q8 0 16.5 4t14.5 4q8 0 20.5 -4.5t25.5 -10.5t24 -10.5t17 -4.5z" />
    <glyph glyph-name="FLW137" unicode="&#x2030;" horiz-adv-x="4314" 
d="M1668 756q-3 -12 -3 -18q0 -10 13.5 -4t29 15t29 14t13.5 -7v-14q0 -8 11 -12t11 -13q-14 -14 -14 -36q0 -17 10 -29.5t27 -12.5q2 0 9 4.5t16 4.5h2q4 0 6 -5t2 -8q0 -17 -19 -39.5t-44 -44.5t-50 -40t-37 -25q9 0 -5 8.5t-33.5 18.5t-35.5 16.5t-11 3.5q-89 56 -89 97
q0 5 21.5 27t48.5 46.5t51 44t29 19.5q6 0 12 -11zM998 756h4l10 -14v-14q0 -19 -6.5 -46.5t-19.5 -54.5t-33 -49t-47 -30q-15 -4 -36.5 -17l-42.5 -26.5l-37.5 -24t-20.5 -10.5q-7 0 -8 1l-5 4l40 237q0 4 14 4l16 -1q14 0 18 13v5q0 10 5 11.5t13 -2.5t17 -11t17 -15
l9 -10q11 12 14 20.5t8 9.5q3 0 8.5 -9.5t7.5 -28.5q3 -24 9.5 -18t15 23t16.5 35t14 18zM3518 730q3 0 9.5 -2.5t10.5 -2.5q9 0 16.5 10.5t13.5 10.5q3 0 9.5 -3.5t14 -8t15.5 -8t14 -3.5t18.5 3t18.5 3q14 0 15.5 -11.5t1.5 -31.5q0 -16 -6.5 -47t-17.5 -62t-24.5 -54
t-28.5 -23q-5 0 -11 3t-10 3q-14 0 -35 -9t-30 -9q-4 0 -14.5 3t-15.5 3h-4q1 0 -7.5 13t-21.5 13q-2 0 -11 -4.5l-19.5 -9.5l-20 -9.5t-12.5 -4.5h-6q-10 0 -10 11q0 -3 9 45q1 10 -4 10q-4 0 -9 -5l-10.5 -11l-10.5 -11t-9 -5q-2 0 -7 2t-7 2q-7 0 -18.5 -8t-13.5 -8
q-6 0 -14 12h-8v12q38 109 38 148v14q0 16 5 21t12 5q5 0 10 -1t11 -1q10 0 13.5 10t12.5 10q5 0 18.5 -7.5t18.5 -7.5q7 0 12 5h4q7 0 20 7t16 7q10 0 20 -11t22 -11q10 0 17 4zM3077 704v-4q0 -10 7 -14t16 -4q12 0 21 3.5t4 3.5q3 0 10 -6.5t14 -15.5t12 -19t5 -18
q0 -12 2.5 -17t6 -8t7 -5.5t4.5 -8.5q0 -13 -8 -28.5t-18 -28t-18 -21.5l-8 -9v-2q0 -1 11.5 -9.5t11.5 -16.5q0 -5 -1 -6l-45 -6q-13 -2 -27.5 -16.5t-31.5 -14.5q-5 0 -13.5 1.5t-13.5 1.5q-3 0 -11.5 -3.5l-18 -7.5l-18 -7.5t-11.5 -3.5q-13 0 -21.5 4.5t-16 10.5t-15 11
t-19.5 6l-50 26q-2 2 -2 7q0 7 10 24l6 12q3 5 3 7q0 6 -6.5 10l-14 8.5t-14 10t-6.5 15.5q0 11 8 34.5t8 42.5q15 11 21.5 18.5l11 12.5t10.5 7t20 2q10 0 13 10v11q0 9 11.5 15.5t28.5 11t37 7t38 2.5q17 0 30.5 -10.5t19.5 -25.5zM2525 720q0 -6 -1.5 -19.5t-3.5 -29.5
t-3.5 -29.5t-1.5 -19.5q0 -23 8 -44q6 4 12.5 15.5t13.5 26t13.5 29.5t13.5 28l40 16l21 -10t21 -6q2 0 15 6l28.5 13.5t28.5 14.5t14 8h2q6 0 6 -9v-4q0 -13 -5 -36t-11 -48l-11.5 -47.5t-6.5 -32.5q-5 -23 -16 -29h-12q-11 0 -29 -6.5t-29 -6.5q-31 0 -70 -12
q-14 0 -37 7.5t-45 7.5q-6 0 -20.5 3.5t-21.5 3.5q-19 0 -36.5 -12t-33.5 -12q-26 0 -26 32q0 15 4.5 44.5t12.5 59t19 52t24 22.5q8 0 22 5t22 5q12 0 20 -14l12 1l4 7q21 36 32 36q7 0 11 -16zM672 681q-3 3 -12.5 -9t-20 -27t-18.5 -28.5t-7 -13.5q5 0 14.5 7.5t12.5 7.5
l11 12q4 4 8 4q10 0 4.5 -14.5t-16.5 -33.5t-23.5 -37.5t-16.5 -27.5q-25 -48 -36.5 -85.5t-11.5 -61.5q0 -20 10 -45t24.5 -51.5t31 -50l28.5 -40.5q3 -4 13 -15.5t17.5 -24t7.5 -22.5t-16 -10q-5 0 -10.5 0.5t-9.5 0.5q-11 0 -16 -8q-93 0 -177 90q-66 70 -107 174
q0 2 -4.5 8.5t-9.5 15l-9.5 16.5t-4.5 12t2 10q72 172 190 248q10 0 30 7l49 17q14 0 27 -10q8 0 19.5 6t23 13.5l21.5 13.5t14 6t4 -6q0 -17 -36 -48zM3925 706q58 -31 103 -96q46 -69 72 -129q10 -26 10 -47q0 -10 -1 -22.5t-3 -26.5q0 -39 -42 -113l-40 -70
q-14 -26 -49.5 -47.5t-74.5 -21.5h-7q7 0 -25 -6l-10.5 -2t-9.5 -2l-9 -2q-11 -2 -17.5 -4t-11.5 -11h-23q-23 0 -31 14q90 94 160 240q0 5 4.5 17t4.5 19q0 4 -2 11t-2 11q0 8 -3 16l-39 79.5l-57 110.5l-57 99q6 6 19 6q5 0 11 -0.5t12 -0.5v0q8 0 16.5 4t14.5 4
q8 0 20.5 -4.5t25.5 -10.5t24 -10.5t17 -4.5zM2112 692q0 -1 -3 -7t-5.5 -13t-3.5 -12.5t2 -5.5t9 3t9 3q8 0 18 -28h2q6 0 14.5 7.5t11.5 7.5q11 0 11 -19q0 -6 -5 -14.5l-10 -17t-7.5 -14.5t1.5 -6q6 0 29 15q16 11 21.5 -7t10.5 -38q0 -16 -15.5 -38t-37.5 -43.5t-46 -40
t-40 -28.5q-7 0 -21.5 11.5t-32 29.5t-36 39.5t-33.5 42.5l-10 11q-15 16 -15 22q0 14 18 33.5t43.5 40.5t54.5 40.5l50 33.5q12 -2 16 -8zM937 431q7 -12 29 -39.5l57 -71.5l36 -43.5t21 -42.5q0 -10 -9.5 -16.5t-21.5 -12t-21.5 -10.5t-9.5 -13q0 -4 -7.5 -12t-18.5 -17
l-23.5 -18.5t-21.5 -18.5v-2q0 -6 -7 -10t-15.5 -6.5t-15.5 -3l-7 -0.5q-25 0 -62 46l-98 123q1 3 8 8.5t14.5 12t13.5 13t6 11.5q0 23 36 23q4 0 12.5 -4.5t12.5 -4.5q6 0 11.5 10.5t9.5 12.5q22 9 25 31t3 59q0 9 5.5 10.5t13 -1t14.5 -6.5t10 -7zM1684 374q4 0 13 4.5
t14 4.5q4 0 15 -10.5t16 -10.5q4 0 9 4t9 4l12 -3q11 -3 11 -13v-5q0 -16 13.5 -21t13.5 -10v-6q0 -14 -6.5 -25t4.5 -11q2 0 14 8t17 8q13 0 13 -18q0 -21 -32 -53l-126 -123q-4 -3 -18 -3q-10 0 -22.5 7t-24.5 17.5t-20.5 21.5t-10.5 20q-2 2 -17 13t-31.5 24.5t-30 27
t-13.5 20.5q0 6 2 10l12 18l124 126q8 8 17 8q13 0 17 -9t6 -25zM1384 370q3 -2 7 -18.5t10 -18.5q4 0 12.5 9t12.5 9q10 0 10 -25q0 -9 -10.5 -36.5t-26 -60l-32.5 -65t-29 -52.5q-10 -18 -63 -18q-4 0 -10.5 -1t-10.5 -1q-3 0 -11 2.5l-17 5.5l-16 5.5t-9 2.5
q-13 0 -23 -13q-34 0 -34 20q0 11 7.5 26.5l18.5 37.5l100 193h2q3 0 11.5 -7t14.5 -7h2l5 7t12 15t15 15t14 7h6zM2170 368q1 -3 1 -14v-14q0 -28 -6.5 -58.5t-17 -60t-23.5 -56.5t-27 -48q-15 -20 -59 -48q-22 -13 -25.5 3t-3.5 42q0 7 -7 7q-2 0 -9 -2.5t-15.5 -6t-17 -6
t-14.5 -2.5q-14 0 -26 6l56 248q21 7 41 7.5t45 0.5q8 0 20.5 2l26 4t25.5 4t20 2q12 0 16 -10zM210 -2v819h-210v-819h210z" />
    <glyph glyph-name="FLW147" unicode="&#x201c;" horiz-adv-x="450" 
d="M203 729q0 -6 -1.5 -19.5t-3.5 -29.5t-3.5 -29.5t-1.5 -19.5q0 -23 8 -44q12 9 25.5 41t27.5 58l40 16q10 -4 21 -9t21 -7q2 0 15 6l28.5 13.5t28.5 14.5t14 8h2q6 0 6 -9v-4q0 -13 -5 -36t-11 -48l-11.5 -47t-6.5 -33q-5 -23 -16 -29h-12q-11 0 -29 -6.5t-29 -6.5
q-31 0 -70 -12q-14 0 -37 7.5t-45 7.5q-6 0 -20.5 3.5t-21.5 3.5q-19 0 -36.5 -12t-33.5 -12q-26 0 -26 32q0 15 4.5 44.5t12.5 59t19 52t24 22.5q8 0 22 5t22 5q12 0 20 -14l12 1l4 7q21 36 32 36q7 0 11 -16z" />
    <glyph glyph-name="FLW148" unicode="&#x201d;" horiz-adv-x="448" 
d="M270 710q3 0 9.5 -2.5t10.5 -2.5q9 0 16.5 10.5t13.5 10.5q3 0 9.5 -3.5t14 -8t15.5 -8t14 -3.5t18.5 3t18.5 3q14 0 15.5 -11.5t1.5 -31.5q0 -16 -6.5 -47t-17.5 -62t-24.5 -54t-28.5 -23q-5 0 -11 3t-10 3q-14 0 -35 -9t-30 -9q-4 0 -14.5 3t-15.5 3h-4q1 0 -7.5 13
t-21.5 13q-2 0 -11 -4.5l-19.5 -9.5l-20 -9.5t-12.5 -4.5h-6q-10 0 -10 11q0 -3 9 45q1 10 -4 10q-4 0 -9 -5l-10.5 -11l-10.5 -11t-9 -5q-2 0 -7 2t-7 2q-7 0 -18.5 -8t-13.5 -8q-6 0 -14 12h-8v12q38 109 38 148v14q0 16 5 21t12 5q5 0 10 -1t11 -1q10 0 13.5 10t12.5 10
q5 0 18.5 -7.5t18.5 -7.5q7 0 12 5h4q7 0 20 7t16 7q10 0 20 -11t22 -11q10 0 17 4z" />
    <glyph glyph-name="bullet" unicode="&#x2022;" horiz-adv-x="426" 
d="M221 580l5 -15q2 -5 -3 -12.5t-8 -12.5l-27 -40h10q8 0 20 10t24.5 21.5l23 21.5t14.5 10q8 0 8 -11q0 -5 -6 -20.5t-6 -17.5q0 -4 4.5 -5.5t10.5 -1.5t11.5 1t7.5 1q0 -13 2 -18t5 -5q4 0 10.5 4t14.5 4q10 0 7.5 -12t-2.5 -22q0 -27 48 -27q11 0 11 -14q0 -9 -6 -23
q-46 -65 -87.5 -109t-76.5 -67q-16 0 -23 2.5t-11.5 8.5t-10.5 16t-21 24l-25 23q-17 14 -28 24t-25 17l-62 31q-10 4 -10 23l2 9l168 165q2 1 10.5 10t14.5 9q4 0 6 -2z" />
    <glyph glyph-name="endash" unicode="&#x2013;" horiz-adv-x="496" 
d="M278 526l166 8q11 0 10 -3.5t-8.5 -8.5t-17.5 -10t-18 -8l-6 -8q-2 -3 8.5 -5.5t16.5 -2.5h19q15 0 12 -5q-11 -13 -25.5 -19.5t-14.5 -11.5q0 -4 12 -9t44 -14q0 -5 -14 -12t-30.5 -14l-30.5 -13t-14 -9q0 -13 -6 -18t-13.5 -7.5l-13.5 -4.5t-6 -8q0 -7 11.5 -14
t22.5 -7l-2 -10q-39 -10 -85 -10q-7 0 -23 0.5t-42 1.5l-51 2q-4 0 -17.5 -2t-30 -5t-32.5 -5t-25 -2q-54 0 -54 52v10q0 -1 8 9t17 26l12 21q5 8 4 8t-1 7q0 11 12.5 21.5t12.5 22.5q0 6 -32 50q0 7 11 9.5t27 2.5t34 -2l32 -3.5t21 -2.5t1 1q29 0 53.5 0.5t45.5 1.5z" />
    <glyph glyph-name="nonbreakingspace" unicode="&#xa0;" horiz-adv-x="316" 
 />
    <glyph glyph-name="exclamdown" unicode="&#xa1;" horiz-adv-x="302" 
d="M116 77l-4 19q-2 5 -7 7.5t-7 2.5q-4 0 -15.5 -8t-16.5 -8q-4 0 -14 4t-16 4q-9 0 -12 4v4q0 8 8 23.5t8 22.5q0 9 -5 26.5t-5 27.5q0 13 3 38.5t3 37.5l2 166q1 58 36 88l-12 23.5t-15 31.5l-23 50q-4 8 -4 19q0 9 6 15l36 12q26 7 36 15l10 21t13.5 25t17 20.5
t19.5 8.5l8 -8l5 -5.5l12 -13.5l15 -17.5t13 -16.5l59 -78q1 -2 1.5 -3.5l0.5 -1.5q0 -8 -12 -17q-13 -10 -17.5 -45t-4.5 -64v-39q0 -151 44 -300l-1.5 -7.5t-4 -16t-5.5 -15.5t-6 -7q-7 0 -18 10t-25 10q-3 -1 -13.5 -3.5t-29.5 -8.5q-50 -15 -50 -35v-11q0 -4 -13 -7z
" />
    <glyph glyph-name="exclamdown" unicode="&#x40e;" horiz-adv-x="302" 
d="M116 77l-4 19q-2 5 -7 7.5t-7 2.5q-4 0 -15.5 -8t-16.5 -8q-4 0 -14 4t-16 4q-9 0 -12 4v4q0 8 8 23.5t8 22.5q0 9 -5 26.5t-5 27.5q0 13 3 38.5t3 37.5l2 166q1 58 36 88l-12 23.5t-15 31.5l-23 50q-4 8 -4 19q0 9 6 15l36 12q26 7 36 15l10 21t13.5 25t17 20.5
t19.5 8.5l8 -8l5 -5.5l12 -13.5l15 -17.5t13 -16.5l59 -78q1 -2 1.5 -3.5l0.5 -1.5q0 -8 -12 -17q-13 -10 -17.5 -45t-4.5 -64v-39q0 -151 44 -300l-1.5 -7.5t-4 -16t-5.5 -15.5t-6 -7q-7 0 -18 10t-25 10q-3 -1 -13.5 -3.5t-29.5 -8.5q-50 -15 -50 -35v-11q0 -4 -13 -7z
" />
    <glyph glyph-name="cent" unicode="&#xa2;" horiz-adv-x="304" 
d="M190 715q0 -6 3 -18t3 -18q0 -11 -8 -19q4 -4 14 -4t21 3l11 3l8 -2q40 -13 40 -27v-5l-80 -42q-6 -3 -13.5 -14.5t-14 -25t-11 -26t-4.5 -19.5q0 -40 55 -65q-2 0 9 -4.5l24.5 -10.5t25 -13t11.5 -12q0 -3 -10 -3q-12 0 -34 3q-4 -4 -4 -7q0 -11 20 -11h16q6 0 6 -10
q0 -9 -10 -12.5t-10 -12.5q0 -4 1 -5v-2q0 -12 -14 -12h-13q-16 0 -21 -8.5t-9.5 -18t-12.5 -18t-29 -8.5q-26 0 -42 18t-16 46q0 3 -13 22l-28 42l-28 43.5t-13 26.5q0 12 4 35.5t4 35.5q0 20 17 40l39 44q2 2 11.5 18l20 35l19.5 34t11 15q5 0 14 1.5t14 1.5q11 0 16 -14z
" />
    <glyph glyph-name="cent" unicode="&#x45e;" horiz-adv-x="304" 
d="M190 715q0 -6 3 -18t3 -18q0 -11 -8 -19q4 -4 14 -4t21 3l11 3l8 -2q40 -13 40 -27v-5l-80 -42q-6 -3 -13.5 -14.5t-14 -25t-11 -26t-4.5 -19.5q0 -40 55 -65q-2 0 9 -4.5l24.5 -10.5t25 -13t11.5 -12q0 -3 -10 -3q-12 0 -34 3q-4 -4 -4 -7q0 -11 20 -11h16q6 0 6 -10
q0 -9 -10 -12.5t-10 -12.5q0 -4 1 -5v-2q0 -12 -14 -12h-13q-16 0 -21 -8.5t-9.5 -18t-12.5 -18t-29 -8.5q-26 0 -42 18t-16 46q0 3 -13 22l-28 42l-28 43.5t-13 26.5q0 12 4 35.5t4 35.5q0 20 17 40l39 44q2 2 11.5 18l20 35l19.5 34t11 15q5 0 14 1.5t14 1.5q11 0 16 -14z
" />
    <glyph glyph-name="FLW166" unicode="&#xa6;" horiz-adv-x="386" 
d="M182 747q-3 -12 -3 -18q0 -10 13.5 -4t29 15t29 14t13.5 -7v-14q0 -8 11 -12t11 -13q-14 -14 -14 -36q0 -17 10 -29.5t27 -12.5q2 0 9 4.5t16 4.5h2q4 0 6 -5t2 -8q0 -16 -19 -39t-44 -45t-50 -40t-37 -25q9 0 -5 8.5t-33.5 18.5t-35.5 16.5t-11 3.5q-89 56 -89 97
q0 5 21.5 27t48.5 46.5t51 44t29 19.5q6 0 12 -11zM198 365q4 0 13 4.5t14 4.5q4 0 15 -10.5t16 -10.5q4 0 9 4t9 4l12 -3q11 -3 11 -13v-5q0 -16 13.5 -21t13.5 -10v-6q0 -14 -6.5 -25t4.5 -11q2 0 14 8t17 8q13 0 13 -18q0 -21 -32 -53l-126 -123q-4 -3 -18 -3
q-10 0 -22.5 7t-24.5 17.5t-20.5 21.5t-10.5 20q-2 2 -17 13t-31.5 24.5t-30 27t-13.5 20.5q0 6 2 10l12 18l124 126q8 8 17 8q13 0 17 -8.5t6 -25.5z" />
    <glyph glyph-name="FLW168" unicode="&#xa8;" horiz-adv-x="510" 
d="M142 687q2 0 18 1.5t44 3.5l37 3q8 1 14.5 1h10.5q5 0 10 -0.5t10 -1.5h8q6 0 16 2l44 6q17 2 34 -13q15 1 33 4.5t38 8.5h5q8 0 10 -6v-2q0 -7 -11 -17.5t-11 -12.5q0 -4 11 -10h4q2 0 3.5 0.5t2.5 0.5q5 0 2.5 -3.5t-8 -9l-10.5 -11t-5 -9.5v-2q0 -3 14 -9t14 -13
q-3 -4 -17.5 -9t-13.5 -11q1 -5 18 -10q18 -8 13 -12.5t-18 -7t-27 -4.5t-14 -6q0 -3 10 -7t22.5 -8.5t22.5 -9t10 -8.5v-2q0 -4 -10 -5.5t-26 -1.5q-25 0 -55.5 2t-50.5 2h-9t-11 1q-52 4 -52 -21v-6l14 -9l99 8q13 1 33 1.5t48 0.5q0 -5 10 -15t6 -15l-11.5 -5.5t-21 -12
t-11.5 -13.5q0 -5 4 -12q0 -6 -13 -15t-13 -15q1 -2 13.5 -10.5t12.5 -14.5q0 -2 -2 -5.5t-2 -5.5t4 -8t4 -8v-2l-22 -12l-142 -5q-6 0 -6 -15q0 -5 2 -13.5t2 -13.5l10 -8q16 -1 28.5 -1.5t21.5 -0.5h10.5t16.5 1l40 2q11 1 20 1h17q16 0 16 -3t-2 -7.5t-2 -6.5
q0 -7 13 -5.5t15 1.5q6 0 6 -5t-3.5 -12.5t-9.5 -16l-11 -15.5q-9 -12 -10.5 -15.5t-0.5 -5t4 -4t3 -12.5v-4l-37 -19q-1 -1 6 -7.5t7 -9.5q0 -6 -7 -10.5t-17 -7.5t-20 -4.5t-17 -1.5q-5 0 -28 3.5t-55 3.5h-12q-6 0 -17 -1.5t-17 -1.5q-8 0 -23.5 1t-23.5 1q-30 0 -51 -12
h-4q-6 0 -17 3t-13 3q-10 0 -14 -10q-5 1 -18 8.5t-27 18.5t-24.5 21.5t-10.5 17.5q0 2 2 19.5t4 43.5t4 58t2 63q0 56 -5 103t-7 103l-2 54q6 15 6 42q0 12 -2 36t-2 36v12q0 2 1 6.5t1 6.5l6 6h2q8 0 26 -9.5t23 -9.5q10 0 15 11l4 19q7 0 12 -7.5t9.5 -17t9.5 -17.5
t11 -9z" />
    <glyph glyph-name="FLW168" unicode="&#x401;" horiz-adv-x="510" 
d="M142 687q2 0 18 1.5t44 3.5l37 3q8 1 14.5 1h10.5q5 0 10 -0.5t10 -1.5h8q6 0 16 2l44 6q17 2 34 -13q15 1 33 4.5t38 8.5h5q8 0 10 -6v-2q0 -7 -11 -17.5t-11 -12.5q0 -4 11 -10h4q2 0 3.5 0.5t2.5 0.5q5 0 2.5 -3.5t-8 -9l-10.5 -11t-5 -9.5v-2q0 -3 14 -9t14 -13
q-3 -4 -17.5 -9t-13.5 -11q1 -5 18 -10q18 -8 13 -12.5t-18 -7t-27 -4.5t-14 -6q0 -3 10 -7t22.5 -8.5t22.5 -9t10 -8.5v-2q0 -4 -10 -5.5t-26 -1.5q-25 0 -55.5 2t-50.5 2h-9t-11 1q-52 4 -52 -21v-6l14 -9l99 8q13 1 33 1.5t48 0.5q0 -5 10 -15t6 -15l-11.5 -5.5t-21 -12
t-11.5 -13.5q0 -5 4 -12q0 -6 -13 -15t-13 -15q1 -2 13.5 -10.5t12.5 -14.5q0 -2 -2 -5.5t-2 -5.5t4 -8t4 -8v-2l-22 -12l-142 -5q-6 0 -6 -15q0 -5 2 -13.5t2 -13.5l10 -8q16 -1 28.5 -1.5t21.5 -0.5h10.5t16.5 1l40 2q11 1 20 1h17q16 0 16 -3t-2 -7.5t-2 -6.5
q0 -7 13 -5.5t15 1.5q6 0 6 -5t-3.5 -12.5t-9.5 -16l-11 -15.5q-9 -12 -10.5 -15.5t-0.5 -5t4 -4t3 -12.5v-4l-37 -19q-1 -1 6 -7.5t7 -9.5q0 -6 -7 -10.5t-17 -7.5t-20 -4.5t-17 -1.5q-5 0 -28 3.5t-55 3.5h-12q-6 0 -17 -1.5t-17 -1.5q-8 0 -23.5 1t-23.5 1q-30 0 -51 -12
h-4q-6 0 -17 3t-13 3q-10 0 -14 -10q-5 1 -18 8.5t-27 18.5t-24.5 21.5t-10.5 17.5q0 2 2 19.5t4 43.5t4 58t2 63q0 56 -5 103t-7 103l-2 54q6 15 6 42q0 12 -2 36t-2 36v12q0 2 1 6.5t1 6.5l6 6h2q8 0 26 -9.5t23 -9.5q10 0 15 11l4 19q7 0 12 -7.5t9.5 -17t9.5 -17.5
t11 -9z" />
    <glyph glyph-name="FLW176" unicode="&#xb0;" horiz-adv-x="406" 
d="M277 693v-4q0 -11 7 -14.5t16 -3.5q12 0 21 3.5t4 3.5q3 0 10 -6.5t14 -15.5t12 -19.5t5 -17.5q0 -12 2.5 -17t6 -8t7 -5.5t4.5 -8.5q0 -14 -8 -29t-18 -27.5t-18 -21.5l-8 -9v-2q0 -1 11.5 -9.5t11.5 -16.5q0 -5 -1 -6l-45 -6q-7 -1 -13.5 -6l-14 -10.5t-15 -10
t-16.5 -4.5q-5 0 -13.5 1.5t-13.5 1.5q-3 0 -11.5 -3.5l-18 -7.5l-18 -7.5t-11.5 -3.5q-13 0 -21.5 4.5t-16 10.5t-15 11t-19.5 6l-50 26q-2 2 -2 7q0 7 10 24l6 12q3 4 3 7q0 6 -6.5 10l-14 8.5t-14 10t-6.5 15.5l16 77q15 11 21.5 18.5l11 12.5t10.5 7t20 2q10 0 13 10v11
q0 9 11.5 15.5t28.5 11t37 7t38 2.5q17 0 30.5 -10.5t19.5 -25.5z" />
    <glyph glyph-name="FLW183" unicode="&#xb7;" horiz-adv-x="282" 
d="M196 322l80 -118q2 -4 2 -7v-7q0 -12 -6 -12q-2 0 -9.5 3t-13.5 3q-11 0 -31 -7l-4 -5q-27 -30 -41 -30q-3 0 -10 4t-15.5 8l-17.5 8t-16 4t-12 -8q-8 0 -22 10.5t-27.5 24.5t-23 28.5t-9.5 22.5q18 11 56 62q2 2 44 14l31 8q13 4 20 4q14 0 25 -10z" />
    <glyph glyph-name="questiondown" unicode="&#xbf;" horiz-adv-x="431" 
d="M111 132q-42 39 -42 152v38q0 2 8 15.5l18 29.5l18 29.5t8 15.5q0 53 -54 53h-19q-19 0 -28 6q0 11 14.5 19.5t32.5 16t35 13.5t23 12l-29 55q-8 13 -15 27l-14 27q3 18 18.5 35t37.5 30.5t46.5 21.5t44.5 8q23 0 33 -7.5t10 -30.5v-4q0 -15 -11.5 -24.5t-11.5 -13.5
q3 0 18.5 1.5l30 3t2.5 1.5h10q12 0 15.5 -8.5t14.5 -8.5q6 0 10.5 3.5t11.5 3.5q18 0 18 -12q0 -3 -34 -40l-28 -30l-12.5 -14.5l-9.5 -11.5v-2q0 1 8.5 -13.5l20 -33.5t22.5 -35t17 -18q15 -3 15 -17t-11 -35.5t-26.5 -45t-33 -46l-29.5 -37.5l-2 -6q0 -13 34 -25
q6 -2 25.5 -9t38.5 -15.5t29 -16.5t-3 -10q-16 0 -14.5 -1.5t10.5 -4.5t19 -7t10 -10v-2q0 -8 -27 -8q-5 0 -15 1t-15 1q-24 0 -35 -20q-10 0 -26 2l-33 4l-32.5 4t-24.5 2q16 -13 80 -36l17 -7t17.5 -8.5t9.5 -7.5t-6 -3q-5 0 -14 2t-14 2l-91.5 24.5z" />
    <glyph glyph-name="questiondown" unicode="&#x457;" horiz-adv-x="431" 
d="M111 132q-42 39 -42 152v38q0 2 8 15.5l18 29.5l18 29.5t8 15.5q0 53 -54 53h-19q-19 0 -28 6q0 11 14.5 19.5t32.5 16t35 13.5t23 12l-29 55q-8 13 -15 27l-14 27q3 18 18.5 35t37.5 30.5t46.5 21.5t44.5 8q23 0 33 -7.5t10 -30.5v-4q0 -15 -11.5 -24.5t-11.5 -13.5
q3 0 18.5 1.5l30 3t2.5 1.5h10q12 0 15.5 -8.5t14.5 -8.5q6 0 10.5 3.5t11.5 3.5q18 0 18 -12q0 -3 -34 -40l-28 -30l-12.5 -14.5l-9.5 -11.5v-2q0 1 8.5 -13.5l20 -33.5t22.5 -35t17 -18q15 -3 15 -17t-11 -35.5t-26.5 -45t-33 -46l-29.5 -37.5l-2 -6q0 -13 34 -25
q6 -2 25.5 -9t38.5 -15.5t29 -16.5t-3 -10q-16 0 -14.5 -1.5t10.5 -4.5t19 -7t10 -10v-2q0 -8 -27 -8q-5 0 -15 1t-15 1q-24 0 -35 -20q-10 0 -26 2l-33 4l-32.5 4t-24.5 2q16 -13 80 -36l17 -7t17.5 -8.5t9.5 -7.5t-6 -3q-5 0 -14 2t-14 2l-91.5 24.5z" />
    <glyph glyph-name="FLW192" unicode="&#xc0;" horiz-adv-x="757" 
d="M426 740q-6 -12 -6 -25v-7q0 -6 8 -6.5t18 1t19 3.5t10 2q4 0 13.5 -4t13.5 -4q7 0 11.5 7t13.5 7q23 0 37 -24t24.5 -61t18.5 -82t17 -87l18 -78l10.5 -53t20.5 -72l63 -174q3 -8 -3.5 -12.5t-10.5 -4.5t-12.5 4.5l-17.5 9.5t-16 9.5t-8 4.5q-10 0 -21 -17q-4 0 -10.5 8
t-13 15t-11.5 9t-5 -9q0 1 2 -9v-3q0 -9 -10 -11.5t-19 -4.5q-6 0 -12 6.5t-12 14l-11 14t-8 6.5q-5 0 -6.5 -5.5t-2 -11.5t-1.5 -11.5t-5 -5.5t-10 12t-13.5 29.5l-15 36.5t-14.5 33q-41 0 -78 -2t-71 -6q-6 -4 -10.5 -21t-13 -35.5t-23.5 -33t-41 -14.5q-9 0 -16 -6h-2
q-6 0 -8 5l-8 7q-45 -18 -71 -47l-7 -1q1 10 1.5 17t0.5 11q0 14 -6 12t-12 -2t-8 5v2q0 5 4 13t4 10q0 11 -8 8q-12 -4 -35 -27l-10 -10l-31 1q0 17 46 78q20 8 33.5 38l27.5 59l16 83q58 142 85 262q28 69 70 129h2q5 0 14.5 -2.5t13.5 -2.5q2 2 10 12t15 10h4
q3 -25 11 -25q4 0 9 5.5l10.5 12t11.5 12t11 5.5q7 0 16 -12zM414 475q-5 -6 -36 -79q0 -18 9 -26h8q2 0 5.5 1t7.5 -1h16q15 0 21.5 8t6.5 19q0 12 -8 28l-9 19l-6 20q-3 10 -15 11z" />
    <glyph glyph-name="FLW192" unicode="&#x410;" horiz-adv-x="757" 
d="M426 740q-6 -12 -6 -25v-7q0 -6 8 -6.5t18 1t19 3.5t10 2q4 0 13.5 -4t13.5 -4q7 0 11.5 7t13.5 7q23 0 37 -24t24.5 -61t18.5 -82t17 -87l18 -78l10.5 -53t20.5 -72l63 -174q3 -8 -3.5 -12.5t-10.5 -4.5t-12.5 4.5l-17.5 9.5t-16 9.5t-8 4.5q-10 0 -21 -17q-4 0 -10.5 8
t-13 15t-11.5 9t-5 -9q0 1 2 -9v-3q0 -9 -10 -11.5t-19 -4.5q-6 0 -12 6.5t-12 14l-11 14t-8 6.5q-5 0 -6.5 -5.5t-2 -11.5t-1.5 -11.5t-5 -5.5t-10 12t-13.5 29.5l-15 36.5t-14.5 33q-41 0 -78 -2t-71 -6q-6 -4 -10.5 -21t-13 -35.5t-23.5 -33t-41 -14.5q-9 0 -16 -6h-2
q-6 0 -8 5l-8 7q-45 -18 -71 -47l-7 -1q1 10 1.5 17t0.5 11q0 14 -6 12t-12 -2t-8 5v2q0 5 4 13t4 10q0 11 -8 8q-12 -4 -35 -27l-10 -10l-31 1q0 17 46 78q20 8 33.5 38l27.5 59l16 83q58 142 85 262q28 69 70 129h2q5 0 14.5 -2.5t13.5 -2.5q2 2 10 12t15 10h4
q3 -25 11 -25q4 0 9 5.5l10.5 12t11.5 12t11 5.5q7 0 16 -12zM414 475q-5 -6 -36 -79q0 -18 9 -26h8q2 0 5.5 1t7.5 -1h16q15 0 21.5 8t6.5 19q0 12 -8 28l-9 19l-6 20q-3 10 -15 11z" />
    <glyph glyph-name="FLW193" unicode="&#xc1;" horiz-adv-x="560" 
d="M264 556q-6 -6 -6 -20q0 -7 3 -19t3 -19v-16q0 -8 5.5 -8.5t13 1.5t16.5 3.5t16 -1.5l34 -15.5t35 -18t38.5 -25t45.5 -35.5l22 -31l16 -25q13 -20 23.5 -46.5t10.5 -54.5q-26 -89 -83 -124q-23 -14 -46 -14q-27 0 -50 4l-7 1h-17q-3 0 -6.5 -2t-4.5 -2q-14 0 -31.5 3.5
t-35.5 8t-34 8t-27 3.5l-5.5 -3.5t-12.5 -7t-14.5 -6.5t-11.5 -3h-2l-10 16q-5 8 -12 8h-3l-15 -24q-8 -12 -37 -14l-19 -1q-12 -1 -16.5 9t-4.5 26q0 19 3.5 42.5t3.5 43.5v60q0 12 2 31t5 40t5 40t2 31q0 11 -4.5 31t-5.5 29q-4 20 -4 92v76q0 3 -11 11t-11 13
q0 2 9.5 9.5t14.5 10.5l2 30q8 0 37 8q39 -21 59 -21q2 -2 6 3t4 8q0 13 8 12.5t19 -6t20.5 -12t12.5 -6.5q4 0 6.5 5.5t5 12.5t5 12.5t7.5 5.5t12 -7.5l12 -12.5l157 -4q-2 0 0.5 -3.5t7.5 -7.5q11 -8 6 -12.5t-14 -8.5t-16 -9t2 -14l25 -27q7 -8 3.5 -12t-10.5 -7.5
t-14 -6t-7 -7.5q0 -6 19 -17q0 -12 -16 -12q-14 0 -33 6t-26 6q-24 0 -48 -6t-32 -6zM260 322v-23q0 -3 -1 -9.5t-1 -9.5q0 -16 4 -31.5t16 -15.5q11 0 22.5 10.5t11.5 21.5q0 6 -5.5 16.5t-13 20.5t-16.5 16t-17 4z" />
    <glyph glyph-name="FLW193" unicode="&#x411;" horiz-adv-x="560" 
d="M264 556q-6 -6 -6 -20q0 -7 3 -19t3 -19v-16q0 -8 5.5 -8.5t13 1.5t16.5 3.5t16 -1.5l34 -15.5t35 -18t38.5 -25t45.5 -35.5l22 -31l16 -25q13 -20 23.5 -46.5t10.5 -54.5q-26 -89 -83 -124q-23 -14 -46 -14q-27 0 -50 4l-7 1h-17q-3 0 -6.5 -2t-4.5 -2q-14 0 -31.5 3.5
t-35.5 8t-34 8t-27 3.5l-5.5 -3.5t-12.5 -7t-14.5 -6.5t-11.5 -3h-2l-10 16q-5 8 -12 8h-3l-15 -24q-8 -12 -37 -14l-19 -1q-12 -1 -16.5 9t-4.5 26q0 19 3.5 42.5t3.5 43.5v60q0 12 2 31t5 40t5 40t2 31q0 11 -4.5 31t-5.5 29q-4 20 -4 92v76q0 3 -11 11t-11 13
q0 2 9.5 9.5t14.5 10.5l2 30q8 0 37 8q39 -21 59 -21q2 -2 6 3t4 8q0 13 8 12.5t19 -6t20.5 -12t12.5 -6.5q4 0 6.5 5.5t5 12.5t5 12.5t7.5 5.5t12 -7.5l12 -12.5l157 -4q-2 0 0.5 -3.5t7.5 -7.5q11 -8 6 -12.5t-14 -8.5t-16 -9t2 -14l25 -27q7 -8 3.5 -12t-10.5 -7.5
t-14 -6t-7 -7.5q0 -6 19 -17q0 -12 -16 -12q-14 0 -33 6t-26 6q-24 0 -48 -6t-32 -6zM260 322v-23q0 -3 -1 -9.5t-1 -9.5q0 -16 4 -31.5t16 -15.5q11 0 22.5 10.5t11.5 21.5q0 6 -5.5 16.5t-13 20.5t-16.5 16t-17 4z" />
    <glyph glyph-name="FLW194" unicode="&#xc2;" 
d="M260 704l159 -4q-8 0 6 -11q23 -17 44 -36.5t37 -38.5l17 -19q15 -18 28 -35.5t13 -31.5t-12 -37t-24 -37l-60 -71v-2q0 -12 38 -59q34 -40 34 -96q-26 -89 -83 -124q-23 -14 -46 -14q-27 0 -50 4l-7 1h-17q-3 0 -6.5 -2t-4.5 -2q-14 0 -31.5 3.5t-35.5 8t-34 8t-27 3.5
l-5.5 -3.5t-12.5 -7t-14.5 -6.5t-11.5 -3h-2l-10 16q-5 8 -12 8h-3l-15 -24q-8 -12 -37 -14l-19 -1q-12 -1 -16.5 9t-4.5 26q0 19 3.5 42.5t3.5 43.5v60q0 12 2 31t5 40t5 40t2 31q0 11 -4.5 31t-5.5 29q-4 20 -4 92v76q0 3 -11 11t-11 13q0 2 9.5 9.5t14.5 10.5l2 30
q8 0 37 8q39 -21 59 -21q2 -2 6 3t4 8q0 13 8 12.5t19 -6t20.5 -12t12.5 -6.5q4 0 6.5 5.5t5 12.5t5 12.5t7.5 5.5t12 -7.5zM264 556q-6 -6 -6 -20q0 -7 3 -19t3 -19v-16q0 -9 6.5 -7t14.5 9t14.5 17.5t6.5 17.5q0 13 -14.5 25t-27.5 12zM260 322v-23q0 -3 -1 -9.5t-1 -9.5
q0 -16 4 -31.5t16 -15.5q11 0 22.5 10.5t11.5 21.5q0 6 -5.5 16.5t-13 20.5t-16.5 16t-17 4z" />
    <glyph glyph-name="FLW194" unicode="&#x412;" 
d="M260 704l159 -4q-8 0 6 -11q23 -17 44 -36.5t37 -38.5l17 -19q15 -18 28 -35.5t13 -31.5t-12 -37t-24 -37l-60 -71v-2q0 -12 38 -59q34 -40 34 -96q-26 -89 -83 -124q-23 -14 -46 -14q-27 0 -50 4l-7 1h-17q-3 0 -6.5 -2t-4.5 -2q-14 0 -31.5 3.5t-35.5 8t-34 8t-27 3.5
l-5.5 -3.5t-12.5 -7t-14.5 -6.5t-11.5 -3h-2l-10 16q-5 8 -12 8h-3l-15 -24q-8 -12 -37 -14l-19 -1q-12 -1 -16.5 9t-4.5 26q0 19 3.5 42.5t3.5 43.5v60q0 12 2 31t5 40t5 40t2 31q0 11 -4.5 31t-5.5 29q-4 20 -4 92v76q0 3 -11 11t-11 13q0 2 9.5 9.5t14.5 10.5l2 30
q8 0 37 8q39 -21 59 -21q2 -2 6 3t4 8q0 13 8 12.5t19 -6t20.5 -12t12.5 -6.5q4 0 6.5 5.5t5 12.5t5 12.5t7.5 5.5t12 -7.5zM264 556q-6 -6 -6 -20q0 -7 3 -19t3 -19v-16q0 -9 6.5 -7t14.5 9t14.5 17.5t6.5 17.5q0 13 -14.5 25t-27.5 12zM260 322v-23q0 -3 -1 -9.5t-1 -9.5
q0 -16 4 -31.5t16 -15.5q11 0 22.5 10.5t11.5 21.5q0 6 -5.5 16.5t-13 20.5t-16.5 16t-17 4z" />
    <glyph glyph-name="FLW195" unicode="&#xc3;" horiz-adv-x="484" 
d="M128 158q1 3 4 4h2q2 0 8 -11t13 -11q16 0 27 6t19 13t13.5 13t9.5 6q7 0 12.5 -6t11.5 -6q9 0 10 1l4 10l-8 213q0 -6 1 -1.5t1.5 14.5l1 21t0.5 17v11q0 14 -1 21t19 7q7 0 23 -4.5t24 -4.5l56 -10q13 -2 27 -4.5t28 -4.5h12q10 0 12 6q-2 8 -9 14t-15 10.5t-14 7.5
t-6 5q0 3 25 3q15 0 13.5 3.5t-9.5 8.5t-17.5 12t-9.5 14q0 4 6 10h16q23 0 26 11q-5 4 -17.5 7t-28.5 6l-33 6t-31 6v0q0 5 8.5 8t20 5.5t23.5 3.5t20 2v2q0 1 -12 6.5t-25.5 11t-25 9.5t-9.5 2q0 3 7 6t15.5 5t16 3.5t8.5 1.5q-59 54 -121 54q-20 0 -41 4t-44 4
q-17 0 -32 -1t-27 -3l-8.5 -15t-11.5 -8q-9 0 -27 6t-27 6q-10 0 -18 -5v-22q0 -3 -3.5 -39t-7 -78.5t-7 -78t-3.5 -37.5q0 -32 6 -58.5t6 -54.5q0 -6 -0.5 -12.5t-1.5 -13.5l-7 -46l-2.5 -15.5t-2 -18.5t-0.5 -15.5t2 -6.5q10 0 16.5 -14l13.5 -30t16 -30t24 -14q5 0 10 6
t10.5 14.5t9 17.5z" />
    <glyph glyph-name="FLW195" unicode="&#x413;" horiz-adv-x="484" 
d="M128 158q1 3 4 4h2q2 0 8 -11t13 -11q16 0 27 6t19 13t13.5 13t9.5 6q7 0 12.5 -6t11.5 -6q9 0 10 1l4 10l-8 213q0 -6 1 -1.5t1.5 14.5l1 21t0.5 17v11q0 14 -1 21t19 7q7 0 23 -4.5t24 -4.5l56 -10q13 -2 27 -4.5t28 -4.5h12q10 0 12 6q-2 8 -9 14t-15 10.5t-14 7.5
t-6 5q0 3 25 3q15 0 13.5 3.5t-9.5 8.5t-17.5 12t-9.5 14q0 4 6 10h16q23 0 26 11q-5 4 -17.5 7t-28.5 6l-33 6t-31 6v0q0 5 8.5 8t20 5.5t23.5 3.5t20 2v2q0 1 -12 6.5t-25.5 11t-25 9.5t-9.5 2q0 3 7 6t15.5 5t16 3.5t8.5 1.5q-59 54 -121 54q-20 0 -41 4t-44 4
q-17 0 -32 -1t-27 -3l-8.5 -15t-11.5 -8q-9 0 -27 6t-27 6q-10 0 -18 -5v-22q0 -3 -3.5 -39t-7 -78.5t-7 -78t-3.5 -37.5q0 -32 6 -58.5t6 -54.5q0 -6 -0.5 -12.5t-1.5 -13.5l-7 -46l-2.5 -15.5t-2 -18.5t-0.5 -15.5t2 -6.5q10 0 16.5 -14l13.5 -30t16 -30t24 -14q5 0 10 6
t10.5 14.5t9 17.5z" />
    <glyph glyph-name="FLW196" unicode="&#xc4;" horiz-adv-x="872" 
d="M852 154l-45 -152l-37 5q-7 -27 -15.5 -39.5t-12.5 -20.5l-12 -20t-14 -18l-30 -31q-6 1 -6.5 6.5t-0.5 11.5v11t-4 5q-15 -3 -18.5 -5.5t-10.5 -20.5q-3 -9 -5.5 -4t-4 14.5t-2.5 18t-2 7.5l-34 -50q-13 -19 -15 -14t0 18.5t4.5 28t-0.5 14.5q-9 -2 -16 -11t-12.5 -17.5
t-10 -12.5t-7.5 4l25 125h-196l-67 12q-10 2 -6 -12t10.5 -32.5t11.5 -35t-2 -20.5t-13.5 3.5t-13 16.5t-15.5 15.5t-21 0.5q-3 -11 -2 -21t-3 -10q-1 0 -8 5.5t-15 12.5l-15 13t-8 7q-7 4 -10 -4t-5.5 -18t-5.5 -17t-10 1q-12 12 -12.5 30.5t0.5 23.5q-3 10 -5.5 6
t-6.5 -13l-9 -19.5t-13 -13.5q-10 1 -14.5 9.5t-7.5 18t-6.5 17.5t-13.5 8q-22 1 -31.5 3t-12.5 2l-20 2l64 132l48 15l42 130q53 163 75 278q12 39 22.5 76.5t21.5 67.5t25.5 48t35.5 18q4 0 8 -7l10 -22l10 5.5t12 5.5t13 -9.5l20.5 -17.5t10.5 -9q4 0 8.5 7t8 15t7.5 15
t8 7l6 -21q2 -6 5 -17t8 -21.5t11.5 -18t15.5 -5.5q6 6 4 12.5t-6 13.5t-8.5 12.5t-4.5 9.5q0 9 3.5 17t11.5 5l11 -4q10 -3 10 14v20q0 8 10 8q19 0 19 -30v-21l24.5 -106t19.5 -75l59 -201l67 -200zM472 145l-22 84q-5 20 -14 20h-2l-29 -104h67z" />
    <glyph glyph-name="FLW196" unicode="&#x414;" horiz-adv-x="872" 
d="M852 154l-45 -152l-37 5q-7 -27 -15.5 -39.5t-12.5 -20.5l-12 -20t-14 -18l-30 -31q-6 1 -6.5 6.5t-0.5 11.5v11t-4 5q-15 -3 -18.5 -5.5t-10.5 -20.5q-3 -9 -5.5 -4t-4 14.5t-2.5 18t-2 7.5l-34 -50q-13 -19 -15 -14t0 18.5t4.5 28t-0.5 14.5q-9 -2 -16 -11t-12.5 -17.5
t-10 -12.5t-7.5 4l25 125h-196l-67 12q-10 2 -6 -12t10.5 -32.5t11.5 -35t-2 -20.5t-13.5 3.5t-13 16.5t-15.5 15.5t-21 0.5q-3 -11 -2 -21t-3 -10q-1 0 -8 5.5t-15 12.5l-15 13t-8 7q-7 4 -10 -4t-5.5 -18t-5.5 -17t-10 1q-12 12 -12.5 30.5t0.5 23.5q-3 10 -5.5 6
t-6.5 -13l-9 -19.5t-13 -13.5q-10 1 -14.5 9.5t-7.5 18t-6.5 17.5t-13.5 8q-22 1 -31.5 3t-12.5 2l-20 2l64 132l48 15l42 130q53 163 75 278q12 39 22.5 76.5t21.5 67.5t25.5 48t35.5 18q4 0 8 -7l10 -22l10 5.5t12 5.5t13 -9.5l20.5 -17.5t10.5 -9q4 0 8.5 7t8 15t7.5 15
t8 7l6 -21q2 -6 5 -17t8 -21.5t11.5 -18t15.5 -5.5q6 6 4 12.5t-6 13.5t-8.5 12.5t-4.5 9.5q0 9 3.5 17t11.5 5l11 -4q10 -3 10 14v20q0 8 10 8q19 0 19 -30v-21l24.5 -106t19.5 -75l59 -201l67 -200zM472 145l-22 84q-5 20 -14 20h-2l-29 -104h67z" />
    <glyph glyph-name="FLW197" unicode="&#xc5;" horiz-adv-x="510" 
d="M142 687q2 0 18 1.5t44 3.5l37 3q8 1 14.5 1h10.5q5 0 10 -0.5t10 -1.5h8q6 0 16 2l44 6q17 2 34 -13q15 1 33 4.5t38 8.5h5q8 0 10 -6v-2q0 -7 -11 -17.5t-11 -12.5q0 -4 11 -10h4q2 0 3.5 0.5t2.5 0.5q5 0 2.5 -3.5t-8 -9l-10.5 -11t-5 -9.5v-2q0 -3 14 -9t14 -13
q-3 -4 -17.5 -9t-13.5 -11q1 -5 18 -10q18 -8 13 -12.5t-18 -7t-27 -4.5t-14 -6q0 -3 10 -7t22.5 -8.5t22.5 -9t10 -8.5v-2q0 -4 -10 -5.5t-26 -1.5q-25 0 -55.5 2t-50.5 2h-9t-11 1q-52 4 -52 -21v-6l14 -9l99 8q13 1 33 1.5t48 0.5q0 -5 10 -15t6 -15l-11.5 -5.5t-21 -12
t-11.5 -13.5q0 -5 4 -12q0 -6 -13 -15t-13 -15q1 -2 13.5 -10.5t12.5 -14.5q0 -2 -2 -5.5t-2 -5.5t4 -8t4 -8v-2l-22 -12l-142 -5q-6 0 -6 -15q0 -5 2 -13.5t2 -13.5l10 -8q16 -1 28.5 -1.5t21.5 -0.5h10.5t16.5 1l40 2q11 1 20 1h17q16 0 16 -3t-2 -7.5t-2 -6.5
q0 -7 13 -5.5t15 1.5q6 0 6 -5t-3.5 -12.5t-9.5 -16l-11 -15.5q-9 -12 -10.5 -15.5t-0.5 -5t4 -4t3 -12.5v-4l-37 -19q-1 -1 6 -7.5t7 -9.5q0 -6 -7 -10.5t-17 -7.5t-20 -4.5t-17 -1.5q-5 0 -28 3.5t-55 3.5h-12q-6 0 -17 -1.5t-17 -1.5q-8 0 -23.5 1t-23.5 1q-30 0 -51 -12
h-4q-6 0 -17 3t-13 3q-10 0 -14 -10q-5 1 -18 8.5t-27 18.5t-24.5 21.5t-10.5 17.5q0 2 2 19.5t4 43.5t4 58t2 63q0 56 -5 103t-7 103l-2 54q6 15 6 42q0 12 -2 36t-2 36v12q0 2 1 6.5t1 6.5l6 6h2q8 0 26 -9.5t23 -9.5q10 0 15 11l4 19q7 0 12 -7.5t9.5 -17t9.5 -17.5
t11 -9z" />
    <glyph glyph-name="FLW197" unicode="&#x415;" horiz-adv-x="510" 
d="M142 687q2 0 18 1.5t44 3.5l37 3q8 1 14.5 1h10.5q5 0 10 -0.5t10 -1.5h8q6 0 16 2l44 6q17 2 34 -13q15 1 33 4.5t38 8.5h5q8 0 10 -6v-2q0 -7 -11 -17.5t-11 -12.5q0 -4 11 -10h4q2 0 3.5 0.5t2.5 0.5q5 0 2.5 -3.5t-8 -9l-10.5 -11t-5 -9.5v-2q0 -3 14 -9t14 -13
q-3 -4 -17.5 -9t-13.5 -11q1 -5 18 -10q18 -8 13 -12.5t-18 -7t-27 -4.5t-14 -6q0 -3 10 -7t22.5 -8.5t22.5 -9t10 -8.5v-2q0 -4 -10 -5.5t-26 -1.5q-25 0 -55.5 2t-50.5 2h-9t-11 1q-52 4 -52 -21v-6l14 -9l99 8q13 1 33 1.5t48 0.5q0 -5 10 -15t6 -15l-11.5 -5.5t-21 -12
t-11.5 -13.5q0 -5 4 -12q0 -6 -13 -15t-13 -15q1 -2 13.5 -10.5t12.5 -14.5q0 -2 -2 -5.5t-2 -5.5t4 -8t4 -8v-2l-22 -12l-142 -5q-6 0 -6 -15q0 -5 2 -13.5t2 -13.5l10 -8q16 -1 28.5 -1.5t21.5 -0.5h10.5t16.5 1l40 2q11 1 20 1h17q16 0 16 -3t-2 -7.5t-2 -6.5
q0 -7 13 -5.5t15 1.5q6 0 6 -5t-3.5 -12.5t-9.5 -16l-11 -15.5q-9 -12 -10.5 -15.5t-0.5 -5t4 -4t3 -12.5v-4l-37 -19q-1 -1 6 -7.5t7 -9.5q0 -6 -7 -10.5t-17 -7.5t-20 -4.5t-17 -1.5q-5 0 -28 3.5t-55 3.5h-12q-6 0 -17 -1.5t-17 -1.5q-8 0 -23.5 1t-23.5 1q-30 0 -51 -12
h-4q-6 0 -17 3t-13 3q-10 0 -14 -10q-5 1 -18 8.5t-27 18.5t-24.5 21.5t-10.5 17.5q0 2 2 19.5t4 43.5t4 58t2 63q0 56 -5 103t-7 103l-2 54q6 15 6 42q0 12 -2 36t-2 36v12q0 2 1 6.5t1 6.5l6 6h2q8 0 26 -9.5t23 -9.5q10 0 15 11l4 19q7 0 12 -7.5t9.5 -17t9.5 -17.5
t11 -9z" />
    <glyph glyph-name="FLW198" unicode="&#xc6;" horiz-adv-x="871" 
d="M700 740q1 -5 1.5 -8.5t0.5 -4.5q0 -7 -3.5 -20t-3.5 -20q0 -16 12 -16q6 0 13.5 2t14.5 2q11 0 26.5 -5.5t25.5 -5.5q19 0 16 -16q-1 -4 -1.5 -7t-1.5 -7q-1 -7 5 -10l8 6q7 6 15 6q7 0 12 -8l2 -2q2 -2 -10 -21l-29.5 -46l-37 -57t-32.5 -52v-26l100 -144
q18 -26 18 -34t-7 -14l-19 -30q-5 -8 -11 -13t-17 -6q0 -5 -13 -23t-23 -35h-4q-5 0 -17 -6.5t-15 -6.5t-8 5.5t-10 5.5q-4 0 -15.5 -9.5t-16.5 -9.5h-2l-29 45q-7 10 -11.5 17.5t-8.5 11.5q-20 27 -36 42h-2q-8 0 -11.5 -10.5t-5 -25t-1.5 -30v-24.5q0 -19 -14 -19
q-16 0 -26 10q-5 -5 -11.5 -10t-9.5 -5q-6 0 -15 6t-19 6q-13 0 -26 -4l-22 -6q-25 2 -39 3t-16 2q-43 0 -55.5 25.5t-12.5 70.5v30q-6 4 -18.5 -8t-28 -33l-32.5 -46l-33 -47q-10 1 -15.5 11t-5.5 20q0 7 3.5 20t3.5 20q0 16 -12 16q-6 0 -13.5 -2t-14.5 -2
q-11 0 -26.5 5.5t-25.5 5.5q-19 0 -16 16q1 4 1.5 7t1.5 7q1 7 -5 10l-8 -6q-8 -6 -15 -6t-12 8l-2 2q-1 1 10.5 20.5t29 46.5l36.5 57l33 52v26l-100 144q-18 25 -18 34q0 8 7 14l19 30q10 17 28 19q0 5 13 23.5t23 34.5h4q5 0 17 6.5t15 6.5t8 -5.5t10 -5.5q4 0 15.5 9.5
t16.5 9.5h2l29 -45q7 -10 11.5 -17t8.5 -12q19 -27 36 -42h2q7 0 11 10.5t5.5 25t1.5 30v24.5q0 19 14 19q16 0 26 -10l11.5 9.5t9.5 5.5q6 0 15 -6t19 -6q13 0 26 4l22 6q25 -2 39 -3t16 -2q43 0 55.5 -25.5t12.5 -70.5v-30q6 -4 18.5 8t28 33l32.5 46l33 47q13 -1 19 -18z
" />
    <glyph glyph-name="FLW198" unicode="&#x416;" horiz-adv-x="871" 
d="M700 740q1 -5 1.5 -8.5t0.5 -4.5q0 -7 -3.5 -20t-3.5 -20q0 -16 12 -16q6 0 13.5 2t14.5 2q11 0 26.5 -5.5t25.5 -5.5q19 0 16 -16q-1 -4 -1.5 -7t-1.5 -7q-1 -7 5 -10l8 6q7 6 15 6q7 0 12 -8l2 -2q2 -2 -10 -21l-29.5 -46l-37 -57t-32.5 -52v-26l100 -144
q18 -26 18 -34t-7 -14l-19 -30q-5 -8 -11 -13t-17 -6q0 -5 -13 -23t-23 -35h-4q-5 0 -17 -6.5t-15 -6.5t-8 5.5t-10 5.5q-4 0 -15.5 -9.5t-16.5 -9.5h-2l-29 45q-7 10 -11.5 17.5t-8.5 11.5q-20 27 -36 42h-2q-8 0 -11.5 -10.5t-5 -25t-1.5 -30v-24.5q0 -19 -14 -19
q-16 0 -26 10q-5 -5 -11.5 -10t-9.5 -5q-6 0 -15 6t-19 6q-13 0 -26 -4l-22 -6q-25 2 -39 3t-16 2q-43 0 -55.5 25.5t-12.5 70.5v30q-6 4 -18.5 -8t-28 -33l-32.5 -46l-33 -47q-10 1 -15.5 11t-5.5 20q0 7 3.5 20t3.5 20q0 16 -12 16q-6 0 -13.5 -2t-14.5 -2
q-11 0 -26.5 5.5t-25.5 5.5q-19 0 -16 16q1 4 1.5 7t1.5 7q1 7 -5 10l-8 -6q-8 -6 -15 -6t-12 8l-2 2q-1 1 10.5 20.5t29 46.5l36.5 57l33 52v26l-100 144q-18 25 -18 34q0 8 7 14l19 30q10 17 28 19q0 5 13 23.5t23 34.5h4q5 0 17 6.5t15 6.5t8 -5.5t10 -5.5q4 0 15.5 9.5
t16.5 9.5h2l29 -45q7 -10 11.5 -17t8.5 -12q19 -27 36 -42h2q7 0 11 10.5t5.5 25t1.5 30v24.5q0 19 14 19q16 0 26 -10l11.5 9.5t9.5 5.5q6 0 15 -6t19 -6q13 0 26 4l22 6q25 -2 39 -3t16 -2q43 0 55.5 -25.5t12.5 -70.5v-30q6 -4 18.5 8t28 33l32.5 46l33 47q13 -1 19 -18z
" />
    <glyph glyph-name="FLW199" unicode="&#xc7;" 
d="M306 519l-42 35q-23 8 -35 8t-28.5 -5t-37 -10.5t-45 -10.5t-51.5 -5q-23 0 -37 4.5t-8 14.5l20 34q-17 4 -14.5 9t12 9.5t20 8t9.5 3.5l-27 14q-3 2 -12.5 10.5t-9.5 13.5q0 2 9.5 9.5t14.5 10.5l2 30q8 0 37 8q39 -21 59 -21q2 -2 6 3t4 8q0 13 8 12.5t19 -6t20.5 -12
t12.5 -6.5q4 0 6.5 5.5t5 12.5t5 12.5t7.5 5.5t12 -7.5l12 -12.5l157 -4q3 0 15 -11l26.5 -25.5l28 -29l19.5 -20.5l17 -19q15 -18 28 -35.5t13 -31.5t-12 -37t-24 -37l-60 -71v-2q0 -12 38 -59q34 -40 34 -96q-26 -89 -83 -124q-23 -14 -46 -14q-27 0 -50 4l-7 1h-17
q-3 0 -6.5 -2t-4.5 -2q-14 0 -31.5 3.5t-35.5 8t-34 8t-27 3.5l-5.5 -3.5t-12.5 -7t-14.5 -6.5t-11.5 -3h-2l-10 16q-5 8 -12 8h-3l-15 -24q-4 -6 -14 -12t-23 -2l-33 11q-4 9 -0.5 15t9.5 11.5l12 11t6 11.5q0 12 -27 28q-6 4 1 9t17 11t17.5 11t2.5 9l-38 28q-9 7 9.5 9
t49.5 2q33 0 72 -1t68 -1q14 0 28.5 -3.5t23.5 -3.5q12 0 15.5 8t3.5 21t-6.5 28.5t-21.5 26.5l-20 14q-11 8 -27 8t-28.5 -5t-11.5 -5h-94q-10 3 -13.5 15t-3.5 27q0 14 2 28t4 23q4 19 32 19t63 1.5t69 15t50 58.5z" />
    <glyph glyph-name="FLW199" unicode="&#x417;" 
d="M306 519l-42 35q-23 8 -35 8t-28.5 -5t-37 -10.5t-45 -10.5t-51.5 -5q-23 0 -37 4.5t-8 14.5l20 34q-17 4 -14.5 9t12 9.5t20 8t9.5 3.5l-27 14q-3 2 -12.5 10.5t-9.5 13.5q0 2 9.5 9.5t14.5 10.5l2 30q8 0 37 8q39 -21 59 -21q2 -2 6 3t4 8q0 13 8 12.5t19 -6t20.5 -12
t12.5 -6.5q4 0 6.5 5.5t5 12.5t5 12.5t7.5 5.5t12 -7.5l12 -12.5l157 -4q3 0 15 -11l26.5 -25.5l28 -29l19.5 -20.5l17 -19q15 -18 28 -35.5t13 -31.5t-12 -37t-24 -37l-60 -71v-2q0 -12 38 -59q34 -40 34 -96q-26 -89 -83 -124q-23 -14 -46 -14q-27 0 -50 4l-7 1h-17
q-3 0 -6.5 -2t-4.5 -2q-14 0 -31.5 3.5t-35.5 8t-34 8t-27 3.5l-5.5 -3.5t-12.5 -7t-14.5 -6.5t-11.5 -3h-2l-10 16q-5 8 -12 8h-3l-15 -24q-4 -6 -14 -12t-23 -2l-33 11q-4 9 -0.5 15t9.5 11.5l12 11t6 11.5q0 12 -27 28q-6 4 1 9t17 11t17.5 11t2.5 9l-38 28q-9 7 9.5 9
t49.5 2q33 0 72 -1t68 -1q14 0 28.5 -3.5t23.5 -3.5q12 0 15.5 8t3.5 21t-6.5 28.5t-21.5 26.5l-20 14q-11 8 -27 8t-28.5 -5t-11.5 -5h-94q-10 3 -13.5 15t-3.5 27q0 14 2 28t4 23q4 19 32 19t63 1.5t69 15t50 58.5z" />
    <glyph glyph-name="FLW200" unicode="&#xc8;" horiz-adv-x="739" 
d="M139 120h19q14 0 27 -12.5t25 -12.5q18 0 29.5 19t25.5 40l185 182q15 -3 24.5 -18.5t14.5 -37t7 -46t2 -47.5q0 -24 -5.5 -12t-12.5 33q-3 10 -5.5 10t-4 -5.5t-2 -13t-0.5 -11.5l1 -10q2 -28 7 -40q2 -7 5 -7t6 2.5t6 6t4 3.5q2 0 6.5 -12.5t15.5 -12.5q4 0 9 3t8 3
q4 0 15 -14t19 -14q-3 0 19.5 1t57.5 1q19 0 29 -8t23 -8q12 0 16 15t4 37q0 28 -3.5 64t-3.5 64v39q0 7 -0.5 19t-1.5 29l-4 71q-6 110 -6 99q0 56 6 85q3 5 10 86q-5 15 -15.5 10t-20.5 -5q-1 0 -17 11.5t-39 11.5q-7 0 -20 -7t-16 -7q-6 0 -12 8l-36 -32q-16 0 -16 10v6
q0 15 -10 15q-8 0 -18.5 -6t-22.5 -15l-23.5 -18.5l-19.5 -16.5l-18 -16l-53 -55q-29 -29 -58 -48q-2 -2 -4 -2q-15 0 -15 34v14q0 63 -16 82h-3q-4 0 -13 -4t-12 -4q-1 1 -6.5 10.5t-14 22.5t-15.5 18l-22 16q-11 8 -16 19q-2 0 -9.5 -6t-19 -13t-23.5 -13t-23 -6
q-6 0 -16.5 1t-16.5 1q-2 0 -6 -0.5t-10 -1.5l-10 -30q0 2 3 -100l2 -66q1 -16 1 -27v-19v-12q0 -24 -1 -44t-3 -36q-6 -24 -6 -62q0 -12 1 -37t1 -37v-18q0 -3 -1 -9t-1 -9q0 -11 -3 -32.5t-3 -32.5q0 -27 10 -27q4 0 11 5t8 5q7 -2 16 -4t22 -6q21 -8 27 -28q2 0 5 6
l6.5 13.5t7 14t6.5 8.5z" />
    <glyph glyph-name="FLW200" unicode="&#x418;" horiz-adv-x="739" 
d="M139 120h19q14 0 27 -12.5t25 -12.5q18 0 29.5 19t25.5 40l185 182q15 -3 24.5 -18.5t14.5 -37t7 -46t2 -47.5q0 -24 -5.5 -12t-12.5 33q-3 10 -5.5 10t-4 -5.5t-2 -13t-0.5 -11.5l1 -10q2 -28 7 -40q2 -7 5 -7t6 2.5t6 6t4 3.5q2 0 6.5 -12.5t15.5 -12.5q4 0 9 3t8 3
q4 0 15 -14t19 -14q-3 0 19.5 1t57.5 1q19 0 29 -8t23 -8q12 0 16 15t4 37q0 28 -3.5 64t-3.5 64v39q0 7 -0.5 19t-1.5 29l-4 71q-6 110 -6 99q0 56 6 85q3 5 10 86q-5 15 -15.5 10t-20.5 -5q-1 0 -17 11.5t-39 11.5q-7 0 -20 -7t-16 -7q-6 0 -12 8l-36 -32q-16 0 -16 10v6
q0 15 -10 15q-8 0 -18.5 -6t-22.5 -15l-23.5 -18.5l-19.5 -16.5l-18 -16l-53 -55q-29 -29 -58 -48q-2 -2 -4 -2q-15 0 -15 34v14q0 63 -16 82h-3q-4 0 -13 -4t-12 -4q-1 1 -6.5 10.5t-14 22.5t-15.5 18l-22 16q-11 8 -16 19q-2 0 -9.5 -6t-19 -13t-23.5 -13t-23 -6
q-6 0 -16.5 1t-16.5 1q-2 0 -6 -0.5t-10 -1.5l-10 -30q0 2 3 -100l2 -66q1 -16 1 -27v-19v-12q0 -24 -1 -44t-3 -36q-6 -24 -6 -62q0 -12 1 -37t1 -37v-18q0 -3 -1 -9t-1 -9q0 -11 -3 -32.5t-3 -32.5q0 -27 10 -27q4 0 11 5t8 5q7 -2 16 -4t22 -6q21 -8 27 -28q2 0 5 6
l6.5 13.5t7 14t6.5 8.5z" />
    <glyph glyph-name="FLW201" unicode="&#xc9;" horiz-adv-x="739" 
d="M139 120h19q14 0 27 -12.5t25 -12.5q18 0 29.5 19t25.5 40l185 182q15 -3 24.5 -18.5t14.5 -37t7 -46t2 -47.5q0 -24 -5.5 -12t-12.5 33q-3 10 -5.5 10t-4 -5.5t-2 -13t-0.5 -11.5l1 -10q2 -28 7 -40q2 -7 5 -7t6 2.5t6 6t4 3.5q2 0 6.5 -12.5t15.5 -12.5q4 0 9 3t8 3
q4 0 15 -14t19 -14q-3 0 19.5 1t57.5 1q19 0 29 -8t23 -8q12 0 16 15t4 37q0 28 -3.5 64t-3.5 64v39q0 7 -0.5 19t-1.5 29l-4 71q-6 110 -6 99q0 56 6 85q3 5 10 86q-5 15 -15.5 10t-20.5 -5q-1 0 -17 11.5t-39 11.5q-7 0 -20 -7t-16 -7q-6 0 -12 8l-36 -32q-16 0 -16 10v6
q0 15 -10 15q-8 0 -18.5 -6t-22.5 -15l-23.5 -18.5l-19.5 -16.5l-18 -16l-53 -55q-29 -29 -58 -48q-2 -2 -4 -2q-15 0 -15 34v14q0 63 -16 82h-3q-4 0 -13 -4t-12 -4q-1 1 -6.5 10.5t-14 22.5t-15.5 18l-22 16q-11 8 -16 19q-2 0 -9.5 -6t-19 -13t-23.5 -13t-23 -6
q-6 0 -16.5 1t-16.5 1q-2 0 -6 -0.5t-10 -1.5l-10 -30q0 2 3 -100l2 -66q1 -16 1 -27v-19v-12q0 -24 -1 -44t-3 -36q-6 -24 -6 -62q0 -12 1 -37t1 -37v-18q0 -3 -1 -9t-1 -9q0 -11 -3 -32.5t-3 -32.5q0 -27 10 -27q4 0 11 5t8 5q7 -2 16 -4t22 -6q21 -8 27 -28q2 0 5 6
l6.5 13.5t7 14t6.5 8.5zM404 890l80 -118q2 -4 2 -7v-7q0 -12 -6 -12q-2 0 -9.5 3t-13.5 3q-11 0 -31 -7l-4 -5q-27 -30 -41 -30q-3 0 -10 4t-15.5 8l-17.5 8t-16 4t-12 -8q-8 0 -22 10.5t-27.5 24.5t-23 28.5t-9.5 22.5q18 11 56 62q2 2 44 14l31 8q13 4 20 4q14 0 25 -10z
" />
    <glyph glyph-name="FLW201" unicode="&#x419;" horiz-adv-x="739" 
d="M139 120h19q14 0 27 -12.5t25 -12.5q18 0 29.5 19t25.5 40l185 182q15 -3 24.5 -18.5t14.5 -37t7 -46t2 -47.5q0 -24 -5.5 -12t-12.5 33q-3 10 -5.5 10t-4 -5.5t-2 -13t-0.5 -11.5l1 -10q2 -28 7 -40q2 -7 5 -7t6 2.5t6 6t4 3.5q2 0 6.5 -12.5t15.5 -12.5q4 0 9 3t8 3
q4 0 15 -14t19 -14q-3 0 19.5 1t57.5 1q19 0 29 -8t23 -8q12 0 16 15t4 37q0 28 -3.5 64t-3.5 64v39q0 7 -0.5 19t-1.5 29l-4 71q-6 110 -6 99q0 56 6 85q3 5 10 86q-5 15 -15.5 10t-20.5 -5q-1 0 -17 11.5t-39 11.5q-7 0 -20 -7t-16 -7q-6 0 -12 8l-36 -32q-16 0 -16 10v6
q0 15 -10 15q-8 0 -18.5 -6t-22.5 -15l-23.5 -18.5l-19.5 -16.5l-18 -16l-53 -55q-29 -29 -58 -48q-2 -2 -4 -2q-15 0 -15 34v14q0 63 -16 82h-3q-4 0 -13 -4t-12 -4q-1 1 -6.5 10.5t-14 22.5t-15.5 18l-22 16q-11 8 -16 19q-2 0 -9.5 -6t-19 -13t-23.5 -13t-23 -6
q-6 0 -16.5 1t-16.5 1q-2 0 -6 -0.5t-10 -1.5l-10 -30q0 2 3 -100l2 -66q1 -16 1 -27v-19v-12q0 -24 -1 -44t-3 -36q-6 -24 -6 -62q0 -12 1 -37t1 -37v-18q0 -3 -1 -9t-1 -9q0 -11 -3 -32.5t-3 -32.5q0 -27 10 -27q4 0 11 5t8 5q7 -2 16 -4t22 -6q21 -8 27 -28q2 0 5 6
l6.5 13.5t7 14t6.5 8.5zM404 890l80 -118q2 -4 2 -7v-7q0 -12 -6 -12q-2 0 -9.5 3t-13.5 3q-11 0 -31 -7l-4 -5q-27 -30 -41 -30q-3 0 -10 4t-15.5 8l-17.5 8t-16 4t-12 -8q-8 0 -22 10.5t-27.5 24.5t-23 28.5t-9.5 22.5q18 11 56 62q2 2 44 14l31 8q13 4 20 4q14 0 25 -10z
" />
    <glyph glyph-name="FLW202" unicode="&#xca;" horiz-adv-x="594" 
d="M423 738q1 -5 1.5 -8.5t0.5 -4.5q0 -7 -3.5 -20t-3.5 -20q0 -16 12 -16q6 0 13.5 2t14.5 2q11 0 26.5 -5.5t25.5 -5.5q19 0 16 -16q-1 -4 -1.5 -7t-1.5 -7q-1 -7 5 -10l8 6q8 6 15 6t12 -8l2 -2q1 -2 -10.5 -21l-29 -46l-36.5 -57l-33 -52v-26l100 -144q18 -26 18 -34
t-7 -14l-19 -30q-10 -16 -28 -19q0 -5 -13 -23t-23 -35h-4q-5 0 -17 -6.5t-15 -6.5t-8 5.5t-10 5.5q-4 0 -15.5 -9.5t-16.5 -9.5h-2l-29 45q-7 10 -11.5 17.5t-8.5 11.5q-19 27 -36 42h-2q-10 0 -12.5 -14.5t-5 -31.5t-8 -31.5t-22.5 -14.5q-3 0 -14.5 -11t-16.5 -11
q-6 0 -15 6t-19 6q-13 0 -26 -4l-22 -6q-25 2 -39 3t-16 2q-32 6 -48 25q0 33 0.5 68t1.5 72v36v79q0 19 -1.5 39t-3.5 43v3q0 3 -3.5 10l-7.5 14.5l-7.5 14t-3.5 9.5q0 6 12 15t12 29q2 -2 0.5 5l-4 19.5t-4.5 28.5t-2 31q0 13 -4 39.5t-4 39.5q0 19 14 19q15 0 23 -7.5
t11.5 -18.5t4.5 -24t3 -24q1 2 4 11l6.5 20t8 19.5t7.5 8.5q4 0 13 -2.5t13 -2.5q7 0 12 8h2q3 0 8.5 -4.5t11 -10.5l10 -10.5t5.5 -4.5t5.5 6t11.5 13t15 13t17 6q38 0 49 -26t11 -68v-30q9 -6 11 -6v0l42 58.5l59 81.5q13 -1 19 -18z" />
    <glyph glyph-name="FLW202" unicode="&#x41a;" horiz-adv-x="594" 
d="M423 738q1 -5 1.5 -8.5t0.5 -4.5q0 -7 -3.5 -20t-3.5 -20q0 -16 12 -16q6 0 13.5 2t14.5 2q11 0 26.5 -5.5t25.5 -5.5q19 0 16 -16q-1 -4 -1.5 -7t-1.5 -7q-1 -7 5 -10l8 6q8 6 15 6t12 -8l2 -2q1 -2 -10.5 -21l-29 -46l-36.5 -57l-33 -52v-26l100 -144q18 -26 18 -34
t-7 -14l-19 -30q-10 -16 -28 -19q0 -5 -13 -23t-23 -35h-4q-5 0 -17 -6.5t-15 -6.5t-8 5.5t-10 5.5q-4 0 -15.5 -9.5t-16.5 -9.5h-2l-29 45q-7 10 -11.5 17.5t-8.5 11.5q-19 27 -36 42h-2q-10 0 -12.5 -14.5t-5 -31.5t-8 -31.5t-22.5 -14.5q-3 0 -14.5 -11t-16.5 -11
q-6 0 -15 6t-19 6q-13 0 -26 -4l-22 -6q-25 2 -39 3t-16 2q-32 6 -48 25q0 33 0.5 68t1.5 72v36v79q0 19 -1.5 39t-3.5 43v3q0 3 -3.5 10l-7.5 14.5l-7.5 14t-3.5 9.5q0 6 12 15t12 29q2 -2 0.5 5l-4 19.5t-4.5 28.5t-2 31q0 13 -4 39.5t-4 39.5q0 19 14 19q15 0 23 -7.5
t11.5 -18.5t4.5 -24t3 -24q1 2 4 11l6.5 20t8 19.5t7.5 8.5q4 0 13 -2.5t13 -2.5q7 0 12 8h2q3 0 8.5 -4.5t11 -10.5l10 -10.5t5.5 -4.5t5.5 6t11.5 13t15 13t17 6q38 0 49 -26t11 -68v-30q9 -6 11 -6v0l42 58.5l59 81.5q13 -1 19 -18z" />
    <glyph glyph-name="FLW203" unicode="&#xcb;" horiz-adv-x="748" 
d="M306 192l64 180h2q10 0 14 -15l91 -267q1 -5 7.5 -2t14 9.5t13 14.5t5.5 14v8q0 5 7 5q4 0 10 -7t12 -16t13 -16t13 -7h4q6 0 6 10q0 5 -3 15t5 10q9 0 24 -14t26 -16v5q0 9 -7 28t-7 23q0 16 12 8t26.5 -22.5l26.5 -26t12 -1.5q0 4 -3 12t-3 10q0 5 6 7.5t12.5 4.5
t12.5 6t6 13q0 20 -15.5 45t-26.5 51l-81 185l-59 155q-9 23 -19.5 58l-24.5 81v16q0 23 -19 23q-10 0 -10 -6v-15q0 -12 -10 -11l-11 3q-8 2 -11.5 -4t-3.5 -13q0 -6 2 -17t2 -17q0 -11 -3 -11q-2 0 -5.5 7t-7.5 16t-7.5 18.5t-5.5 14.5l-6 16q-4 0 -8 -5.5t-7.5 -11.5
t-8 -11.5t-8.5 -5.5q-1 1 -10.5 7l-20.5 13.5t-13 7.5q-4 0 -12 -4.5t-10 -4.5l-10 17q-4 6 -8 6q-21 0 -35.5 -14t-25.5 -37t-21.5 -52t-22.5 -59q-22 -89 -75 -214l-88 -210l-2 -6q0 -20 5 -20q3 0 8.5 7l12 16t14 16t14.5 7q3 0 12.5 -8l20 -17l19 -16t8.5 -6
q-1 -5 -1 -16q0 -8 2 -9.5t5.5 0t7.5 4.5t8 3t15 -7.5t14 -7.5q9 0 13 18q-3 -3 5.5 3.5l20 16l21 18t8.5 8.5q4 0 4 -11q0 -7 -3.5 -19t-8 -24.5l-8 -23t-3.5 -14.5q0 -11 10 -0.5t23 29.5t24.5 39.5t14.5 29.5z" />
    <glyph glyph-name="FLW203" unicode="&#x41b;" horiz-adv-x="748" 
d="M306 192l64 180h2q10 0 14 -15l91 -267q1 -5 7.5 -2t14 9.5t13 14.5t5.5 14v8q0 5 7 5q4 0 10 -7t12 -16t13 -16t13 -7h4q6 0 6 10q0 5 -3 15t5 10q9 0 24 -14t26 -16v5q0 9 -7 28t-7 23q0 16 12 8t26.5 -22.5l26.5 -26t12 -1.5q0 4 -3 12t-3 10q0 5 6 7.5t12.5 4.5
t12.5 6t6 13q0 20 -15.5 45t-26.5 51l-81 185l-59 155q-9 23 -19.5 58l-24.5 81v16q0 23 -19 23q-10 0 -10 -6v-15q0 -12 -10 -11l-11 3q-8 2 -11.5 -4t-3.5 -13q0 -6 2 -17t2 -17q0 -11 -3 -11q-2 0 -5.5 7t-7.5 16t-7.5 18.5t-5.5 14.5l-6 16q-4 0 -8 -5.5t-7.5 -11.5
t-8 -11.5t-8.5 -5.5q-1 1 -10.5 7l-20.5 13.5t-13 7.5q-4 0 -12 -4.5t-10 -4.5l-10 17q-4 6 -8 6q-21 0 -35.5 -14t-25.5 -37t-21.5 -52t-22.5 -59q-22 -89 -75 -214l-88 -210l-2 -6q0 -20 5 -20q3 0 8.5 7l12 16t14 16t14.5 7q3 0 12.5 -8l20 -17l19 -16t8.5 -6
q-1 -5 -1 -16q0 -8 2 -9.5t5.5 0t7.5 4.5t8 3t15 -7.5t14 -7.5q9 0 13 18q-3 -3 5.5 3.5l20 16l21 18t8.5 8.5q4 0 4 -11q0 -7 -3.5 -19t-8 -24.5l-8 -23t-3.5 -14.5q0 -11 10 -0.5t23 29.5t24.5 39.5t14.5 29.5z" />
    <glyph glyph-name="FLW204" unicode="&#xcc;" horiz-adv-x="875" 
d="M186 742l12 2l11 -23l7 -5l15.5 -11t16.5 -11t10 -5l21.5 7t26.5 8h6l109 -220q3 -7 11 -7t15.5 9.5t14 22t12.5 26.5l10 23l23 48q2 2 9 2q3 0 7.5 -12.5t6.5 -19.5q12 2 16.5 18.5t7.5 36.5t6.5 39.5t13.5 27.5v24q0 12 8 18h2q4 0 11 -5l15.5 -11t17 -11t16.5 -5
q5 0 22 14q2 0 8.5 -3t15 -6.5t18.5 -7t17 -3.5q11 0 18.5 -14t14 -34.5t11.5 -44.5l9 -44l30 -134l9 -24q13 -35 21.5 -62.5t13.5 -47.5q3 -11 3 -17q0 -8 -5 -8q-9 0 -19 15t-20.5 37.5t-21 49l-19.5 49.5q-7 -1 -7 -8q0 -3 1.5 -11.5t3.5 -18t4 -18t2 -11.5l45 -114
q4 -10 20 -46t16 -92q0 -2 -2 -2q-1 0 -10.5 4t-18.5 4h-23q-1 -2 -8 -4t-15.5 -5.5t-15 -8t-6.5 -10.5v-3q0 -2 -4 -1.5t-9 2l-8.5 2.5t-2.5 0l-28 6l-75 78l-40 82l-4 1q-3 1 -7 1l-19 -32q-32 -55 -54 -80q-16 -19 -28 -26v-4q0 -5 6.5 -15.5t6.5 -15.5q0 -12 -26 9
t-59 53l-64 64.5l-42 44.5q-14 0 -22 -26.5t-18 -51.5l-21 -54q-18 -19 -25 -19q-5 0 -6.5 6.5l-3 13.5t-5 13.5t-12.5 6.5h-4q-6 0 -14 -10.5l-17 -22.5t-18.5 -22.5t-18.5 -10.5q-5 0 -8.5 8.5t-3.5 30.5v2q0 7 -16 7l-7 -4.5l-15 -9.5t-16 -9.5t-11 -4.5q-17 0 -17 30
q0 25 10 62.5t21 64.5l9 22t2 7t-1 6t-1 15q0 9 23 93l2 7l17.5 80.5t26.5 112.5q0 1 6 24t14 51t18 51t19 25z" />
    <glyph glyph-name="FLW204" unicode="&#x41c;" horiz-adv-x="875" 
d="M186 742l12 2l11 -23l7 -5l15.5 -11t16.5 -11t10 -5l21.5 7t26.5 8h6l109 -220q3 -7 11 -7t15.5 9.5t14 22t12.5 26.5l10 23l23 48q2 2 9 2q3 0 7.5 -12.5t6.5 -19.5q12 2 16.5 18.5t7.5 36.5t6.5 39.5t13.5 27.5v24q0 12 8 18h2q4 0 11 -5l15.5 -11t17 -11t16.5 -5
q5 0 22 14q2 0 8.5 -3t15 -6.5t18.5 -7t17 -3.5q11 0 18.5 -14t14 -34.5t11.5 -44.5l9 -44l30 -134l9 -24q13 -35 21.5 -62.5t13.5 -47.5q3 -11 3 -17q0 -8 -5 -8q-9 0 -19 15t-20.5 37.5t-21 49l-19.5 49.5q-7 -1 -7 -8q0 -3 1.5 -11.5t3.5 -18t4 -18t2 -11.5l45 -114
q4 -10 20 -46t16 -92q0 -2 -2 -2q-1 0 -10.5 4t-18.5 4h-23q-1 -2 -8 -4t-15.5 -5.5t-15 -8t-6.5 -10.5v-3q0 -2 -4 -1.5t-9 2l-8.5 2.5t-2.5 0l-28 6l-75 78l-40 82l-4 1q-3 1 -7 1l-19 -32q-32 -55 -54 -80q-16 -19 -28 -26v-4q0 -5 6.5 -15.5t6.5 -15.5q0 -12 -26 9
t-59 53l-64 64.5l-42 44.5q-14 0 -22 -26.5t-18 -51.5l-21 -54q-18 -19 -25 -19q-5 0 -6.5 6.5l-3 13.5t-5 13.5t-12.5 6.5h-4q-6 0 -14 -10.5l-17 -22.5t-18.5 -22.5t-18.5 -10.5q-5 0 -8.5 8.5t-3.5 30.5v2q0 7 -16 7l-7 -4.5l-15 -9.5t-16 -9.5t-11 -4.5q-17 0 -17 30
q0 25 10 62.5t21 64.5l9 22t2 7t-1 6t-1 15q0 9 23 93l2 7l17.5 80.5t26.5 112.5q0 1 6 24t14 51t18 51t19 25z" />
    <glyph glyph-name="FLW205" unicode="&#xcd;" horiz-adv-x="614" 
d="M374 702l12 -28h2q4 0 8.5 7t6.5 7q7 0 13.5 -15t11.5 -15q-1 0 14 12.5t37 12.5q3 0 7 3.5t8 3.5q15 -8 23 -5t12 22q4 18 15.5 12t11.5 -21v-17l-2 -19q-2 -14 7 -23l21 15l6 -7q2 -3 2.5 -26t1.5 -51l2 -54v-32q0 -15 -1 -44t-1 -43v-29q0 -14 -12 -29.5t-12 -26.5
v-14q0 -7 3 -28l5 -46q4 -34 6 -56t2 -32q0 -16 -11 -39.5t-11 -42.5v-18q0 -2 -5 -4l-5 -2q-3 -1 -8 3t-10 9.5t-9 10.5l-4 5q-6 0 -12 -5t-7 -5q-4 0 -7.5 7.5t-7 16t-8 15.5t-10.5 6q-8 -2 -21.5 -5t-31.5 -5l-4.5 15t-9.5 8q-17 -29 -28 -36q-10 0 -13 7t-2 14.5t3 12
t2 0.5q0 9 -6 38l-5 19q-3 11 -1 23t2 22q0 24 -8 51q-9 9 -22 9l-24 -3q-12 -1 -15.5 -12.5t-3.5 -25.5q0 -7 0.5 -13t0.5 -10q0 -6 -1 -19.5t-6 -34.5q-3 -16 -18.5 -31t-20.5 -25h-2q-2 0 -9 5t-11 5q-2 0 -16 -14q-7 -3 -10.5 -0.5t-5.5 6.5t-5 8t-9 4q-3 0 -8.5 -5
t-9.5 -5q-1 0 -18.5 13.5t-26.5 24.5h-11l-27 -30q-23 -24 -31 -24q-6 0 -14 4l-2 5l9 80q1 10 2 23.5t3 29.5q4 43 5 76t1 58l-2 193q0 8 -1 25.5t-1 26.5l-4 37q8 4 10 11t2 13q0 12 2.5 13t6.5 -2.5t9 -8.5t10 -5q9 0 12.5 13t9.5 32h4q8 0 12.5 -7t7 -16t5 -16t5.5 -7
q6 0 15 14t17 22l8 14q6 10 10.5 10t7.5 -6.5t4.5 -17t1.5 -19.5q0 -17 10 -16t21 1q20 0 24 31q2 14 5 16t6 -3t5 -15.5t3 -20.5l1 -12v-15q0 -12 -1 -34.5t-1 -34.5q0 -38 8 -60q5 -5 13 -5q22 0 28.5 10t6.5 33v16q0 3 -0.5 8t-0.5 8v19q0 -1 0 4t1 15l2 40l2 2h1
q3 0 8.5 -4t7.5 -4q4 0 7 6v18q0 3 -0.5 8t-0.5 7q0 27 9 27q10 0 17 -18z" />
    <glyph glyph-name="FLW205" unicode="&#x41d;" horiz-adv-x="614" 
d="M374 702l12 -28h2q4 0 8.5 7t6.5 7q7 0 13.5 -15t11.5 -15q-1 0 14 12.5t37 12.5q3 0 7 3.5t8 3.5q15 -8 23 -5t12 22q4 18 15.5 12t11.5 -21v-17l-2 -19q-2 -14 7 -23l21 15l6 -7q2 -3 2.5 -26t1.5 -51l2 -54v-32q0 -15 -1 -44t-1 -43v-29q0 -14 -12 -29.5t-12 -26.5
v-14q0 -7 3 -28l5 -46q4 -34 6 -56t2 -32q0 -16 -11 -39.5t-11 -42.5v-18q0 -2 -5 -4l-5 -2q-3 -1 -8 3t-10 9.5t-9 10.5l-4 5q-6 0 -12 -5t-7 -5q-4 0 -7.5 7.5t-7 16t-8 15.5t-10.5 6q-8 -2 -21.5 -5t-31.5 -5l-4.5 15t-9.5 8q-17 -29 -28 -36q-10 0 -13 7t-2 14.5t3 12
t2 0.5q0 9 -6 38l-5 19q-3 11 -1 23t2 22q0 24 -8 51q-9 9 -22 9l-24 -3q-12 -1 -15.5 -12.5t-3.5 -25.5q0 -7 0.5 -13t0.5 -10q0 -6 -1 -19.5t-6 -34.5q-3 -16 -18.5 -31t-20.5 -25h-2q-2 0 -9 5t-11 5q-2 0 -16 -14q-7 -3 -10.5 -0.5t-5.5 6.5t-5 8t-9 4q-3 0 -8.5 -5
t-9.5 -5q-1 0 -18.5 13.5t-26.5 24.5h-11l-27 -30q-23 -24 -31 -24q-6 0 -14 4l-2 5l9 80q1 10 2 23.5t3 29.5q4 43 5 76t1 58l-2 193q0 8 -1 25.5t-1 26.5l-4 37q8 4 10 11t2 13q0 12 2.5 13t6.5 -2.5t9 -8.5t10 -5q9 0 12.5 13t9.5 32h4q8 0 12.5 -7t7 -16t5 -16t5.5 -7
q6 0 15 14t17 22l8 14q6 10 10.5 10t7.5 -6.5t4.5 -17t1.5 -19.5q0 -17 10 -16t21 1q20 0 24 31q2 14 5 16t6 -3t5 -15.5t3 -20.5l1 -12v-15q0 -12 -1 -34.5t-1 -34.5q0 -38 8 -60q5 -5 13 -5q22 0 28.5 10t6.5 33v16q0 3 -0.5 8t-0.5 8v19q0 -1 0 4t1 15l2 40l2 2h1
q3 0 8.5 -4t7.5 -4q4 0 7 6v18q0 3 -0.5 8t-0.5 7q0 27 9 27q10 0 17 -18z" />
    <glyph glyph-name="FLW206" unicode="&#xce;" horiz-adv-x="688" 
d="M398 734l19 -15q122 -22 187 -93q24 -27 24 -46q0 -6 -1 -8q41 -134 41 -271q-10 -48 -15 -63q-10 -35 -22.5 -58.5t-28.5 -39.5q-10 -2 -20.5 -1t-19.5 1q-3 0 -11 -2q-132 -45 -233 -45q-26 11 -40 28q-45 0 -82.5 23.5t-86.5 65.5q-4 3 -17 14.5t-26.5 28t-24.5 36
t-11 39.5q0 5 0.5 17t0.5 17q0 26 -11 40q11 82 30 134q48 129 182 185h2q9 0 17 -9q7 -8 24 -5.5t37.5 9l40.5 13t32 6.5q11 0 13 -1zM434 475l-44 42q-28 0 -58 -8q-10 -3 -25.5 -7t-30 -12.5t-24.5 -24t-10 -42.5q0 -15 6.5 -29.5t16.5 -26.5t21 -21.5t20 -13.5h14
q4 0 10 1t11 -1l26 -2q15 -1 28.5 3t21.5 14l21 55q6 16 6 35q0 22 -10 38zM608 276l-6 -4l-42 -74q4 -6 12 -6h7q16 0 16.5 8t6.5 13l10 47q2 9 -4 16z" />
    <glyph glyph-name="FLW206" unicode="&#x41e;" horiz-adv-x="688" 
d="M398 734l19 -15q122 -22 187 -93q24 -27 24 -46q0 -6 -1 -8q41 -134 41 -271q-10 -48 -15 -63q-10 -35 -22.5 -58.5t-28.5 -39.5q-10 -2 -20.5 -1t-19.5 1q-3 0 -11 -2q-132 -45 -233 -45q-26 11 -40 28q-45 0 -82.5 23.5t-86.5 65.5q-4 3 -17 14.5t-26.5 28t-24.5 36
t-11 39.5q0 5 0.5 17t0.5 17q0 26 -11 40q11 82 30 134q48 129 182 185h2q9 0 17 -9q7 -8 24 -5.5t37.5 9l40.5 13t32 6.5q11 0 13 -1zM434 475l-44 42q-28 0 -58 -8q-10 -3 -25.5 -7t-30 -12.5t-24.5 -24t-10 -42.5q0 -15 6.5 -29.5t16.5 -26.5t21 -21.5t20 -13.5h14
q4 0 10 1t11 -1l26 -2q15 -1 28.5 3t21.5 14l21 55q6 16 6 35q0 22 -10 38zM608 276l-6 -4l-42 -74q4 -6 12 -6h7q16 0 16.5 8t6.5 13l10 47q2 9 -4 16z" />
    <glyph glyph-name="FLW207" unicode="&#xcf;" horiz-adv-x="614" 
d="M359 670l27 4h2q4 0 8.5 7t6.5 7q7 0 13.5 -15t11.5 -15q-1 0 14 12.5t37 12.5q13 0 26 -3.5t20 -3.5q5 0 8.5 0.5t6.5 0.5q12 0 12.5 -15t8.5 -23l21 15l6 -7q2 -3 2.5 -26t1.5 -51l2 -54v-32q0 -15 -1 -44t-1 -43v-29q0 -14 -12 -29.5t-12 -26.5v-14q0 -7 3 -28l5 -46
q4 -34 6 -56t2 -32q0 -16 -11 -39.5t-11 -42.5v-18q0 -2 -5 -4l-5 -2q-3 -1 -8 3t-10 9.5t-9 10.5l-4 5q-6 0 -12 -5t-7 -5q-4 0 -7.5 7.5t-7 16t-8 15.5t-10.5 6q-8 -2 -21.5 -5t-31.5 -5l-4.5 15t-9.5 8q-17 -29 -28 -36q-10 0 -13 7t-2 14.5t3 12t2 0.5q0 9 -6 38l-5 19
q-3 11 -1 23t2 22q0 24 -8 51q1 18 2 43l2 52t1.5 53t0.5 46q0 41 -3 41h-56q-5 0 -7.5 -11t-4.5 -29t-2.5 -41.5t-0.5 -48.5q0 -27 0.5 -54.5t1.5 -49.5t1.5 -37.5t0.5 -18.5q0 -6 -1 -19.5t-6 -34.5q-3 -16 -18.5 -31t-20.5 -25h-2q-2 0 -9 5t-11 5q-2 0 -16 -14
q-7 -3 -10.5 -0.5t-5.5 6.5t-5 8t-9 4q-3 0 -8.5 -5t-9.5 -5q-1 0 -18.5 13.5t-26.5 24.5h-11l-27 -30q-23 -24 -31 -24q-6 0 -14 4l-2 5l9 80q1 10 2 23.5t3 29.5q4 43 5 76t1 58l-2 193q0 8 -1 25.5t-1 26.5l-4 37q8 4 10 11t2 13q0 14 -1.5 19t16.5 5q7 0 11.5 -1.5
t8.5 -1.5q5 0 8 4t7 17h4q4 0 8 -7t8 -16t7.5 -16t6.5 -7q6 0 14 16.5t18 19.5q8 2 13.5 -3t12.5 -12t15.5 -13t21.5 -6q12 0 16.5 4.5t7.5 9t7 7t15 -1.5l54 -19q-1 0 0.5 1l1.5 1h1q3 0 8.5 -4t7.5 -4q4 0 7 6z" />
    <glyph glyph-name="FLW207" unicode="&#x41f;" horiz-adv-x="614" 
d="M359 670l27 4h2q4 0 8.5 7t6.5 7q7 0 13.5 -15t11.5 -15q-1 0 14 12.5t37 12.5q13 0 26 -3.5t20 -3.5q5 0 8.5 0.5t6.5 0.5q12 0 12.5 -15t8.5 -23l21 15l6 -7q2 -3 2.5 -26t1.5 -51l2 -54v-32q0 -15 -1 -44t-1 -43v-29q0 -14 -12 -29.5t-12 -26.5v-14q0 -7 3 -28l5 -46
q4 -34 6 -56t2 -32q0 -16 -11 -39.5t-11 -42.5v-18q0 -2 -5 -4l-5 -2q-3 -1 -8 3t-10 9.5t-9 10.5l-4 5q-6 0 -12 -5t-7 -5q-4 0 -7.5 7.5t-7 16t-8 15.5t-10.5 6q-8 -2 -21.5 -5t-31.5 -5l-4.5 15t-9.5 8q-17 -29 -28 -36q-10 0 -13 7t-2 14.5t3 12t2 0.5q0 9 -6 38l-5 19
q-3 11 -1 23t2 22q0 24 -8 51q1 18 2 43l2 52t1.5 53t0.5 46q0 41 -3 41h-56q-5 0 -7.5 -11t-4.5 -29t-2.5 -41.5t-0.5 -48.5q0 -27 0.5 -54.5t1.5 -49.5t1.5 -37.5t0.5 -18.5q0 -6 -1 -19.5t-6 -34.5q-3 -16 -18.5 -31t-20.5 -25h-2q-2 0 -9 5t-11 5q-2 0 -16 -14
q-7 -3 -10.5 -0.5t-5.5 6.5t-5 8t-9 4q-3 0 -8.5 -5t-9.5 -5q-1 0 -18.5 13.5t-26.5 24.5h-11l-27 -30q-23 -24 -31 -24q-6 0 -14 4l-2 5l9 80q1 10 2 23.5t3 29.5q4 43 5 76t1 58l-2 193q0 8 -1 25.5t-1 26.5l-4 37q8 4 10 11t2 13q0 14 -1.5 19t16.5 5q7 0 11.5 -1.5
t8.5 -1.5q5 0 8 4t7 17h4q4 0 8 -7t8 -16t7.5 -16t6.5 -7q6 0 14 16.5t18 19.5q8 2 13.5 -3t12.5 -12t15.5 -13t21.5 -6q12 0 16.5 4.5t7.5 9t7 7t15 -1.5l54 -19q-1 0 0.5 1l1.5 1h1q3 0 8.5 -4t7.5 -4q4 0 7 6z" />
    <glyph glyph-name="FLW208" unicode="&#xd0;" horiz-adv-x="566" 
d="M160 725h4q4 0 12.5 -2t12.5 -2q11 0 12 13.5t7 15.5h2q9 0 13 -4l13 -10q68 0 136 -20q5 -4 9.5 -9t12 -11.5t20 -16.5t34.5 -24l50 -33l16.5 -10.5t8 -7t3.5 -8.5t3 -16l7 -39q10 -50 10 -69q0 -40 -19 -72q-3 -2 -7.5 -12.5l-10 -23.5t-11 -24t-10.5 -14
q-17 -29 -64 -50q-116 -51 -120 -57q0 -8 2 -24l5 -40l4 -34q1 -8 1.5 -12.5t0.5 -6.5q-10 -10 -15 -10h-2q-7 0 -15 13t-12 13q-2 0 -6 -2t-7 -2q-4 0 -9 3t-7 3h-3q-1 0 -9 -15t-14 -15q-8 0 -13 6t-8 14t-6 14t-8 6q-8 0 -19 -16q-7 -7 -30 -9.5t-48 -2.5q-8 0 -8 17
q0 8 -7 12h-2q-8 0 -15.5 -12.5t-13.5 -12.5h-2q3 0 6.5 24.5l7.5 55t6.5 58.5t2.5 34q-3 10 -7 42t-7.5 68.5t-6 69.5t-2.5 46q0 21 4 32l-22 178v26l39 2q9 -7 16 -22l12 -26q5 -13 6.5 -4t1.5 32q0 10 3 9.5t7.5 -5l10 -10.5t9.5 -6q7 0 7 25t6 25q5 0 10.5 -13.5
t11.5 -21.5zM362 486l-54 42q-4 4 -9 5t-7 1q-15 0 -15 -36q0 -10 1 -22.5t3.5 -24t5.5 -19t7 -7.5l11 5q58 25 58 50q0 5 -1 6z" />
    <glyph glyph-name="FLW208" unicode="&#x420;" horiz-adv-x="566" 
d="M160 725h4q4 0 12.5 -2t12.5 -2q11 0 12 13.5t7 15.5h2q9 0 13 -4l13 -10q68 0 136 -20q5 -4 9.5 -9t12 -11.5t20 -16.5t34.5 -24l50 -33l16.5 -10.5t8 -7t3.5 -8.5t3 -16l7 -39q10 -50 10 -69q0 -40 -19 -72q-3 -2 -7.5 -12.5l-10 -23.5t-11 -24t-10.5 -14
q-17 -29 -64 -50q-116 -51 -120 -57q0 -8 2 -24l5 -40l4 -34q1 -8 1.5 -12.5t0.5 -6.5q-10 -10 -15 -10h-2q-7 0 -15 13t-12 13q-2 0 -6 -2t-7 -2q-4 0 -9 3t-7 3h-3q-1 0 -9 -15t-14 -15q-8 0 -13 6t-8 14t-6 14t-8 6q-8 0 -19 -16q-7 -7 -30 -9.5t-48 -2.5q-8 0 -8 17
q0 8 -7 12h-2q-8 0 -15.5 -12.5t-13.5 -12.5h-2q3 0 6.5 24.5l7.5 55t6.5 58.5t2.5 34q-3 10 -7 42t-7.5 68.5t-6 69.5t-2.5 46q0 21 4 32l-22 178v26l39 2q9 -7 16 -22l12 -26q5 -13 6.5 -4t1.5 32q0 10 3 9.5t7.5 -5l10 -10.5t9.5 -6q7 0 7 25t6 25q5 0 10.5 -13.5
t11.5 -21.5zM362 486l-54 42q-4 4 -9 5t-7 1q-15 0 -15 -36q0 -10 1 -22.5t3.5 -24t5.5 -19t7 -7.5l11 5q58 25 58 50q0 5 -1 6z" />
    <glyph glyph-name="FLW209" unicode="&#xd1;" horiz-adv-x="569" 
d="M424 710v-4q0 -2 -10.5 -8.5t-20 -14t-12.5 -13.5t12 -6q5 0 15 1.5t16 1.5q5 0 5 -2q0 -1 -4.5 -5t-16.5 -10q-12 -8 -15.5 -16t17.5 -8q10 0 29 4.5t29 4.5q2 -2 2 -15q0 -6 5 -8h25q-2 -5 -18 -14t-28 -18q0 -5 9.5 -9t10.5 -5v-2q0 -3 -3 -7t-3 -7q0 -9 20 -9
q3 0 11 0.5t11 0.5q9 0 9 -3t-4 -6.5t-8.5 -7t-4.5 -5.5q0 -8 33 -12q17 -2 14 -5t-15 -5.5t-28 -5t-26 -4.5q-19 -3 -51 -12.5t-62.5 -23.5t-52.5 -33t-22 -43q0 -14 10.5 -27t25.5 -24t32.5 -20t31.5 -14q15 -5 118 -30q-14 -14 -14 -17q0 -6 2 -18t2 -21q0 -6 -8 -13.5
t-8 -11.5v-2q0 -3 -16 -3h-7q-6 0 -9 1l-17 2q-21 2 -21 -4q0 -4 6.5 -9.5t16.5 -11t20.5 -10.5t18.5 -8v-2q3 -9 -30 -17l-29 -8q-16 -4 -26 -10l23 -30l-6 -6q-22 0 -39.5 6t-40.5 15q-16 6 -39 20.5l-48 29.5t-49 27.5t-43 15.5q-17 12 -30 23.5t-26 26.5l-29 34.5
l-38 46.5q-6 18 -6 37q0 13 5 35t12.5 46t16 46t16.5 36q54 103 110 103q86 74 171 98q-22 -7 -25 -23l6 -4l38 13q11 4 24.5 8t29.5 8z" />
    <glyph glyph-name="FLW209" unicode="&#x421;" horiz-adv-x="569" 
d="M424 710v-4q0 -2 -10.5 -8.5t-20 -14t-12.5 -13.5t12 -6q5 0 15 1.5t16 1.5q5 0 5 -2q0 -1 -4.5 -5t-16.5 -10q-12 -8 -15.5 -16t17.5 -8q10 0 29 4.5t29 4.5q2 -2 2 -15q0 -6 5 -8h25q-2 -5 -18 -14t-28 -18q0 -5 9.5 -9t10.5 -5v-2q0 -3 -3 -7t-3 -7q0 -9 20 -9
q3 0 11 0.5t11 0.5q9 0 9 -3t-4 -6.5t-8.5 -7t-4.5 -5.5q0 -8 33 -12q17 -2 14 -5t-15 -5.5t-28 -5t-26 -4.5q-19 -3 -51 -12.5t-62.5 -23.5t-52.5 -33t-22 -43q0 -14 10.5 -27t25.5 -24t32.5 -20t31.5 -14q15 -5 118 -30q-14 -14 -14 -17q0 -6 2 -18t2 -21q0 -6 -8 -13.5
t-8 -11.5v-2q0 -3 -16 -3h-7q-6 0 -9 1l-17 2q-21 2 -21 -4q0 -4 6.5 -9.5t16.5 -11t20.5 -10.5t18.5 -8v-2q3 -9 -30 -17l-29 -8q-16 -4 -26 -10l23 -30l-6 -6q-22 0 -39.5 6t-40.5 15q-16 6 -39 20.5l-48 29.5t-49 27.5t-43 15.5q-17 12 -30 23.5t-26 26.5l-29 34.5
l-38 46.5q-6 18 -6 37q0 13 5 35t12.5 46t16 46t16.5 36q54 103 110 103q86 74 171 98q-22 -7 -25 -23l6 -4l38 13q11 4 24.5 8t29.5 8z" />
    <glyph glyph-name="FLW210" unicode="&#xd2;" horiz-adv-x="602" 
d="M542 726q-1 -3 -5 -12t-4 -12q0 -5 6 -8l14 -2v-2q0 -11 -5 -29t-5 -22q-7 -20 -36 -25t-59 -13v-2q0 -9 11 -9q24 0 60 -6l60 -10q1 0 1 -4q10 -21 -52 -21h-31q-13 0 -23.5 -3.5t-10.5 -7.5q0 -8 22 -12q15 -3 15 -8t-8.5 -9.5t-21 -7.5t-21.5 -3h-16q-5 0 -10 0.5
t-10 1.5l-28 2q-7 -11 -9.5 -33t-2.5 -48q0 -23 1 -47.5t1 -45.5v-44.5t-1 -46.5q-1 -8 -1 -14v-10q0 -9 1 -27.5t1 -27.5q0 4 -7.5 -7l-18 -26t-22 -28t-19.5 -13q-17 0 -27 43q-34 43 -72 43q-9 -4 -30 -9q-5 0 -12 9l-7 9q-3 4 -4 9t-1 6q0 5 1 6l5 158q0 4 -0.5 13.5
t-1.5 25.5l-4 53q0 7 -1 18l-2 21.5t-2 17.5t-1 6l-6 5q-2 2 -9.5 1.5t-18 -2l-21.5 -3t-20 -1.5q-54 0 -54 21q0 9 9.5 18t9.5 24q0 7 5.5 12t12.5 8t13 4.5t6 3.5t-8.5 6l-18.5 8.5t-18.5 9.5t-8.5 8q0 7 10.5 17t10.5 13q0 -4 -6 16q-2 2 -2 5q0 6 6 20t6 19l8 5l328 -4
q22 2 54.5 4.5t75.5 3.5q18 -1 29 -9z" />
    <glyph glyph-name="FLW210" unicode="&#x422;" horiz-adv-x="602" 
d="M542 726q-1 -3 -5 -12t-4 -12q0 -5 6 -8l14 -2v-2q0 -11 -5 -29t-5 -22q-7 -20 -36 -25t-59 -13v-2q0 -9 11 -9q24 0 60 -6l60 -10q1 0 1 -4q10 -21 -52 -21h-31q-13 0 -23.5 -3.5t-10.5 -7.5q0 -8 22 -12q15 -3 15 -8t-8.5 -9.5t-21 -7.5t-21.5 -3h-16q-5 0 -10 0.5
t-10 1.5l-28 2q-7 -11 -9.5 -33t-2.5 -48q0 -23 1 -47.5t1 -45.5v-44.5t-1 -46.5q-1 -8 -1 -14v-10q0 -9 1 -27.5t1 -27.5q0 4 -7.5 -7l-18 -26t-22 -28t-19.5 -13q-17 0 -27 43q-34 43 -72 43q-9 -4 -30 -9q-5 0 -12 9l-7 9q-3 4 -4 9t-1 6q0 5 1 6l5 158q0 4 -0.5 13.5
t-1.5 25.5l-4 53q0 7 -1 18l-2 21.5t-2 17.5t-1 6l-6 5q-2 2 -9.5 1.5t-18 -2l-21.5 -3t-20 -1.5q-54 0 -54 21q0 9 9.5 18t9.5 24q0 7 5.5 12t12.5 8t13 4.5t6 3.5t-8.5 6l-18.5 8.5t-18.5 9.5t-8.5 8q0 7 10.5 17t10.5 13q0 -4 -6 16q-2 2 -2 5q0 6 6 20t6 19l8 5l328 -4
q22 2 54.5 4.5t75.5 3.5q18 -1 29 -9z" />
    <glyph glyph-name="FLW211" unicode="&#xd3;" horiz-adv-x="632" 
d="M583 761h24q5 -10 5 -21q0 -9 -3 -24q-1 -7 -2.5 -22t-4.5 -35t-8.5 -43.5t-14.5 -45.5l-30.5 -66t-45.5 -104q-11 -27 -33 -70t-39 -100l-16 -54q-7 -25 -22 -47q-9 0 -18 12.5t-15 12.5t-11.5 -9l-11.5 -19t-13.5 -19t-17.5 -9h-5q1 8 1.5 13.5t0.5 9.5q0 14 -2.5 20.5
t-7.5 8.5t-12 1.5t-16 -0.5q-20 0 -34.5 10.5t-33.5 10.5q-1 0 -30 -9q-3 -2 -8.5 -5t-10.5 -4t-9 1.5t-4 12.5q0 12 14 33t26 41l54 94l-4 18l-119 121l-82 97q1 -1 3 3t2 7q0 1 -2 11l-6 12q-1 3 1 5t11 6h2q3 0 8.5 -5.5t7.5 -5.5q6 0 4 6q-1 5 -3.5 12t-6.5 15l-4 6
l7.5 6t17 14.5t18 18t11.5 17.5q3 0 15.5 -10t18.5 -10t6.5 6t-0.5 12.5t-3.5 11.5t-2.5 2q0 4 7 10h2q4 0 16 -8t19 -8q8 0 14 12.5t14 12.5q15 0 31 -18.5t31.5 -41.5l29 -44.5t23.5 -28.5q18 3 42 42l63 104q6 10 15 10q8 0 10 -9t11 -9h4q5 0 14 2t13 2q13 0 17 -13
q1 2 10.5 11.5t25 21t27.5 11.5q9 0 15 -10z" />
    <glyph glyph-name="FLW211" unicode="&#x423;" horiz-adv-x="632" 
d="M583 761h24q5 -10 5 -21q0 -9 -3 -24q-1 -7 -2.5 -22t-4.5 -35t-8.5 -43.5t-14.5 -45.5l-30.5 -66t-45.5 -104q-11 -27 -33 -70t-39 -100l-16 -54q-7 -25 -22 -47q-9 0 -18 12.5t-15 12.5t-11.5 -9l-11.5 -19t-13.5 -19t-17.5 -9h-5q1 8 1.5 13.5t0.5 9.5q0 14 -2.5 20.5
t-7.5 8.5t-12 1.5t-16 -0.5q-20 0 -34.5 10.5t-33.5 10.5q-1 0 -30 -9q-3 -2 -8.5 -5t-10.5 -4t-9 1.5t-4 12.5q0 12 14 33t26 41l54 94l-4 18l-119 121l-82 97q1 -1 3 3t2 7q0 1 -2 11l-6 12q-1 3 1 5t11 6h2q3 0 8.5 -5.5t7.5 -5.5q6 0 4 6q-1 5 -3.5 12t-6.5 15l-4 6
l7.5 6t17 14.5t18 18t11.5 17.5q3 0 15.5 -10t18.5 -10t6.5 6t-0.5 12.5t-3.5 11.5t-2.5 2q0 4 7 10h2q4 0 16 -8t19 -8q8 0 14 12.5t14 12.5q15 0 31 -18.5t31.5 -41.5l29 -44.5t23.5 -28.5q18 3 42 42l63 104q6 10 15 10q8 0 10 -9t11 -9h4q5 0 14 2t13 2q13 0 17 -13
q1 2 10.5 11.5t25 21t27.5 11.5q9 0 15 -10z" />
    <glyph glyph-name="FLW212" unicode="&#xd4;" horiz-adv-x="805" 
d="M434 735v-7h6q-1 0 2.5 7.5t4.5 7.5h2q4 0 9 -5.5t10 -39.5l28 31v-1l3 1h-3q2 4 4 11.5t6 9.5l39 -10l1 -14h7v-3q2 0 14 -3l27 -7t17 -4q5 -4 9.5 -9t12 -11.5t20 -16.5t34.5 -24l50 -33l16.5 -10.5t8 -7t3.5 -8.5t3 -16l7 -39q10 -50 10 -69q0 -40 -19 -72
q-3 -2 -7.5 -12.5l-10 -23.5t-11 -24t-10.5 -14q-17 -29 -64 -50q-115 -51 -120 -57q0 -8 2 -24l5 -40l4 -34q1 -8 1.5 -13t0.5 -6q-10 -10 -15 -10h-2q-7 0 -15 6.5t-15 15l-12 15t-7 6.5q-4 0 -8.5 -7t-9 -15.5l-8.5 -15.5t-7 -7q-5 0 -10.5 16t-8.5 20q-9 0 -12.5 -5
t-6.5 -11t-7.5 -11t-16.5 -4q-18 -20 -19 -14t-3 12q-5 14 -17 26.5t-13 14.5q-2 0 -4.5 -5t-4.5 -11t-4.5 -11t-4.5 -5q-7 0 -9.5 -2.5t-3.5 -5t-2.5 -5t-6.5 -2.5q-5 16 -3 27.5l2 11.5q4 20 -1 21.5t-5 3.5q-15 -26 -22.5 -41.5t-14.5 -15.5q-6 0 -7.5 13.5t-0.5 20.5
l4 34l5 40t2 24q2 -3 -23 7.5t-58 27.5t-63.5 37t-39.5 35q-5 3 -10.5 14t-11 24l-10 23.5t-7.5 12.5q-19 32 -19 72q0 19 10 69l7 39q2 11 3 16t3.5 8.5t8 7l16.5 10.5l50 33q22 14 34.5 24t20 16.5t12 11.5t9.5 9q8 2 21.5 4t27.5 3.5l27.5 3t21.5 2.5l11 21q7 5 11.5 -2
t7.5 -17.5l5.5 -19.5t5.5 -8l10 43q1 3 5 3.5t8 0.5h2q4 -2 5 -8.5t3 -12.5h5q0 23 9.5 34t10.5 -13q1 -12 5.5 -32t4.5 -21l8 32q3 11 9.5 21t9.5 10q6 0 6 -25zM524 430q3 -12 9 -12l11 5q58 25 58 50q0 5 -1 6l-54 42q-5 4 -9.5 5t-6.5 1q-5 0 -4 -8t1 -15q0 -9 -1 -28.5
t-3 -43.5q0 1 -0.5 1.5l-0.5 0.5v-8q0 1 0.5 2t0.5 2zM281 529v3q-3 -1 -5.5 0.5t-1.5 1.5q-2 0 -7 -1t-9 -5l-54 -42q-1 -1 -1 -6q0 -25 58 -50l11 -5q4 -1 5.5 9t1.5 23q0 14 -1 27l-1 13q0 21 4 32z" />
    <glyph glyph-name="FLW212" unicode="&#x424;" horiz-adv-x="805" 
d="M434 735v-7h6q-1 0 2.5 7.5t4.5 7.5h2q4 0 9 -5.5t10 -39.5l28 31v-1l3 1h-3q2 4 4 11.5t6 9.5l39 -10l1 -14h7v-3q2 0 14 -3l27 -7t17 -4q5 -4 9.5 -9t12 -11.5t20 -16.5t34.5 -24l50 -33l16.5 -10.5t8 -7t3.5 -8.5t3 -16l7 -39q10 -50 10 -69q0 -40 -19 -72
q-3 -2 -7.5 -12.5l-10 -23.5t-11 -24t-10.5 -14q-17 -29 -64 -50q-115 -51 -120 -57q0 -8 2 -24l5 -40l4 -34q1 -8 1.5 -13t0.5 -6q-10 -10 -15 -10h-2q-7 0 -15 6.5t-15 15l-12 15t-7 6.5q-4 0 -8.5 -7t-9 -15.5l-8.5 -15.5t-7 -7q-5 0 -10.5 16t-8.5 20q-9 0 -12.5 -5
t-6.5 -11t-7.5 -11t-16.5 -4q-18 -20 -19 -14t-3 12q-5 14 -17 26.5t-13 14.5q-2 0 -4.5 -5t-4.5 -11t-4.5 -11t-4.5 -5q-7 0 -9.5 -2.5t-3.5 -5t-2.5 -5t-6.5 -2.5q-5 16 -3 27.5l2 11.5q4 20 -1 21.5t-5 3.5q-15 -26 -22.5 -41.5t-14.5 -15.5q-6 0 -7.5 13.5t-0.5 20.5
l4 34l5 40t2 24q2 -3 -23 7.5t-58 27.5t-63.5 37t-39.5 35q-5 3 -10.5 14t-11 24l-10 23.5t-7.5 12.5q-19 32 -19 72q0 19 10 69l7 39q2 11 3 16t3.5 8.5t8 7l16.5 10.5l50 33q22 14 34.5 24t20 16.5t12 11.5t9.5 9q8 2 21.5 4t27.5 3.5l27.5 3t21.5 2.5l11 21q7 5 11.5 -2
t7.5 -17.5l5.5 -19.5t5.5 -8l10 43q1 3 5 3.5t8 0.5h2q4 -2 5 -8.5t3 -12.5h5q0 23 9.5 34t10.5 -13q1 -12 5.5 -32t4.5 -21l8 32q3 11 9.5 21t9.5 10q6 0 6 -25zM524 430q3 -12 9 -12l11 5q58 25 58 50q0 5 -1 6l-54 42q-5 4 -9.5 5t-6.5 1q-5 0 -4 -8t1 -15q0 -9 -1 -28.5
t-3 -43.5q0 1 -0.5 1.5l-0.5 0.5v-8q0 1 0.5 2t0.5 2zM281 529v3q-3 -1 -5.5 0.5t-1.5 1.5q-2 0 -7 -1t-9 -5l-54 -42q-1 -1 -1 -6q0 -25 58 -50l11 -5q4 -1 5.5 9t1.5 23q0 14 -1 27l-1 13q0 21 4 32z" />
    <glyph glyph-name="FLW213" unicode="&#xd5;" horiz-adv-x="736" 
d="M557 750l5 -6v-2q0 -3 -4 -8.5t-4 -7.5q0 -4 7 -5q2 12 35 27h11q9 0 9 -6q0 -3 -3.5 -13.5t-3.5 -14.5q0 -5 22 -27l-7.5 -11t-11.5 -18.5t-10.5 -22t-4.5 -21.5q0 -8 14 4l22 16q31 24 37 24q10 0 28 -13t18 -23l-2 -6l-168 -188l3 -18l115 -134q8 -10 8 -22v-4
q0 -5 -10.5 -9t-10.5 -11q0 -3 3.5 -10t3.5 -13q0 -39 -36 -39q-9 0 -42 11q-4 -4 -4 -12q0 -3 1 -8.5t1 -8.5v-4h-2q-7 0 -21 -8.5t-17 -8.5q-10 0 -23 13l-17 15q-6 5 -14 9.5t-8 -4.5q0 -2 4 -10t4 -12q0 -7 -7.5 -12.5t-14.5 -5.5l-83 108q-5 6 -11 6t-10 -4l-108 -130
q-10 24 -29 24q-5 0 -20.5 3.5t-23.5 3.5q-11 0 -20 -1.5t-9 16.5q0 6 5 14.5t5 9.5v2q0 3 -10 3q-7 0 -23.5 -13.5t-26.5 -13.5h-6l-10 2q2 0 2 12q0 8 -6 22t-6 22q0 7 5 14l94 138q36 52 36 68v5q0 17 -17.5 42t-44 55t-58.5 62l-61 62q-12 12 -1.5 9.5t28.5 -11
l35.5 -17.5t19.5 -9q2 13 5 15.5t8 0t12 -7t15 -4.5q4 0 4 6q0 4 -2 11.5t-2 10.5q0 9 6.5 9.5t14 -2.5t14.5 -7l7 -4q12 0 9 10.5t-3 15.5q0 6 6 10h2q7 0 16 15t10 15q8 -7 22 -17t22 -10h4l5.5 11t6.5 12l9 -4q17 -8 36 -38l41 -62l8 2q9 2 49 63q53 77 99 77q13 0 25 -4
z" />
    <glyph glyph-name="FLW213" unicode="&#x425;" horiz-adv-x="736" 
d="M557 750l5 -6v-2q0 -3 -4 -8.5t-4 -7.5q0 -4 7 -5q2 12 35 27h11q9 0 9 -6q0 -3 -3.5 -13.5t-3.5 -14.5q0 -5 22 -27l-7.5 -11t-11.5 -18.5t-10.5 -22t-4.5 -21.5q0 -8 14 4l22 16q31 24 37 24q10 0 28 -13t18 -23l-2 -6l-168 -188l3 -18l115 -134q8 -10 8 -22v-4
q0 -5 -10.5 -9t-10.5 -11q0 -3 3.5 -10t3.5 -13q0 -39 -36 -39q-9 0 -42 11q-4 -4 -4 -12q0 -3 1 -8.5t1 -8.5v-4h-2q-7 0 -21 -8.5t-17 -8.5q-10 0 -23 13l-17 15q-6 5 -14 9.5t-8 -4.5q0 -2 4 -10t4 -12q0 -7 -7.5 -12.5t-14.5 -5.5l-83 108q-5 6 -11 6t-10 -4l-108 -130
q-10 24 -29 24q-5 0 -20.5 3.5t-23.5 3.5q-11 0 -20 -1.5t-9 16.5q0 6 5 14.5t5 9.5v2q0 3 -10 3q-7 0 -23.5 -13.5t-26.5 -13.5h-6l-10 2q2 0 2 12q0 8 -6 22t-6 22q0 7 5 14l94 138q36 52 36 68v5q0 17 -17.5 42t-44 55t-58.5 62l-61 62q-12 12 -1.5 9.5t28.5 -11
l35.5 -17.5t19.5 -9q2 13 5 15.5t8 0t12 -7t15 -4.5q4 0 4 6q0 4 -2 11.5t-2 10.5q0 9 6.5 9.5t14 -2.5t14.5 -7l7 -4q12 0 9 10.5t-3 15.5q0 6 6 10h2q7 0 16 15t10 15q8 -7 22 -17t22 -10h4l5.5 11t6.5 12l9 -4q17 -8 36 -38l41 -62l8 2q9 2 49 63q53 77 99 77q13 0 25 -4
z" />
    <glyph glyph-name="FLW214" unicode="&#xd6;" horiz-adv-x="656" 
d="M255 62l-27 -4h-2q-4 0 -8.5 -7t-6.5 -7q-7 0 -13 2t-11 2q-15 -3 -20 -3q-7 0 -12 2t-20 2q-13 0 -26 3.5t-20 3.5q-5 0 -8.5 -0.5t-6.5 -0.5q-12 0 -12.5 15t-8.5 23l-21 -15l-6 7q-2 3 -2.5 26t-1.5 51l-2 54v32q0 15 1 44t1 43v29q0 14 12 29.5t12 26.5v14q0 7 -3 28
l-5 46q-4 34 -6 56t-2 32q0 16 11 39.5t11 42.5v18q0 2 5 4l5 2q3 1 8 -3t10 -9.5t9 -10.5l4 -5q6 0 12 5t7 5q4 0 7.5 -7.5t7 -16t8 -15.5t10.5 -6q8 2 21.5 5t31.5 5l4.5 -15t9.5 -8q17 29 28 36q10 0 13 -7t2 -14.5t-3 -12t-2 -0.5q0 -9 6 -38l5 -19q3 -11 1 -23t-2 -22
q0 -24 8 -51q-1 -18 -2 -43l-2 -52t-1.5 -53t-0.5 -46q0 -41 3 -41h56q5 0 7.5 11t4.5 29t2.5 41.5t0.5 48.5q0 27 -0.5 54.5t-1.5 49.5t-1.5 37.5t-0.5 18.5q0 6 1 19.5t6 34.5q3 16 18.5 31t20.5 25h2q2 0 9 -5t11 -5q2 0 16 14q7 3 10.5 0.5t5.5 -6.5t5 -8t9 -4
q3 0 8.5 5t9.5 5q1 0 18.5 -13.5t26.5 -24.5h11l27 30q23 24 31 24q6 0 14 -4l2 -5l-9 -80q-1 -10 -2 -23.5t-3 -29.5q-7 -85 -6 -134l2 -110q0 -4 0.5 -14.5t0.5 -22.5t0.5 -22.5t0.5 -15.5l31 29q6 6 11 1.5t8.5 -14.5t5.5 -24.5t2 -27.5q0 -20 -8 -36t-19 -29
t-23.5 -24.5t-21.5 -21.5l-27 -16q-7 -4 -26.5 -14t-38.5 -30q-4 -4 -17 -14.5t-23 -14.5q-6 -1 -10 6t-6.5 14.5t-5 10.5t-5.5 -6q-5 -13 -20 -13q-11 0 -21.5 4t-15.5 7q-8 4 -2 17.5t17 29l21.5 31t10.5 24.5q0 11 -21 7l-83 -15l-2 -2q-13 0 -19 -3t-10 -2z" />
    <glyph glyph-name="FLW214" unicode="&#x426;" horiz-adv-x="656" 
d="M255 62l-27 -4h-2q-4 0 -8.5 -7t-6.5 -7q-7 0 -13 2t-11 2q-15 -3 -20 -3q-7 0 -12 2t-20 2q-13 0 -26 3.5t-20 3.5q-5 0 -8.5 -0.5t-6.5 -0.5q-12 0 -12.5 15t-8.5 23l-21 -15l-6 7q-2 3 -2.5 26t-1.5 51l-2 54v32q0 15 1 44t1 43v29q0 14 12 29.5t12 26.5v14q0 7 -3 28
l-5 46q-4 34 -6 56t-2 32q0 16 11 39.5t11 42.5v18q0 2 5 4l5 2q3 1 8 -3t10 -9.5t9 -10.5l4 -5q6 0 12 5t7 5q4 0 7.5 -7.5t7 -16t8 -15.5t10.5 -6q8 2 21.5 5t31.5 5l4.5 -15t9.5 -8q17 29 28 36q10 0 13 -7t2 -14.5t-3 -12t-2 -0.5q0 -9 6 -38l5 -19q3 -11 1 -23t-2 -22
q0 -24 8 -51q-1 -18 -2 -43l-2 -52t-1.5 -53t-0.5 -46q0 -41 3 -41h56q5 0 7.5 11t4.5 29t2.5 41.5t0.5 48.5q0 27 -0.5 54.5t-1.5 49.5t-1.5 37.5t-0.5 18.5q0 6 1 19.5t6 34.5q3 16 18.5 31t20.5 25h2q2 0 9 -5t11 -5q2 0 16 14q7 3 10.5 0.5t5.5 -6.5t5 -8t9 -4
q3 0 8.5 5t9.5 5q1 0 18.5 -13.5t26.5 -24.5h11l27 30q23 24 31 24q6 0 14 -4l2 -5l-9 -80q-1 -10 -2 -23.5t-3 -29.5q-7 -85 -6 -134l2 -110q0 -4 0.5 -14.5t0.5 -22.5t0.5 -22.5t0.5 -15.5l31 29q6 6 11 1.5t8.5 -14.5t5.5 -24.5t2 -27.5q0 -20 -8 -36t-19 -29
t-23.5 -24.5t-21.5 -21.5l-27 -16q-7 -4 -26.5 -14t-38.5 -30q-4 -4 -17 -14.5t-23 -14.5q-6 -1 -10 6t-6.5 14.5t-5 10.5t-5.5 -6q-5 -13 -20 -13q-11 0 -21.5 4t-15.5 7q-8 4 -2 17.5t17 29l21.5 31t10.5 24.5q0 11 -21 7l-83 -15l-2 -2q-13 0 -19 -3t-10 -2z" />
    <glyph glyph-name="FLW215" unicode="&#xd7;" horiz-adv-x="602" 
d="M362 702l12 -28h2q4 0 8.5 7t6.5 7q7 0 13.5 -15t11.5 -15q-1 0 14 12.5t37 12.5q3 0 7 3.5t8 3.5q15 -8 23 -5t12 22q4 18 15.5 12t11.5 -21v-17l-2 -19q-2 -14 7 -23l21 15l6 -7q2 -3 2.5 -26t1.5 -51l2 -54v-32q0 -15 -1 -44t-1 -43v-29q0 -14 -6 -29.5t-7 -26.5
l-7 -46l9 -37q8 -34 10 -58.5t2 -34.5q0 -8 -5 -18l-10.5 -21.5l-10.5 -22.5t-5 -20v-18q0 -2 -5 -4l-5 -2q-3 -1 -8 3t-10 9.5t-9 10.5l-4 5q-6 0 -12 -5t-7 -5q-4 0 -7.5 7.5t-7 16t-8 15.5t-10.5 6q-8 -2 -21.5 -5t-31.5 -5l-4.5 15t-9.5 8q-17 -29 -28 -36q-10 0 -13 7
t-2 14.5t3 12t2 0.5q0 9 -6 38l-5 19q-3 11 -1 23t2 22q0 24 -8 51q-9 9 -22 9l-24 -3h-70q-9 -2 -36 5.5t-56.5 17.5t-52.5 19t-25 10q-8 6 -12 8.5t-6 5.5t-2 9v18l-2 193q0 8 -1 25.5t-1 26.5l-4 37q8 4 10 11t2 13q0 12 2.5 13t6.5 -2.5t9 -8.5t10 -5q9 0 12.5 13
t9.5 32h4q8 0 12.5 -7t7 -16t5 -16t5.5 -7q6 0 15 14t17 22l8 14q6 10 10.5 10t7.5 -6.5t4.5 -17t1.5 -19.5q0 -17 10 -16t21 1q20 0 24 31q2 14 5 16t6 -3t5 -15.5t3 -20.5l1 -12v-15q0 -12 -1 -34.5t-1 -34.5q0 -38 8 -60q5 -5 13 -5q22 0 28.5 10t6.5 33v16q0 3 -0.5 8
t-0.5 8v19q0 -1 0 4t1 15l2 40l2 2h1q3 0 8.5 -4t7.5 -4q4 0 7 6v18q0 3 -0.5 8t-0.5 7q0 27 9 27q10 0 17 -18z" />
    <glyph glyph-name="FLW215" unicode="&#x427;" horiz-adv-x="602" 
d="M362 702l12 -28h2q4 0 8.5 7t6.5 7q7 0 13.5 -15t11.5 -15q-1 0 14 12.5t37 12.5q3 0 7 3.5t8 3.5q15 -8 23 -5t12 22q4 18 15.5 12t11.5 -21v-17l-2 -19q-2 -14 7 -23l21 15l6 -7q2 -3 2.5 -26t1.5 -51l2 -54v-32q0 -15 -1 -44t-1 -43v-29q0 -14 -6 -29.5t-7 -26.5
l-7 -46l9 -37q8 -34 10 -58.5t2 -34.5q0 -8 -5 -18l-10.5 -21.5l-10.5 -22.5t-5 -20v-18q0 -2 -5 -4l-5 -2q-3 -1 -8 3t-10 9.5t-9 10.5l-4 5q-6 0 -12 -5t-7 -5q-4 0 -7.5 7.5t-7 16t-8 15.5t-10.5 6q-8 -2 -21.5 -5t-31.5 -5l-4.5 15t-9.5 8q-17 -29 -28 -36q-10 0 -13 7
t-2 14.5t3 12t2 0.5q0 9 -6 38l-5 19q-3 11 -1 23t2 22q0 24 -8 51q-9 9 -22 9l-24 -3h-70q-9 -2 -36 5.5t-56.5 17.5t-52.5 19t-25 10q-8 6 -12 8.5t-6 5.5t-2 9v18l-2 193q0 8 -1 25.5t-1 26.5l-4 37q8 4 10 11t2 13q0 12 2.5 13t6.5 -2.5t9 -8.5t10 -5q9 0 12.5 13
t9.5 32h4q8 0 12.5 -7t7 -16t5 -16t5.5 -7q6 0 15 14t17 22l8 14q6 10 10.5 10t7.5 -6.5t4.5 -17t1.5 -19.5q0 -17 10 -16t21 1q20 0 24 31q2 14 5 16t6 -3t5 -15.5t3 -20.5l1 -12v-15q0 -12 -1 -34.5t-1 -34.5q0 -38 8 -60q5 -5 13 -5q22 0 28.5 10t6.5 33v16q0 3 -0.5 8
t-0.5 8v19q0 -1 0 4t1 15l2 40l2 2h1q3 0 8.5 -4t7.5 -4q4 0 7 6v18q0 3 -0.5 8t-0.5 7q0 27 9 27q10 0 17 -18z" />
    <glyph glyph-name="FLW216" unicode="&#xd8;" horiz-adv-x="906" 
d="M651 59l-10 10q-3 6 -7 6q-2 0 -7.5 -4t-8.5 -4h-1l-2 2l-54 -19q-4 -2 -23 -2q-17 0 -44.5 -6t-38.5 -6t-16 13.5t-16 20.5q-5 -6 -9.5 -15.5t-9.5 -10.5q-3 -8 -6.5 -13.5t-7.5 -5.5h-4q-3 0 -14 5.5l-24 11.5l-25.5 11.5t-19.5 5.5q-25 0 -42.5 -8t-41.5 -8
q-25 0 -34 -4.5t-25 -0.5q-10 3 -25 0.5t-37 -10.5h-4q3 0 -3.5 2.5t-16 6.5t-20 7.5t-15.5 5.5q1 3 3 8.5t2 11.5t-2 13t-10 11l4 37q1 9 1.5 26.5t0.5 25.5l2 193q0 25 -1 58t-5 76q-2 16 -3 29.5t-2 23.5l-9 80l2 5q1 3 8 3.5t6 0.5q4 0 12 -7t17 -16t17 -18t12 -13h11
q9 11 26.5 24.5t18.5 13.5q4 0 9.5 -5t8.5 -5q9 0 19.5 2t26.5 2q4 0 11 5t9 5h2q14 0 22.5 -16.5t14 -37t7.5 -37.5t2 -19q0 -3 -0.5 -18.5t-1.5 -37.5t-1.5 -49.5t-0.5 -54.5q0 -25 0.5 -48.5t2.5 -41.5t4.5 -29t7.5 -11h71l-2 133q0 25 -4.5 59t-8.5 78q-1 16 4 32.5
t2 25.5q-1 12 -1 19v11q0 16 4 37.5t15 21.5t29 -31q7 0 9.5 8l4.5 15q18 -2 31.5 -5t21.5 -5q6 -1 10.5 6t8 15.5t7 16t7.5 7.5q1 0 7 -5t12 -5l4 5t9 10.5t10 9.5t8 3l5 -2q5 -2 5 -4v-18q0 -19 11 -42.5t11 -39.5q0 -10 -2 -32t-6 -56l-4 -38q-1 -7 -1 -14.5v-14.5
q0 -15 2 -28.5t2 -29.5q0 -7 -0.5 -14t-0.5 -13v-29q0 -9 0.5 -22t0.5 -26q0 -11 2 -25l2 -14l62 -3q3 0 3 41q0 20 -0.5 46t-1.5 53l-2 52t-2 43q8 27 8 51q0 11 -1.5 22t0.5 23l5 19q1 5 1 17t1 24t4 21.5t10 9.5q11 -7 28 -36q7 0 9.5 8l4.5 15q18 -2 31.5 -5t21.5 -5
q6 -1 10.5 6t8 15.5t7 16t7.5 7.5q1 0 7 -5t12 -5l4 5t9 10.5t10 9.5t8 3l5 -2q5 -2 5 -4v-18q0 -19 11 -42.5t11 -39.5q0 -10 -2 -31.5t-6 -56.5l-5 -46q-3 -21 -3 -28v-14q0 -11 12 -26.5t12 -29.5v-29q0 -14 1 -43t1 -44v-32l-2 -54q-1 -29 -1.5 -51.5t-2.5 -25.5l-6 -7
l-21 15q-8 -8 -8.5 -23t-12.5 -15q-3 0 -6.5 0.5t-8.5 0.5q-7 0 -20 -3.5t-26 -3.5q-22 0 -37 12.5t-14 12.5q-5 0 -11.5 -15t-13.5 -15q-2 0 -6.5 7t-8.5 7z" />
    <glyph glyph-name="FLW216" unicode="&#x428;" horiz-adv-x="906" 
d="M651 59l-10 10q-3 6 -7 6q-2 0 -7.5 -4t-8.5 -4h-1l-2 2l-54 -19q-4 -2 -23 -2q-17 0 -44.5 -6t-38.5 -6t-16 13.5t-16 20.5q-5 -6 -9.5 -15.5t-9.5 -10.5q-3 -8 -6.5 -13.5t-7.5 -5.5h-4q-3 0 -14 5.5l-24 11.5l-25.5 11.5t-19.5 5.5q-25 0 -42.5 -8t-41.5 -8
q-25 0 -34 -4.5t-25 -0.5q-10 3 -25 0.5t-37 -10.5h-4q3 0 -3.5 2.5t-16 6.5t-20 7.5t-15.5 5.5q1 3 3 8.5t2 11.5t-2 13t-10 11l4 37q1 9 1.5 26.5t0.5 25.5l2 193q0 25 -1 58t-5 76q-2 16 -3 29.5t-2 23.5l-9 80l2 5q1 3 8 3.5t6 0.5q4 0 12 -7t17 -16t17 -18t12 -13h11
q9 11 26.5 24.5t18.5 13.5q4 0 9.5 -5t8.5 -5q9 0 19.5 2t26.5 2q4 0 11 5t9 5h2q14 0 22.5 -16.5t14 -37t7.5 -37.5t2 -19q0 -3 -0.5 -18.5t-1.5 -37.5t-1.5 -49.5t-0.5 -54.5q0 -25 0.5 -48.5t2.5 -41.5t4.5 -29t7.5 -11h71l-2 133q0 25 -4.5 59t-8.5 78q-1 16 4 32.5
t2 25.5q-1 12 -1 19v11q0 16 4 37.5t15 21.5t29 -31q7 0 9.5 8l4.5 15q18 -2 31.5 -5t21.5 -5q6 -1 10.5 6t8 15.5t7 16t7.5 7.5q1 0 7 -5t12 -5l4 5t9 10.5t10 9.5t8 3l5 -2q5 -2 5 -4v-18q0 -19 11 -42.5t11 -39.5q0 -10 -2 -32t-6 -56l-4 -38q-1 -7 -1 -14.5v-14.5
q0 -15 2 -28.5t2 -29.5q0 -7 -0.5 -14t-0.5 -13v-29q0 -9 0.5 -22t0.5 -26q0 -11 2 -25l2 -14l62 -3q3 0 3 41q0 20 -0.5 46t-1.5 53l-2 52t-2 43q8 27 8 51q0 11 -1.5 22t0.5 23l5 19q1 5 1 17t1 24t4 21.5t10 9.5q11 -7 28 -36q7 0 9.5 8l4.5 15q18 -2 31.5 -5t21.5 -5
q6 -1 10.5 6t8 15.5t7 16t7.5 7.5q1 0 7 -5t12 -5l4 5t9 10.5t10 9.5t8 3l5 -2q5 -2 5 -4v-18q0 -19 11 -42.5t11 -39.5q0 -10 -2 -31.5t-6 -56.5l-5 -46q-3 -21 -3 -28v-14q0 -11 12 -26.5t12 -29.5v-29q0 -14 1 -43t1 -44v-32l-2 -54q-1 -29 -1.5 -51.5t-2.5 -25.5l-6 -7
l-21 15q-8 -8 -8.5 -23t-12.5 -15q-3 0 -6.5 0.5t-8.5 0.5q-7 0 -20 -3.5t-26 -3.5q-22 0 -37 12.5t-14 12.5q-5 0 -11.5 -15t-13.5 -15q-2 0 -6.5 7t-8.5 7z" />
    <glyph glyph-name="FLW217" unicode="&#xd9;" horiz-adv-x="947" 
d="M622 -14l-56 -14q-6 2 0 14t14.5 25.5t14 23t-1.5 4.5l-32 11q-12 4 -23 4q-5 0 -16.5 -3t-24.5 -6t-24.5 -6t-17.5 -3q-11 0 -16 13.5t-16 20.5q-5 -6 -9.5 -15.5t-9.5 -10.5q-12 3 -19.5 6.5t-18.5 3.5q-13 0 -35 -7q-7 12 -28 12q-25 0 -42.5 -8t-41.5 -8
q-25 0 -34 -4.5t-25 -0.5q-10 3 -25 0.5t-37 -10.5h-4q3 0 -3.5 2.5t-16 6.5t-20 7.5t-15.5 5.5q1 3 3 8.5t2 11.5t-2 13t-10 11l4 37q1 9 1.5 26.5t0.5 25.5l2 193q0 25 -1 58t-5 76q-2 16 -3 29.5t-2 23.5l-9 80l2 5q1 3 8 3.5t6 0.5q4 0 12 -7t17 -16t17 -18t12 -13h11
q9 11 26.5 24.5t18.5 13.5q4 0 9.5 -5t8.5 -5q9 0 19.5 2t26.5 2q4 0 11 5t9 5h2q14 0 22.5 -16.5t14 -37t7.5 -37.5t2 -19q0 -3 -0.5 -18.5t-1.5 -37.5t-1.5 -49.5t-0.5 -54.5q0 -25 0.5 -48.5t2.5 -41.5t4.5 -29t7.5 -11h71l-2 133q0 25 -4.5 59t-8.5 78q-1 16 4 32.5
t2 25.5q-1 12 -1 19v11q0 16 4 37.5t15 21.5t29 -31q7 0 9.5 8l4.5 15q18 -2 31.5 -5t21.5 -5q6 -1 10.5 6t8 15.5t7 16t7.5 7.5q1 0 7 -5t12 -5l4 5t9 10.5t10 9.5t8 3l5 -2q5 -2 5 -4v-18q0 -19 11 -42.5t11 -39.5q0 -10 -2 -32t-6 -56l-4 -38q-1 -7 -1 -14.5v-14.5
q0 -15 2 -28.5t2 -29.5q0 -7 -0.5 -14t-0.5 -13v-29q0 -9 0.5 -22t0.5 -26q0 -11 2 -25l2 -14l62 -3q3 0 3 41q0 20 -0.5 46t-1.5 53l-2 52t-2 43q8 27 8 51q0 11 -1.5 22t0.5 23l5 19q1 5 1 17t1 24t4 21.5t10 9.5q11 -7 28 -36q7 0 9.5 8l4.5 15q18 -2 31.5 -5t21.5 -5
q6 -1 10.5 6t8 15.5t7 16t7.5 7.5q1 0 7 -5t12 -5l4 5t9 10.5t10 9.5t8 3l5 -2q5 -2 5 -4v-18q0 -19 11 -42.5t11 -39.5q0 -10 -2 -31.5t-6 -56.5l-5 -46q-3 -21 -3 -28v-14v-64v-87q0 -7 10.5 -5.5t23 5t23 5t10.5 -6.5q0 -10 -6.5 -22.5t-12 -20.5t-6.5 -9l-37 -58
q-8 -12 -11.5 -16.5t-7 -7.5t-8.5 -8.5t-15 -19.5l-15 -20.5l-33.5 -45.5t-36 -45.5t-23.5 -20.5q-22 0 -35.5 7t-29.5 17q-9 4 -19.5 -3.5t-8.5 -4.5z" />
    <glyph glyph-name="FLW217" unicode="&#x429;" horiz-adv-x="947" 
d="M622 -14l-56 -14q-6 2 0 14t14.5 25.5t14 23t-1.5 4.5l-32 11q-12 4 -23 4q-5 0 -16.5 -3t-24.5 -6t-24.5 -6t-17.5 -3q-11 0 -16 13.5t-16 20.5q-5 -6 -9.5 -15.5t-9.5 -10.5q-12 3 -19.5 6.5t-18.5 3.5q-13 0 -35 -7q-7 12 -28 12q-25 0 -42.5 -8t-41.5 -8
q-25 0 -34 -4.5t-25 -0.5q-10 3 -25 0.5t-37 -10.5h-4q3 0 -3.5 2.5t-16 6.5t-20 7.5t-15.5 5.5q1 3 3 8.5t2 11.5t-2 13t-10 11l4 37q1 9 1.5 26.5t0.5 25.5l2 193q0 25 -1 58t-5 76q-2 16 -3 29.5t-2 23.5l-9 80l2 5q1 3 8 3.5t6 0.5q4 0 12 -7t17 -16t17 -18t12 -13h11
q9 11 26.5 24.5t18.5 13.5q4 0 9.5 -5t8.5 -5q9 0 19.5 2t26.5 2q4 0 11 5t9 5h2q14 0 22.5 -16.5t14 -37t7.5 -37.5t2 -19q0 -3 -0.5 -18.5t-1.5 -37.5t-1.5 -49.5t-0.5 -54.5q0 -25 0.5 -48.5t2.5 -41.5t4.5 -29t7.5 -11h71l-2 133q0 25 -4.5 59t-8.5 78q-1 16 4 32.5
t2 25.5q-1 12 -1 19v11q0 16 4 37.5t15 21.5t29 -31q7 0 9.5 8l4.5 15q18 -2 31.5 -5t21.5 -5q6 -1 10.5 6t8 15.5t7 16t7.5 7.5q1 0 7 -5t12 -5l4 5t9 10.5t10 9.5t8 3l5 -2q5 -2 5 -4v-18q0 -19 11 -42.5t11 -39.5q0 -10 -2 -32t-6 -56l-4 -38q-1 -7 -1 -14.5v-14.5
q0 -15 2 -28.5t2 -29.5q0 -7 -0.5 -14t-0.5 -13v-29q0 -9 0.5 -22t0.5 -26q0 -11 2 -25l2 -14l62 -3q3 0 3 41q0 20 -0.5 46t-1.5 53l-2 52t-2 43q8 27 8 51q0 11 -1.5 22t0.5 23l5 19q1 5 1 17t1 24t4 21.5t10 9.5q11 -7 28 -36q7 0 9.5 8l4.5 15q18 -2 31.5 -5t21.5 -5
q6 -1 10.5 6t8 15.5t7 16t7.5 7.5q1 0 7 -5t12 -5l4 5t9 10.5t10 9.5t8 3l5 -2q5 -2 5 -4v-18q0 -19 11 -42.5t11 -39.5q0 -10 -2 -31.5t-6 -56.5l-5 -46q-3 -21 -3 -28v-14v-64v-87q0 -7 10.5 -5.5t23 5t23 5t10.5 -6.5q0 -10 -6.5 -22.5t-12 -20.5t-6.5 -9l-37 -58
q-8 -12 -11.5 -16.5t-7 -7.5t-8.5 -8.5t-15 -19.5l-15 -20.5l-33.5 -45.5t-36 -45.5t-23.5 -20.5q-22 0 -35.5 7t-29.5 17q-9 4 -19.5 -3.5t-8.5 -4.5z" />
    <glyph glyph-name="FLW218" unicode="&#xda;" horiz-adv-x="654" 
d="M248 68h4q4 0 12.5 2t12.5 2q11 0 12 -14.5t7 -17.5h2q8 0 13 5l13 11q35 0 69 6t67 16q5 4 9.5 9.5t12 13t20 18t34.5 26.5l50 36l16.5 12t8 8t3.5 9.5t3 17.5l7 42q10 56 10 76q0 43 -19 80l-6.5 16.5t-10.5 24l-12 24t-10 16.5q-9 10 -28.5 20t-41.5 18t-42.5 13
t-32.5 5q-19 0 -29 -3t-12 -1q0 5 1 21.5t2 37.5t3 42.5t3 34.5l4 37q3 32 -13 32h-2q-7 0 -15 -14t-12 -14q-2 0 -6 2t-7 2q-4 0 -9 -3t-7 -3h-3l-2.5 5t-6 11t-7.5 11t-7 5q-8 0 -13 -7t-8 -15t-6 -15t-8 -7q-7 0 -19 18q-7 8 -30 10.5t-48 2.5q-8 0 -8 -18q0 -2 -8 0.5
t-17.5 6.5t-18.5 7t-11 1l-27 -21q-3 -3 -5.5 0t-4.5 7.5l-4 9t-5 4.5h-19q-15 1 -20.5 -17.5t-5.5 -44.5q0 -20 2 -41.5t4 -36.5q1 -7 19.5 -11.5t40.5 -8.5t40.5 -8.5t19.5 -10.5v-27t0.5 -34t0.5 -30.5v-15.5q-3 -12 -6.5 -32t-7 -42.5t-5.5 -43.5t-2 -35q0 -23 4 -35
l-22 -196v-28l39 -3q10 10 16 25l12 28q5 14 6.5 4t1.5 -35q0 -11 3 -10.5t7.5 6t10 11.5t9.5 6q7 0 7 -27t6 -27q5 0 11 15t11 23zM450 331l-54 -46q-4 -5 -9 -6t-7 -1q-15 0 -15 40q0 10 1 24t3.5 26.5t5.5 21t7 8.5l11 -6q58 -27 58 -54q0 -6 -1 -7z" />
    <glyph glyph-name="FLW218" unicode="&#x42a;" horiz-adv-x="654" 
d="M248 68h4q4 0 12.5 2t12.5 2q11 0 12 -14.5t7 -17.5h2q8 0 13 5l13 11q35 0 69 6t67 16q5 4 9.5 9.5t12 13t20 18t34.5 26.5l50 36l16.5 12t8 8t3.5 9.5t3 17.5l7 42q10 56 10 76q0 43 -19 80l-6.5 16.5t-10.5 24l-12 24t-10 16.5q-9 10 -28.5 20t-41.5 18t-42.5 13
t-32.5 5q-19 0 -29 -3t-12 -1q0 5 1 21.5t2 37.5t3 42.5t3 34.5l4 37q3 32 -13 32h-2q-7 0 -15 -14t-12 -14q-2 0 -6 2t-7 2q-4 0 -9 -3t-7 -3h-3l-2.5 5t-6 11t-7.5 11t-7 5q-8 0 -13 -7t-8 -15t-6 -15t-8 -7q-7 0 -19 18q-7 8 -30 10.5t-48 2.5q-8 0 -8 -18q0 -2 -8 0.5
t-17.5 6.5t-18.5 7t-11 1l-27 -21q-3 -3 -5.5 0t-4.5 7.5l-4 9t-5 4.5h-19q-15 1 -20.5 -17.5t-5.5 -44.5q0 -20 2 -41.5t4 -36.5q1 -7 19.5 -11.5t40.5 -8.5t40.5 -8.5t19.5 -10.5v-27t0.5 -34t0.5 -30.5v-15.5q-3 -12 -6.5 -32t-7 -42.5t-5.5 -43.5t-2 -35q0 -23 4 -35
l-22 -196v-28l39 -3q10 10 16 25l12 28q5 14 6.5 4t1.5 -35q0 -11 3 -10.5t7.5 6t10 11.5t9.5 6q7 0 7 -27t6 -27q5 0 11 15t11 23zM450 331l-54 -46q-4 -5 -9 -6t-7 -1q-15 0 -15 40q0 10 1 24t3.5 26.5t5.5 21t7 8.5l11 -6q58 -27 58 -54q0 -6 -1 -7z" />
    <glyph glyph-name="FLW219" unicode="&#xdb;" horiz-adv-x="694" 
d="M160 68q-6 -9 -11.5 -23.5t-10.5 -14.5q-6 0 -6 27t-7 27q-4 0 -9.5 -6t-10 -11.5t-7.5 -6t-3 10.5q0 25 -1.5 35t-6.5 -4l-12 -28q-6 -15 -16 -25l-39 3v28l22 196q-4 12 -4 35q0 14 2.5 50t6 76.5t7.5 75.5t7 47q0 7 -2.5 37.5t-6.5 64l-7.5 60.5t-6.5 27h2
q6 0 13.5 -14t15.5 -14h2q4 0 5.5 6t1.5 8q0 18 8 18q25 0 48 -2.5t30 -10.5q12 -18 19 -18q5 0 8 7t6 15t8 15t13 7q3 0 7 -5t7.5 -11t6 -11l2.5 -5h3q2 0 7 3t9 3q3 0 7 -2t6 -2q4 0 12 14t15 14h2q16 0 13 -32l-4 -37q-1 -13 -3 -34.5t-3 -42.5t-2 -37.5t-1 -21.5
q2 -2 12 1t29 3q12 0 32.5 -5t42.5 -13t41.5 -18t28.5 -20q4 -5 10 -16.5l12 -24t10.5 -24l6.5 -16.5q19 -37 19 -80q0 -20 -10 -76l-7 -42q-2 -12 -3 -17.5t-3.5 -9.5t-8 -8l-16.5 -12l-50 -36q-22 -16 -34.5 -26.5t-20 -18t-12 -13t-9.5 -9.5q-33 -10 -67 -16t-69 -6
l-13 -11q-5 -5 -13 -5h-2q-3 0 -4 5t-2.5 11t-4 11t-8.5 5q-4 0 -12.5 -2t-12.5 -2h-4zM362 331q1 1 1 7q0 27 -58 54l-11 6q-4 2 -7 -7t-5 -22t-3.5 -27.5t-1.5 -23.5q0 -40 15 -40q2 0 7 1t9 6zM630 737q2 2 8.5 11t13.5 9h3q4 0 4 -26q0 -6 -3.5 -37.5t-8 -68.5t-8 -68.5
t-3.5 -37.5v-22q11 -32 18 -83t11.5 -108t6.5 -112t2 -95q-3 -17 -23 -26.5t-53 -5.5q-2 -10 -5.5 -8t-10.5 7t-17.5 8.5t-26.5 -2.5l-11 -30q-1 -4 -10 5.5t-19 22l-19 24t-12 11.5q5 0 13 7.5t16 16t13.5 15.5t4.5 7q28 28 38.5 56t14.5 67l5 58q2 25 -4 55.5t-18 59.5
t-27.5 53t-32.5 34l-70 45q-10 6 -5.5 19.5t3.5 24.5l-4 47l-6 51l4 9q0 1 4 -4.5l9.5 -12.5l10.5 -14t8 -10l18 66q3 0 8.5 -10l12 -22t12.5 -21.5t11 -9.5q7 0 11.5 6t7.5 15.5t6 20.5l6 21h5q13 0 20 -10v-9q0 -22 6 -22q3 0 8 8.5l11 19t11.5 19t8.5 8.5q5 0 9 -9
t14 -23z" />
    <glyph glyph-name="FLW219" unicode="&#x42b;" horiz-adv-x="694" 
d="M160 68q-6 -9 -11.5 -23.5t-10.5 -14.5q-6 0 -6 27t-7 27q-4 0 -9.5 -6t-10 -11.5t-7.5 -6t-3 10.5q0 25 -1.5 35t-6.5 -4l-12 -28q-6 -15 -16 -25l-39 3v28l22 196q-4 12 -4 35q0 14 2.5 50t6 76.5t7.5 75.5t7 47q0 7 -2.5 37.5t-6.5 64l-7.5 60.5t-6.5 27h2
q6 0 13.5 -14t15.5 -14h2q4 0 5.5 6t1.5 8q0 18 8 18q25 0 48 -2.5t30 -10.5q12 -18 19 -18q5 0 8 7t6 15t8 15t13 7q3 0 7 -5t7.5 -11t6 -11l2.5 -5h3q2 0 7 3t9 3q3 0 7 -2t6 -2q4 0 12 14t15 14h2q16 0 13 -32l-4 -37q-1 -13 -3 -34.5t-3 -42.5t-2 -37.5t-1 -21.5
q2 -2 12 1t29 3q12 0 32.5 -5t42.5 -13t41.5 -18t28.5 -20q4 -5 10 -16.5l12 -24t10.5 -24l6.5 -16.5q19 -37 19 -80q0 -20 -10 -76l-7 -42q-2 -12 -3 -17.5t-3.5 -9.5t-8 -8l-16.5 -12l-50 -36q-22 -16 -34.5 -26.5t-20 -18t-12 -13t-9.5 -9.5q-33 -10 -67 -16t-69 -6
l-13 -11q-5 -5 -13 -5h-2q-3 0 -4 5t-2.5 11t-4 11t-8.5 5q-4 0 -12.5 -2t-12.5 -2h-4zM362 331q1 1 1 7q0 27 -58 54l-11 6q-4 2 -7 -7t-5 -22t-3.5 -27.5t-1.5 -23.5q0 -40 15 -40q2 0 7 1t9 6zM630 737q2 2 8.5 11t13.5 9h3q4 0 4 -26q0 -6 -3.5 -37.5t-8 -68.5t-8 -68.5
t-3.5 -37.5v-22q11 -32 18 -83t11.5 -108t6.5 -112t2 -95q-3 -17 -23 -26.5t-53 -5.5q-2 -10 -5.5 -8t-10.5 7t-17.5 8.5t-26.5 -2.5l-11 -30q-1 -4 -10 5.5t-19 22l-19 24t-12 11.5q5 0 13 7.5t16 16t13.5 15.5t4.5 7q28 28 38.5 56t14.5 67l5 58q2 25 -4 55.5t-18 59.5
t-27.5 53t-32.5 34l-70 45q-10 6 -5.5 19.5t3.5 24.5l-4 47l-6 51l4 9q0 1 4 -4.5l9.5 -12.5l10.5 -14t8 -10l18 66q3 0 8.5 -10l12 -22t12.5 -21.5t11 -9.5q7 0 11.5 6t7.5 15.5t6 20.5l6 21h5q13 0 20 -10v-9q0 -22 6 -22q3 0 8 8.5l11 19t11.5 19t8.5 8.5q5 0 9 -9
t14 -23z" />
    <glyph glyph-name="FLW220" unicode="&#xdc;" horiz-adv-x="566" 
d="M160 68h4q4 0 12.5 2t12.5 2q11 0 12 -14.5t7 -17.5h2q8 0 13 5l13 11q35 0 69 6t67 16q5 4 9.5 9.5t12 13t20 18t34.5 26.5l50 36l16.5 12t8 8t3.5 9.5t3 17.5l7 42q10 56 10 76q0 43 -19 80l-6.5 16.5t-10.5 24l-12 24t-10 16.5q-9 10 -28.5 20t-41.5 18t-42.5 13
t-32.5 5q-19 0 -29 -3t-12 -1q0 5 1 21.5t2 37.5t3 42.5t3 34.5l4 37q3 32 -13 32h-2q-7 0 -15 -14t-12 -14q-2 0 -6 2t-7 2q-4 0 -9 -3t-7 -3h-3l-2.5 5t-6 11t-7.5 11t-7 5q-8 0 -13 -7t-8 -15t-6 -15t-8 -7q-7 0 -19 18q-7 8 -30 10.5t-48 2.5q-8 0 -8 -18q0 -8 -7 -14
h-2q-8 0 -15.5 14t-13.5 14h-2q3 0 6.5 -27l7.5 -60.5t6.5 -64t2.5 -37.5q-3 -12 -7 -47t-7.5 -75.5t-6 -76.5t-2.5 -50q0 -23 4 -35l-22 -196v-28l39 -3q10 10 16 25l12 28q5 14 6.5 4t1.5 -35q0 -11 3 -10.5t7.5 6t10 11.5t9.5 6q7 0 7 -27t6 -27q5 0 11 15t11 23z
M362 331l-54 -46q-4 -5 -9 -6t-7 -1q-15 0 -15 40q0 10 1 24t3.5 26.5t5.5 21t7 8.5l11 -6q58 -27 58 -54q0 -6 -1 -7z" />
    <glyph glyph-name="FLW220" unicode="&#x42c;" horiz-adv-x="566" 
d="M160 68h4q4 0 12.5 2t12.5 2q11 0 12 -14.5t7 -17.5h2q8 0 13 5l13 11q35 0 69 6t67 16q5 4 9.5 9.5t12 13t20 18t34.5 26.5l50 36l16.5 12t8 8t3.5 9.5t3 17.5l7 42q10 56 10 76q0 43 -19 80l-6.5 16.5t-10.5 24l-12 24t-10 16.5q-9 10 -28.5 20t-41.5 18t-42.5 13
t-32.5 5q-19 0 -29 -3t-12 -1q0 5 1 21.5t2 37.5t3 42.5t3 34.5l4 37q3 32 -13 32h-2q-7 0 -15 -14t-12 -14q-2 0 -6 2t-7 2q-4 0 -9 -3t-7 -3h-3l-2.5 5t-6 11t-7.5 11t-7 5q-8 0 -13 -7t-8 -15t-6 -15t-8 -7q-7 0 -19 18q-7 8 -30 10.5t-48 2.5q-8 0 -8 -18q0 -8 -7 -14
h-2q-8 0 -15.5 14t-13.5 14h-2q3 0 6.5 -27l7.5 -60.5t6.5 -64t2.5 -37.5q-3 -12 -7 -47t-7.5 -75.5t-6 -76.5t-2.5 -50q0 -23 4 -35l-22 -196v-28l39 -3q10 10 16 25l12 28q5 14 6.5 4t1.5 -35q0 -11 3 -10.5t7.5 6t10 11.5t9.5 6q7 0 7 -27t6 -27q5 0 11 15t11 23z
M362 331l-54 -46q-4 -5 -9 -6t-7 -1q-15 0 -15 40q0 10 1 24t3.5 26.5t5.5 21t7 8.5l11 -6q58 -27 58 -54q0 -6 -1 -7z" />
    <glyph glyph-name="FLW221" unicode="&#xdd;" horiz-adv-x="508" 
d="M202 426v1q6 -6 7.5 1t0.5 15.5t-1 9.5q-7 21 -25 32t-39 16.5t-40.5 7t-30.5 4.5q-9 2 -19 0l-17.5 -3.5t-11.5 0t-2 10.5q-6 6 -2.5 13t10.5 12.5t12 9t2 3.5q3 0 10.5 -1t9.5 -1q18 0 18 10q0 4 -2.5 8t-2.5 8v2q0 1 9 5.5t9 9.5q-11 11 -25.5 20.5t-15.5 15.5h22
q4 0 4 8q0 16 13 16q9 0 20.5 -4.5t20.5 -4.5q17 0 16.5 6t-8 13.5t-16.5 14.5t-9 9t5 2q6 0 14.5 -1.5t13.5 -1.5q13 0 10.5 6.5t-11 15t-18 15.5t-9.5 9v4q0 -1 7.5 -4t16.5 -6t16.5 -5l7.5 -2l35 -15l5 5q5 5 -6.5 14t-15.5 11q74 -25 154 -108q50 0 98 -113
q7 -15 15 -39.5t15 -51t11.5 -50.5t4.5 -38q0 -21 -6 -41l-34 -51.5t-26 -37.5t-24 -29t-27 -26q-17 -3 -38.5 -17t-44 -30.5l-43 -32t-35.5 -22.5l-36.5 -16t-35.5 -7l-5 6l21 33q-9 7 -24 11l-26 9q-14 5 -21 9t-6 10v2q0 3 8.5 8.5t19.5 11.5t19.5 12t8.5 11t-19 4
l-15 -2q-3 -1 -8 -1h-7q-14 0 -14 3v2q0 5 -7 13t-7 15q0 10 1.5 23t1.5 20q0 10 16 15t34.5 8.5t33 6t12.5 6.5q0 1 10.5 7l24 13.5t24.5 15.5t11 14q0 10 -36 10h-40q-3 0 -13 2.5t-22 5l-24 5t-19 2.5q-19 0 -23.5 -2.5t-5.5 2.5l-3 16q-1 5 2 5.5t8 10.5l9 16
q3 5 2.5 5.5t-0.5 5.5q0 6 6 12t10 13q-1 1 -0.5 1t-0.5 1q0 5 7 7t17 2t20.5 -1t18.5 -2.5t12 -2t-1 0.5q17 0 28 -3t25 -2z" />
    <glyph glyph-name="FLW221" unicode="&#x42d;" horiz-adv-x="508" 
d="M202 426v1q6 -6 7.5 1t0.5 15.5t-1 9.5q-7 21 -25 32t-39 16.5t-40.5 7t-30.5 4.5q-9 2 -19 0l-17.5 -3.5t-11.5 0t-2 10.5q-6 6 -2.5 13t10.5 12.5t12 9t2 3.5q3 0 10.5 -1t9.5 -1q18 0 18 10q0 4 -2.5 8t-2.5 8v2q0 1 9 5.5t9 9.5q-11 11 -25.5 20.5t-15.5 15.5h22
q4 0 4 8q0 16 13 16q9 0 20.5 -4.5t20.5 -4.5q17 0 16.5 6t-8 13.5t-16.5 14.5t-9 9t5 2q6 0 14.5 -1.5t13.5 -1.5q13 0 10.5 6.5t-11 15t-18 15.5t-9.5 9v4q0 -1 7.5 -4t16.5 -6t16.5 -5l7.5 -2l35 -15l5 5q5 5 -6.5 14t-15.5 11q74 -25 154 -108q50 0 98 -113
q7 -15 15 -39.5t15 -51t11.5 -50.5t4.5 -38q0 -21 -6 -41l-34 -51.5t-26 -37.5t-24 -29t-27 -26q-17 -3 -38.5 -17t-44 -30.5l-43 -32t-35.5 -22.5l-36.5 -16t-35.5 -7l-5 6l21 33q-9 7 -24 11l-26 9q-14 5 -21 9t-6 10v2q0 3 8.5 8.5t19.5 11.5t19.5 12t8.5 11t-19 4
l-15 -2q-3 -1 -8 -1h-7q-14 0 -14 3v2q0 5 -7 13t-7 15q0 10 1.5 23t1.5 20q0 10 16 15t34.5 8.5t33 6t12.5 6.5q0 1 10.5 7l24 13.5t24.5 15.5t11 14q0 10 -36 10h-40q-3 0 -13 2.5t-22 5l-24 5t-19 2.5q-19 0 -23.5 -2.5t-5.5 2.5l-3 16q-1 5 2 5.5t8 10.5l9 16
q3 5 2.5 5.5t-0.5 5.5q0 6 6 12t10 13q-1 1 -0.5 1t-0.5 1q0 5 7 7t17 2t20.5 -1t18.5 -2.5t12 -2t-1 0.5q17 0 28 -3t25 -2z" />
    <glyph glyph-name="FLW222" unicode="&#xde;" horiz-adv-x="944" 
d="M252 461l28 -20q5 31 11.5 57.5t14.5 48.5q48 129 182 185h2q9 0 17 -9q7 -8 24 -5.5t37.5 9l40.5 13t32 6.5q11 0 13 -1l19 -15q122 -22 187 -93q24 -27 24 -46q0 -6 -1 -8q41 -134 41 -271q-10 -48 -15 -63q-10 -35 -22.5 -58.5t-28.5 -39.5q-10 -1 -20.5 -0.5
t-19.5 0.5q-3 0 -11 -2q-132 -45 -233 -45q-26 11 -40 28q-45 0 -82.5 23.5t-86.5 65.5q-4 3 -14.5 12t-23 23t-24 31t-15.5 35l-36 23l-13 -2q5 -46 19 -82.5t28 -88.5q-3 -17 -34 -27t-64 -6q-3 -19 -19.5 -27t-48.5 -19h-2q-4 0 -8.5 6.5t-8.5 14t-7 14t-6 6.5
q-5 0 -16.5 -8t-15.5 -8q-8 0 -13 23.5t-8 53t-4.5 56t-1.5 32.5l-6 35q-1 4 -1 12v17v41v68v30l-2 54v21.5t2 20.5l1 49q1 13 4 21t-1 32l18 2l8 30q3 0 8.5 -10l12 -22t12.5 -21.5t11 -9.5q14 0 19 21.5t12 41.5h5q13 0 20 -10v-9q0 -22 6 -22q3 0 8 8.5l11 19t11.5 19
t8.5 8.5q7 0 12 -6t33 -6h3q2 0 12.5 -7t10.5 -20q0 -5 -3.5 -31t-8 -56l-8.5 -56t-5 -31l-7 -42q4 -13 5 -12t11 -2zM690 486l-44 42q-28 0 -58 -8q-10 -3 -25.5 -7t-30 -12.5t-24.5 -24t-10 -42.5q0 -15 6.5 -29.5t16.5 -26.5t21 -21.5t20 -13.5h14q4 0 10 0.5t11 -0.5
l26 -2q15 -1 28.5 3t21.5 14l21 55q6 17 6 35q0 22 -10 38zM864 287l-6 -4l-42 -74q4 -6 12 -6h7q16 0 16.5 8.5t6.5 12.5l10 47q2 9 -4 16z" />
    <glyph glyph-name="FLW222" unicode="&#x42e;" horiz-adv-x="944" 
d="M252 461l28 -20q5 31 11.5 57.5t14.5 48.5q48 129 182 185h2q9 0 17 -9q7 -8 24 -5.5t37.5 9l40.5 13t32 6.5q11 0 13 -1l19 -15q122 -22 187 -93q24 -27 24 -46q0 -6 -1 -8q41 -134 41 -271q-10 -48 -15 -63q-10 -35 -22.5 -58.5t-28.5 -39.5q-10 -1 -20.5 -0.5
t-19.5 0.5q-3 0 -11 -2q-132 -45 -233 -45q-26 11 -40 28q-45 0 -82.5 23.5t-86.5 65.5q-4 3 -14.5 12t-23 23t-24 31t-15.5 35l-36 23l-13 -2q5 -46 19 -82.5t28 -88.5q-3 -17 -34 -27t-64 -6q-3 -19 -19.5 -27t-48.5 -19h-2q-4 0 -8.5 6.5t-8.5 14t-7 14t-6 6.5
q-5 0 -16.5 -8t-15.5 -8q-8 0 -13 23.5t-8 53t-4.5 56t-1.5 32.5l-6 35q-1 4 -1 12v17v41v68v30l-2 54v21.5t2 20.5l1 49q1 13 4 21t-1 32l18 2l8 30q3 0 8.5 -10l12 -22t12.5 -21.5t11 -9.5q14 0 19 21.5t12 41.5h5q13 0 20 -10v-9q0 -22 6 -22q3 0 8 8.5l11 19t11.5 19
t8.5 8.5q7 0 12 -6t33 -6h3q2 0 12.5 -7t10.5 -20q0 -5 -3.5 -31t-8 -56l-8.5 -56t-5 -31l-7 -42q4 -13 5 -12t11 -2zM690 486l-44 42q-28 0 -58 -8q-10 -3 -25.5 -7t-30 -12.5t-24.5 -24t-10 -42.5q0 -15 6.5 -29.5t16.5 -26.5t21 -21.5t20 -13.5h14q4 0 10 0.5t11 -0.5
l26 -2q15 -1 28.5 3t21.5 14l21 55q6 17 6 35q0 22 -10 38zM864 287l-6 -4l-42 -74q4 -6 12 -6h7q16 0 16.5 8.5t6.5 12.5l10 47q2 9 -4 16z" />
    <glyph glyph-name="FLW223" unicode="&#xdf;" horiz-adv-x="533" 
d="M283 772l-92 -55q-17 -10 -39.5 -29t-52.5 -42q-68 -52 -79 -112q10 -8 19 -36t19 -50l65 -80q0 -14 -1.5 -22.5t-5.5 -17.5t-11.5 -20.5t-19.5 -31.5l-59 -98l-4 -24q11 -4 31 -4q27 0 55 11q4 -1 12 -16t15 -15q42 13 47 13q10 0 17 -6.5t16 -6.5q19 0 35 28.5t35 55.5
q12 -2 12 -18v-16q0 -6 3.5 -20t7.5 -14q9 0 9 10v8q0 14 6.5 10t13.5 -4q4 0 8 0.5t9 1.5q2 -1 9 -8l15 -15.5t15 -15t9 -6.5q4 0 10 5.5l13 12.5t14 12.5t13 5.5l9 -2l38 -19l4 8q3 6 3.5 17.5t0.5 24.5v29v22t-1 27q-1 38 -3 49q0 22 2 32.5t2 33.5q0 14 -2 42.5t-2 42.5
v26q0 4 2 10t2 8q-1 9 -1.5 15.5t-0.5 10.5q0 13 1.5 28.5t2.5 29.5t2.5 25.5t1.5 15.5q0 28 -8 49q0 19 4 40q0 26 -26 26q-3 0 -12 -2.5l-19 -5.5t-17.5 -5.5l-7.5 -2.5q-3 0 -11 7t-13 7q-6 0 -13 -9l-13 -16h-4q-15 0 -21 7.5t-11 17t-12.5 17t-25.5 7.5h-8q-2 0 -12 -4
zM303 572q5 -17 5 -40q0 -32 -3 -69l-4 -7q-2 -5 -12.5 3t-22 20t-21 24t-9.5 15q29 47 67 54z" />
    <glyph glyph-name="FLW223" unicode="&#x42f;" horiz-adv-x="533" 
d="M283 772l-92 -55q-17 -10 -39.5 -29t-52.5 -42q-68 -52 -79 -112q10 -8 19 -36t19 -50l65 -80q0 -14 -1.5 -22.5t-5.5 -17.5t-11.5 -20.5t-19.5 -31.5l-59 -98l-4 -24q11 -4 31 -4q27 0 55 11q4 -1 12 -16t15 -15q42 13 47 13q10 0 17 -6.5t16 -6.5q19 0 35 28.5t35 55.5
q12 -2 12 -18v-16q0 -6 3.5 -20t7.5 -14q9 0 9 10v8q0 14 6.5 10t13.5 -4q4 0 8 0.5t9 1.5q2 -1 9 -8l15 -15.5t15 -15t9 -6.5q4 0 10 5.5l13 12.5t14 12.5t13 5.5l9 -2l38 -19l4 8q3 6 3.5 17.5t0.5 24.5v29v22t-1 27q-1 38 -3 49q0 22 2 32.5t2 33.5q0 14 -2 42.5t-2 42.5
v26q0 4 2 10t2 8q-1 9 -1.5 15.5t-0.5 10.5q0 13 1.5 28.5t2.5 29.5t2.5 25.5t1.5 15.5q0 28 -8 49q0 19 4 40q0 26 -26 26q-3 0 -12 -2.5l-19 -5.5t-17.5 -5.5l-7.5 -2.5q-3 0 -11 7t-13 7q-6 0 -13 -9l-13 -16h-4q-15 0 -21 7.5t-11 17t-12.5 17t-25.5 7.5h-8q-2 0 -12 -4
zM303 572q5 -17 5 -40q0 -32 -3 -69l-4 -7q-2 -5 -12.5 3t-22 20t-21 24t-9.5 15q29 47 67 54z" />
    <glyph glyph-name="FLW224" unicode="&#xe0;" horiz-adv-x="757" 
d="M426 740q-6 -12 -6 -25v-7q0 -6 8 -6.5t18 1t19 3.5t10 2q4 0 13.5 -4t13.5 -4q7 0 11.5 7t13.5 7q23 0 37 -24t24.5 -61t18.5 -82t17 -87l18 -78l10.5 -53t20.5 -72l63 -174q3 -8 -3.5 -12.5t-10.5 -4.5t-12.5 4.5l-17.5 9.5t-16 9.5t-8 4.5q-10 0 -21 -17q-4 0 -10.5 8
t-13 15t-11.5 9t-5 -9q0 1 2 -9v-3q0 -9 -10 -11.5t-19 -4.5q-6 0 -12 6.5t-12 14l-11 14t-8 6.5q-5 0 -6.5 -5.5t-2 -11.5t-1.5 -11.5t-5 -5.5t-10 12t-13.5 29.5l-15 36.5t-14.5 33q-41 0 -78 -2t-71 -6q-6 -4 -10.5 -21t-13 -35.5t-23.5 -33t-41 -14.5q-9 0 -16 -6h-2
q-6 0 -8 5l-8 7q-45 -18 -71 -47l-7 -1q1 10 1.5 17t0.5 11q0 14 -6 12t-12 -2t-8 5v2q0 5 4 13t4 10q0 11 -8 8q-12 -4 -35 -27l-10 -10l-31 1q0 17 46 78q20 8 33.5 38l27.5 59l16 83q58 142 85 262q28 69 70 129h2q5 0 14.5 -2.5t13.5 -2.5q2 2 10 12t15 10h4
q3 -25 11 -25q4 0 9 5.5l10.5 12t11.5 12t11 5.5q7 0 16 -12zM414 475q-5 -6 -36 -79q0 -18 9 -26h8q2 0 5.5 1t7.5 -1h16q15 0 21.5 8t6.5 19q0 12 -8 28l-9 19l-6 20q-3 10 -15 11z" />
    <glyph glyph-name="FLW224" unicode="&#x430;" horiz-adv-x="757" 
d="M426 740q-6 -12 -6 -25v-7q0 -6 8 -6.5t18 1t19 3.5t10 2q4 0 13.5 -4t13.5 -4q7 0 11.5 7t13.5 7q23 0 37 -24t24.5 -61t18.5 -82t17 -87l18 -78l10.5 -53t20.5 -72l63 -174q3 -8 -3.5 -12.5t-10.5 -4.5t-12.5 4.5l-17.5 9.5t-16 9.5t-8 4.5q-10 0 -21 -17q-4 0 -10.5 8
t-13 15t-11.5 9t-5 -9q0 1 2 -9v-3q0 -9 -10 -11.5t-19 -4.5q-6 0 -12 6.5t-12 14l-11 14t-8 6.5q-5 0 -6.5 -5.5t-2 -11.5t-1.5 -11.5t-5 -5.5t-10 12t-13.5 29.5l-15 36.5t-14.5 33q-41 0 -78 -2t-71 -6q-6 -4 -10.5 -21t-13 -35.5t-23.5 -33t-41 -14.5q-9 0 -16 -6h-2
q-6 0 -8 5l-8 7q-45 -18 -71 -47l-7 -1q1 10 1.5 17t0.5 11q0 14 -6 12t-12 -2t-8 5v2q0 5 4 13t4 10q0 11 -8 8q-12 -4 -35 -27l-10 -10l-31 1q0 17 46 78q20 8 33.5 38l27.5 59l16 83q58 142 85 262q28 69 70 129h2q5 0 14.5 -2.5t13.5 -2.5q2 2 10 12t15 10h4
q3 -25 11 -25q4 0 9 5.5l10.5 12t11.5 12t11 5.5q7 0 16 -12zM414 475q-5 -6 -36 -79q0 -18 9 -26h8q2 0 5.5 1t7.5 -1h16q15 0 21.5 8t6.5 19q0 12 -8 28l-9 19l-6 20q-3 10 -15 11z" />
    <glyph glyph-name="FLW225" unicode="&#xe1;" horiz-adv-x="560" 
d="M264 556q-6 -6 -6 -20q0 -7 3 -19t3 -19v-16q0 -8 5.5 -8.5t13 1.5t16.5 3.5t16 -1.5l34 -15.5t35 -18t38.5 -25t45.5 -35.5l22 -31l16 -25q13 -20 23.5 -46.5t10.5 -54.5q-26 -89 -83 -124q-23 -14 -46 -14q-27 0 -50 4l-7 1h-17q-3 0 -6.5 -2t-4.5 -2q-14 0 -31.5 3.5
t-35.5 8t-34 8t-27 3.5l-5.5 -3.5t-12.5 -7t-14.5 -6.5t-11.5 -3h-2l-10 16q-5 8 -12 8h-3l-15 -24q-8 -12 -37 -14l-19 -1q-12 -1 -16.5 9t-4.5 26q0 19 3.5 42.5t3.5 43.5v60q0 12 2 31t5 40t5 40t2 31q0 11 -4.5 31t-5.5 29q-4 20 -4 92v76q0 3 -11 11t-11 13
q0 2 9.5 9.5t14.5 10.5l2 30q8 0 37 8q39 -21 59 -21q2 -2 6 3t4 8q0 13 8 12.5t19 -6t20.5 -12t12.5 -6.5q4 0 6.5 5.5t5 12.5t5 12.5t7.5 5.5t12 -7.5l12 -12.5l157 -4q-2 0 0.5 -3.5t7.5 -7.5q11 -8 6 -12.5t-14 -8.5t-16 -9t2 -14l25 -27q7 -8 3.5 -12t-10.5 -7.5
t-14 -6t-7 -7.5q0 -6 19 -17q0 -12 -16 -12q-14 0 -33 6t-26 6q-24 0 -48 -6t-32 -6zM260 322v-23q0 -3 -1 -9.5t-1 -9.5q0 -16 4 -31.5t16 -15.5q11 0 22.5 10.5t11.5 21.5q0 6 -5.5 16.5t-13 20.5t-16.5 16t-17 4z" />
    <glyph glyph-name="FLW225" unicode="&#x431;" horiz-adv-x="560" 
d="M264 556q-6 -6 -6 -20q0 -7 3 -19t3 -19v-16q0 -8 5.5 -8.5t13 1.5t16.5 3.5t16 -1.5l34 -15.5t35 -18t38.5 -25t45.5 -35.5l22 -31l16 -25q13 -20 23.5 -46.5t10.5 -54.5q-26 -89 -83 -124q-23 -14 -46 -14q-27 0 -50 4l-7 1h-17q-3 0 -6.5 -2t-4.5 -2q-14 0 -31.5 3.5
t-35.5 8t-34 8t-27 3.5l-5.5 -3.5t-12.5 -7t-14.5 -6.5t-11.5 -3h-2l-10 16q-5 8 -12 8h-3l-15 -24q-8 -12 -37 -14l-19 -1q-12 -1 -16.5 9t-4.5 26q0 19 3.5 42.5t3.5 43.5v60q0 12 2 31t5 40t5 40t2 31q0 11 -4.5 31t-5.5 29q-4 20 -4 92v76q0 3 -11 11t-11 13
q0 2 9.5 9.5t14.5 10.5l2 30q8 0 37 8q39 -21 59 -21q2 -2 6 3t4 8q0 13 8 12.5t19 -6t20.5 -12t12.5 -6.5q4 0 6.5 5.5t5 12.5t5 12.5t7.5 5.5t12 -7.5l12 -12.5l157 -4q-2 0 0.5 -3.5t7.5 -7.5q11 -8 6 -12.5t-14 -8.5t-16 -9t2 -14l25 -27q7 -8 3.5 -12t-10.5 -7.5
t-14 -6t-7 -7.5q0 -6 19 -17q0 -12 -16 -12q-14 0 -33 6t-26 6q-24 0 -48 -6t-32 -6zM260 322v-23q0 -3 -1 -9.5t-1 -9.5q0 -16 4 -31.5t16 -15.5q11 0 22.5 10.5t11.5 21.5q0 6 -5.5 16.5t-13 20.5t-16.5 16t-17 4z" />
    <glyph glyph-name="FLW226" unicode="&#xe2;" 
d="M260 704l159 -4q-8 0 6 -11q23 -17 44 -36.5t37 -38.5l17 -19q15 -18 28 -35.5t13 -31.5t-12 -37t-24 -37l-60 -71v-2q0 -12 38 -59q34 -40 34 -96q-26 -89 -83 -124q-23 -14 -46 -14q-27 0 -50 4l-7 1h-17q-3 0 -6.5 -2t-4.5 -2q-14 0 -31.5 3.5t-35.5 8t-34 8t-27 3.5
l-5.5 -3.5t-12.5 -7t-14.5 -6.5t-11.5 -3h-2l-10 16q-5 8 -12 8h-3l-15 -24q-8 -12 -37 -14l-19 -1q-12 -1 -16.5 9t-4.5 26q0 19 3.5 42.5t3.5 43.5v60q0 12 2 31t5 40t5 40t2 31q0 11 -4.5 31t-5.5 29q-4 20 -4 92v76q0 3 -11 11t-11 13q0 2 9.5 9.5t14.5 10.5l2 30
q8 0 37 8q39 -21 59 -21q2 -2 6 3t4 8q0 13 8 12.5t19 -6t20.5 -12t12.5 -6.5q4 0 6.5 5.5t5 12.5t5 12.5t7.5 5.5t12 -7.5zM264 556q-6 -6 -6 -20q0 -7 3 -19t3 -19v-16q0 -9 6.5 -7t14.5 9t14.5 17.5t6.5 17.5q0 13 -14.5 25t-27.5 12zM260 322v-23q0 -3 -1 -9.5t-1 -9.5
q0 -16 4 -31.5t16 -15.5q11 0 22.5 10.5t11.5 21.5q0 6 -5.5 16.5t-13 20.5t-16.5 16t-17 4z" />
    <glyph glyph-name="FLW226" unicode="&#x432;" 
d="M260 704l159 -4q-8 0 6 -11q23 -17 44 -36.5t37 -38.5l17 -19q15 -18 28 -35.5t13 -31.5t-12 -37t-24 -37l-60 -71v-2q0 -12 38 -59q34 -40 34 -96q-26 -89 -83 -124q-23 -14 -46 -14q-27 0 -50 4l-7 1h-17q-3 0 -6.5 -2t-4.5 -2q-14 0 -31.5 3.5t-35.5 8t-34 8t-27 3.5
l-5.5 -3.5t-12.5 -7t-14.5 -6.5t-11.5 -3h-2l-10 16q-5 8 -12 8h-3l-15 -24q-8 -12 -37 -14l-19 -1q-12 -1 -16.5 9t-4.5 26q0 19 3.5 42.5t3.5 43.5v60q0 12 2 31t5 40t5 40t2 31q0 11 -4.5 31t-5.5 29q-4 20 -4 92v76q0 3 -11 11t-11 13q0 2 9.5 9.5t14.5 10.5l2 30
q8 0 37 8q39 -21 59 -21q2 -2 6 3t4 8q0 13 8 12.5t19 -6t20.5 -12t12.5 -6.5q4 0 6.5 5.5t5 12.5t5 12.5t7.5 5.5t12 -7.5zM264 556q-6 -6 -6 -20q0 -7 3 -19t3 -19v-16q0 -9 6.5 -7t14.5 9t14.5 17.5t6.5 17.5q0 13 -14.5 25t-27.5 12zM260 322v-23q0 -3 -1 -9.5t-1 -9.5
q0 -16 4 -31.5t16 -15.5q11 0 22.5 10.5t11.5 21.5q0 6 -5.5 16.5t-13 20.5t-16.5 16t-17 4z" />
    <glyph glyph-name="FLW227" unicode="&#xe3;" horiz-adv-x="484" 
d="M128 158q1 3 4 4h2q2 0 8 -11t13 -11q16 0 27 6t19 13t13.5 13t9.5 6q7 0 12.5 -6t11.5 -6q9 0 10 1l4 10l-8 213q0 -6 1 -1.5t1.5 14.5l1 21t0.5 17v11q0 14 -1 21t19 7q7 0 23 -4.5t24 -4.5l56 -10q13 -2 27 -4.5t28 -4.5h12q10 0 12 6q-2 8 -9 14t-15 10.5t-14 7.5
t-6 5q0 3 25 3q15 0 13.5 3.5t-9.5 8.5t-17.5 12t-9.5 14q0 4 6 10h16q23 0 26 11q-5 4 -17.5 7t-28.5 6l-33 6t-31 6v0q0 5 8.5 8t20 5.5t23.5 3.5t20 2v2q0 1 -12 6.5t-25.5 11t-25 9.5t-9.5 2q0 3 7 6t15.5 5t16 3.5t8.5 1.5q-59 54 -121 54q-20 0 -41 4t-44 4
q-17 0 -32 -1t-27 -3l-8.5 -15t-11.5 -8q-9 0 -27 6t-27 6q-10 0 -18 -5v-22q0 -3 -3.5 -39t-7 -78.5t-7 -78t-3.5 -37.5q0 -32 6 -58.5t6 -54.5q0 -6 -0.5 -12.5t-1.5 -13.5l-7 -46l-2.5 -15.5t-2 -18.5t-0.5 -15.5t2 -6.5q10 0 16.5 -14l13.5 -30t16 -30t24 -14q5 0 10 6
t10.5 14.5t9 17.5z" />
    <glyph glyph-name="FLW227" unicode="&#x433;" horiz-adv-x="484" 
d="M128 158q1 3 4 4h2q2 0 8 -11t13 -11q16 0 27 6t19 13t13.5 13t9.5 6q7 0 12.5 -6t11.5 -6q9 0 10 1l4 10l-8 213q0 -6 1 -1.5t1.5 14.5l1 21t0.5 17v11q0 14 -1 21t19 7q7 0 23 -4.5t24 -4.5l56 -10q13 -2 27 -4.5t28 -4.5h12q10 0 12 6q-2 8 -9 14t-15 10.5t-14 7.5
t-6 5q0 3 25 3q15 0 13.5 3.5t-9.5 8.5t-17.5 12t-9.5 14q0 4 6 10h16q23 0 26 11q-5 4 -17.5 7t-28.5 6l-33 6t-31 6v0q0 5 8.5 8t20 5.5t23.5 3.5t20 2v2q0 1 -12 6.5t-25.5 11t-25 9.5t-9.5 2q0 3 7 6t15.5 5t16 3.5t8.5 1.5q-59 54 -121 54q-20 0 -41 4t-44 4
q-17 0 -32 -1t-27 -3l-8.5 -15t-11.5 -8q-9 0 -27 6t-27 6q-10 0 -18 -5v-22q0 -3 -3.5 -39t-7 -78.5t-7 -78t-3.5 -37.5q0 -32 6 -58.5t6 -54.5q0 -6 -0.5 -12.5t-1.5 -13.5l-7 -46l-2.5 -15.5t-2 -18.5t-0.5 -15.5t2 -6.5q10 0 16.5 -14l13.5 -30t16 -30t24 -14q5 0 10 6
t10.5 14.5t9 17.5z" />
    <glyph glyph-name="FLW228" unicode="&#xe4;" horiz-adv-x="872" 
d="M852 154l-45 -152l-37 5q-7 -27 -15.5 -39.5t-12.5 -20.5l-12 -20t-14 -18l-30 -31q-6 1 -6.5 6.5t-0.5 11.5v11t-4 5q-15 -3 -18.5 -5.5t-10.5 -20.5q-3 -9 -5.5 -4t-4 14.5t-2.5 18t-2 7.5l-34 -50q-13 -19 -15 -14t0 18.5t4.5 28t-0.5 14.5q-9 -2 -16 -11t-12.5 -17.5
t-10 -12.5t-7.5 4l25 125h-196l-67 12q-10 2 -6 -12t10.5 -32.5t11.5 -35t-2 -20.5t-13.5 3.5t-13 16.5t-15.5 15.5t-21 0.5q-3 -11 -2 -21t-3 -10q-1 0 -8 5.5t-15 12.5l-15 13t-8 7q-7 4 -10 -4t-5.5 -18t-5.5 -17t-10 1q-12 12 -12.5 30.5t0.5 23.5q-3 10 -5.5 6
t-6.5 -13l-9 -19.5t-13 -13.5q-10 1 -14.5 9.5t-7.5 18t-6.5 17.5t-13.5 8q-22 1 -31.5 3t-12.5 2l-20 2l64 132l48 15l42 130q53 163 75 278q12 39 22.5 76.5t21.5 67.5t25.5 48t35.5 18q4 0 8 -7l10 -22l10 5.5t12 5.5t13 -9.5l20.5 -17.5t10.5 -9q4 0 8.5 7t8 15t7.5 15
t8 7l6 -21q2 -6 5 -17t8 -21.5t11.5 -18t15.5 -5.5q6 6 4 12.5t-6 13.5t-8.5 12.5t-4.5 9.5q0 9 3.5 17t11.5 5l11 -4q10 -3 10 14v20q0 8 10 8q19 0 19 -30v-21l24.5 -106t19.5 -75l59 -201l67 -200zM472 145l-22 84q-5 20 -14 20h-2l-29 -104h67z" />
    <glyph glyph-name="FLW228" unicode="&#x434;" horiz-adv-x="872" 
d="M852 154l-45 -152l-37 5q-7 -27 -15.5 -39.5t-12.5 -20.5l-12 -20t-14 -18l-30 -31q-6 1 -6.5 6.5t-0.5 11.5v11t-4 5q-15 -3 -18.5 -5.5t-10.5 -20.5q-3 -9 -5.5 -4t-4 14.5t-2.5 18t-2 7.5l-34 -50q-13 -19 -15 -14t0 18.5t4.5 28t-0.5 14.5q-9 -2 -16 -11t-12.5 -17.5
t-10 -12.5t-7.5 4l25 125h-196l-67 12q-10 2 -6 -12t10.5 -32.5t11.5 -35t-2 -20.5t-13.5 3.5t-13 16.5t-15.5 15.5t-21 0.5q-3 -11 -2 -21t-3 -10q-1 0 -8 5.5t-15 12.5l-15 13t-8 7q-7 4 -10 -4t-5.5 -18t-5.5 -17t-10 1q-12 12 -12.5 30.5t0.5 23.5q-3 10 -5.5 6
t-6.5 -13l-9 -19.5t-13 -13.5q-10 1 -14.5 9.5t-7.5 18t-6.5 17.5t-13.5 8q-22 1 -31.5 3t-12.5 2l-20 2l64 132l48 15l42 130q53 163 75 278q12 39 22.5 76.5t21.5 67.5t25.5 48t35.5 18q4 0 8 -7l10 -22l10 5.5t12 5.5t13 -9.5l20.5 -17.5t10.5 -9q4 0 8.5 7t8 15t7.5 15
t8 7l6 -21q2 -6 5 -17t8 -21.5t11.5 -18t15.5 -5.5q6 6 4 12.5t-6 13.5t-8.5 12.5t-4.5 9.5q0 9 3.5 17t11.5 5l11 -4q10 -3 10 14v20q0 8 10 8q19 0 19 -30v-21l24.5 -106t19.5 -75l59 -201l67 -200zM472 145l-22 84q-5 20 -14 20h-2l-29 -104h67z" />
    <glyph glyph-name="FLW229" unicode="&#xe5;" horiz-adv-x="510" 
d="M142 687q2 0 18 1.5t44 3.5l37 3q8 1 14.5 1h10.5q5 0 10 -0.5t10 -1.5h8q6 0 16 2l44 6q17 2 34 -13q15 1 33 4.5t38 8.5h5q8 0 10 -6v-2q0 -7 -11 -17.5t-11 -12.5q0 -4 11 -10h4q2 0 3.5 0.5t2.5 0.5q5 0 2.5 -3.5t-8 -9l-10.5 -11t-5 -9.5v-2q0 -3 14 -9t14 -13
q-3 -4 -17.5 -9t-13.5 -11q1 -5 18 -10q18 -8 13 -12.5t-18 -7t-27 -4.5t-14 -6q0 -3 10 -7t22.5 -8.5t22.5 -9t10 -8.5v-2q0 -4 -10 -5.5t-26 -1.5q-25 0 -55.5 2t-50.5 2h-9t-11 1q-52 4 -52 -21v-6l14 -9l99 8q13 1 33 1.5t48 0.5q0 -5 10 -15t6 -15l-11.5 -5.5t-21 -12
t-11.5 -13.5q0 -5 4 -12q0 -6 -13 -15t-13 -15q1 -2 13.5 -10.5t12.5 -14.5q0 -2 -2 -5.5t-2 -5.5t4 -8t4 -8v-2l-22 -12l-142 -5q-6 0 -6 -15q0 -5 2 -13.5t2 -13.5l10 -8q16 -1 28.5 -1.5t21.5 -0.5h10.5t16.5 1l40 2q11 1 20 1h17q16 0 16 -3t-2 -7.5t-2 -6.5
q0 -7 13 -5.5t15 1.5q6 0 6 -5t-3.5 -12.5t-9.5 -16l-11 -15.5q-9 -12 -10.5 -15.5t-0.5 -5t4 -4t3 -12.5v-4l-37 -19q-1 -1 6 -7.5t7 -9.5q0 -6 -7 -10.5t-17 -7.5t-20 -4.5t-17 -1.5q-5 0 -28 3.5t-55 3.5h-12q-6 0 -17 -1.5t-17 -1.5q-8 0 -23.5 1t-23.5 1q-30 0 -51 -12
h-4q-6 0 -17 3t-13 3q-10 0 -14 -10q-5 1 -18 8.5t-27 18.5t-24.5 21.5t-10.5 17.5q0 2 2 19.5t4 43.5t4 58t2 63q0 56 -5 103t-7 103l-2 54q6 15 6 42q0 12 -2 36t-2 36v12q0 2 1 6.5t1 6.5l6 6h2q8 0 26 -9.5t23 -9.5q10 0 15 11l4 19q7 0 12 -7.5t9.5 -17t9.5 -17.5
t11 -9z" />
    <glyph glyph-name="FLW229" unicode="&#x435;" horiz-adv-x="510" 
d="M142 687q2 0 18 1.5t44 3.5l37 3q8 1 14.5 1h10.5q5 0 10 -0.5t10 -1.5h8q6 0 16 2l44 6q17 2 34 -13q15 1 33 4.5t38 8.5h5q8 0 10 -6v-2q0 -7 -11 -17.5t-11 -12.5q0 -4 11 -10h4q2 0 3.5 0.5t2.5 0.5q5 0 2.5 -3.5t-8 -9l-10.5 -11t-5 -9.5v-2q0 -3 14 -9t14 -13
q-3 -4 -17.5 -9t-13.5 -11q1 -5 18 -10q18 -8 13 -12.5t-18 -7t-27 -4.5t-14 -6q0 -3 10 -7t22.5 -8.5t22.5 -9t10 -8.5v-2q0 -4 -10 -5.5t-26 -1.5q-25 0 -55.5 2t-50.5 2h-9t-11 1q-52 4 -52 -21v-6l14 -9l99 8q13 1 33 1.5t48 0.5q0 -5 10 -15t6 -15l-11.5 -5.5t-21 -12
t-11.5 -13.5q0 -5 4 -12q0 -6 -13 -15t-13 -15q1 -2 13.5 -10.5t12.5 -14.5q0 -2 -2 -5.5t-2 -5.5t4 -8t4 -8v-2l-22 -12l-142 -5q-6 0 -6 -15q0 -5 2 -13.5t2 -13.5l10 -8q16 -1 28.5 -1.5t21.5 -0.5h10.5t16.5 1l40 2q11 1 20 1h17q16 0 16 -3t-2 -7.5t-2 -6.5
q0 -7 13 -5.5t15 1.5q6 0 6 -5t-3.5 -12.5t-9.5 -16l-11 -15.5q-9 -12 -10.5 -15.5t-0.5 -5t4 -4t3 -12.5v-4l-37 -19q-1 -1 6 -7.5t7 -9.5q0 -6 -7 -10.5t-17 -7.5t-20 -4.5t-17 -1.5q-5 0 -28 3.5t-55 3.5h-12q-6 0 -17 -1.5t-17 -1.5q-8 0 -23.5 1t-23.5 1q-30 0 -51 -12
h-4q-6 0 -17 3t-13 3q-10 0 -14 -10q-5 1 -18 8.5t-27 18.5t-24.5 21.5t-10.5 17.5q0 2 2 19.5t4 43.5t4 58t2 63q0 56 -5 103t-7 103l-2 54q6 15 6 42q0 12 -2 36t-2 36v12q0 2 1 6.5t1 6.5l6 6h2q8 0 26 -9.5t23 -9.5q10 0 15 11l4 19q7 0 12 -7.5t9.5 -17t9.5 -17.5
t11 -9z" />
    <glyph glyph-name="FLW230" unicode="&#xe6;" horiz-adv-x="871" 
d="M700 740q1 -5 1.5 -8.5t0.5 -4.5q0 -7 -3.5 -20t-3.5 -20q0 -16 12 -16q6 0 13.5 2t14.5 2q11 0 26.5 -5.5t25.5 -5.5q19 0 16 -16q-1 -4 -1.5 -7t-1.5 -7q-1 -7 5 -10l8 6q7 6 15 6q7 0 12 -8l2 -2q2 -2 -10 -21l-29.5 -46l-37 -57t-32.5 -52v-26l100 -144
q18 -26 18 -34t-7 -14l-19 -30q-5 -8 -11 -13t-17 -6q0 -5 -13 -23t-23 -35h-4q-5 0 -17 -6.5t-15 -6.5t-8 5.5t-10 5.5q-4 0 -15.5 -9.5t-16.5 -9.5h-2l-29 45q-7 10 -11.5 17.5t-8.5 11.5q-20 27 -36 42h-2q-8 0 -11.5 -10.5t-5 -25t-1.5 -30v-24.5q0 -19 -14 -19
q-16 0 -26 10q-5 -5 -11.5 -10t-9.5 -5q-6 0 -15 6t-19 6q-13 0 -26 -4l-22 -6q-25 2 -39 3t-16 2q-43 0 -55.5 25.5t-12.5 70.5v30q-6 4 -18.5 -8t-28 -33l-32.5 -46l-33 -47q-10 1 -15.5 11t-5.5 20q0 7 3.5 20t3.5 20q0 16 -12 16q-6 0 -13.5 -2t-14.5 -2
q-11 0 -26.5 5.5t-25.5 5.5q-19 0 -16 16q1 4 1.5 7t1.5 7q1 7 -5 10l-8 -6q-8 -6 -15 -6t-12 8l-2 2q-1 1 10.5 20.5t29 46.5l36.5 57l33 52v26l-100 144q-18 25 -18 34q0 8 7 14l19 30q10 17 28 19q0 5 13 23.5t23 34.5h4q5 0 17 6.5t15 6.5t8 -5.5t10 -5.5q4 0 15.5 9.5
t16.5 9.5h2l29 -45q7 -10 11.5 -17t8.5 -12q19 -27 36 -42h2q7 0 11 10.5t5.5 25t1.5 30v24.5q0 19 14 19q16 0 26 -10l11.5 9.5t9.5 5.5q6 0 15 -6t19 -6q13 0 26 4l22 6q25 -2 39 -3t16 -2q43 0 55.5 -25.5t12.5 -70.5v-30q6 -4 18.5 8t28 33l32.5 46l33 47q13 -1 19 -18z
" />
    <glyph glyph-name="FLW230" unicode="&#x436;" horiz-adv-x="871" 
d="M700 740q1 -5 1.5 -8.5t0.5 -4.5q0 -7 -3.5 -20t-3.5 -20q0 -16 12 -16q6 0 13.5 2t14.5 2q11 0 26.5 -5.5t25.5 -5.5q19 0 16 -16q-1 -4 -1.5 -7t-1.5 -7q-1 -7 5 -10l8 6q7 6 15 6q7 0 12 -8l2 -2q2 -2 -10 -21l-29.5 -46l-37 -57t-32.5 -52v-26l100 -144
q18 -26 18 -34t-7 -14l-19 -30q-5 -8 -11 -13t-17 -6q0 -5 -13 -23t-23 -35h-4q-5 0 -17 -6.5t-15 -6.5t-8 5.5t-10 5.5q-4 0 -15.5 -9.5t-16.5 -9.5h-2l-29 45q-7 10 -11.5 17.5t-8.5 11.5q-20 27 -36 42h-2q-8 0 -11.5 -10.5t-5 -25t-1.5 -30v-24.5q0 -19 -14 -19
q-16 0 -26 10q-5 -5 -11.5 -10t-9.5 -5q-6 0 -15 6t-19 6q-13 0 -26 -4l-22 -6q-25 2 -39 3t-16 2q-43 0 -55.5 25.5t-12.5 70.5v30q-6 4 -18.5 -8t-28 -33l-32.5 -46l-33 -47q-10 1 -15.5 11t-5.5 20q0 7 3.5 20t3.5 20q0 16 -12 16q-6 0 -13.5 -2t-14.5 -2
q-11 0 -26.5 5.5t-25.5 5.5q-19 0 -16 16q1 4 1.5 7t1.5 7q1 7 -5 10l-8 -6q-8 -6 -15 -6t-12 8l-2 2q-1 1 10.5 20.5t29 46.5l36.5 57l33 52v26l-100 144q-18 25 -18 34q0 8 7 14l19 30q10 17 28 19q0 5 13 23.5t23 34.5h4q5 0 17 6.5t15 6.5t8 -5.5t10 -5.5q4 0 15.5 9.5
t16.5 9.5h2l29 -45q7 -10 11.5 -17t8.5 -12q19 -27 36 -42h2q7 0 11 10.5t5.5 25t1.5 30v24.5q0 19 14 19q16 0 26 -10l11.5 9.5t9.5 5.5q6 0 15 -6t19 -6q13 0 26 4l22 6q25 -2 39 -3t16 -2q43 0 55.5 -25.5t12.5 -70.5v-30q6 -4 18.5 8t28 33l32.5 46l33 47q13 -1 19 -18z
" />
    <glyph glyph-name="FLW231" unicode="&#xe7;" 
d="M306 519l-42 35q-23 8 -35 8t-28.5 -5t-37 -10.5t-45 -10.5t-51.5 -5q-23 0 -37 4.5t-8 14.5l20 34q-17 4 -14.5 9t12 9.5t20 8t9.5 3.5l-27 14q-3 2 -12.5 10.5t-9.5 13.5q0 2 9.5 9.5t14.5 10.5l2 30q8 0 37 8q39 -21 59 -21q2 -2 6 3t4 8q0 13 8 12.5t19 -6t20.5 -12
t12.5 -6.5q4 0 6.5 5.5t5 12.5t5 12.5t7.5 5.5t12 -7.5l12 -12.5l157 -4q3 0 15 -11l26.5 -25.5l28 -29l19.5 -20.5l17 -19q15 -18 28 -35.5t13 -31.5t-12 -37t-24 -37l-60 -71v-2q0 -12 38 -59q34 -40 34 -96q-26 -89 -83 -124q-23 -14 -46 -14q-27 0 -50 4l-7 1h-17
q-3 0 -6.5 -2t-4.5 -2q-14 0 -31.5 3.5t-35.5 8t-34 8t-27 3.5l-5.5 -3.5t-12.5 -7t-14.5 -6.5t-11.5 -3h-2l-10 16q-5 8 -12 8h-3l-15 -24q-4 -6 -14 -12t-23 -2l-33 11q-4 9 -0.5 15t9.5 11.5l12 11t6 11.5q0 12 -27 28q-6 4 1 9t17 11t17.5 11t2.5 9l-38 28q-9 7 9.5 9
t49.5 2q33 0 72 -1t68 -1q14 0 28.5 -3.5t23.5 -3.5q12 0 15.5 8t3.5 21t-6.5 28.5t-21.5 26.5l-20 14q-11 8 -27 8t-28.5 -5t-11.5 -5h-94q-10 3 -13.5 15t-3.5 27q0 14 2 28t4 23q4 19 32 19t63 1.5t69 15t50 58.5z" />
    <glyph glyph-name="FLW231" unicode="&#x437;" 
d="M306 519l-42 35q-23 8 -35 8t-28.5 -5t-37 -10.5t-45 -10.5t-51.5 -5q-23 0 -37 4.5t-8 14.5l20 34q-17 4 -14.5 9t12 9.5t20 8t9.5 3.5l-27 14q-3 2 -12.5 10.5t-9.5 13.5q0 2 9.5 9.5t14.5 10.5l2 30q8 0 37 8q39 -21 59 -21q2 -2 6 3t4 8q0 13 8 12.5t19 -6t20.5 -12
t12.5 -6.5q4 0 6.5 5.5t5 12.5t5 12.5t7.5 5.5t12 -7.5l12 -12.5l157 -4q3 0 15 -11l26.5 -25.5l28 -29l19.5 -20.5l17 -19q15 -18 28 -35.5t13 -31.5t-12 -37t-24 -37l-60 -71v-2q0 -12 38 -59q34 -40 34 -96q-26 -89 -83 -124q-23 -14 -46 -14q-27 0 -50 4l-7 1h-17
q-3 0 -6.5 -2t-4.5 -2q-14 0 -31.5 3.5t-35.5 8t-34 8t-27 3.5l-5.5 -3.5t-12.5 -7t-14.5 -6.5t-11.5 -3h-2l-10 16q-5 8 -12 8h-3l-15 -24q-4 -6 -14 -12t-23 -2l-33 11q-4 9 -0.5 15t9.5 11.5l12 11t6 11.5q0 12 -27 28q-6 4 1 9t17 11t17.5 11t2.5 9l-38 28q-9 7 9.5 9
t49.5 2q33 0 72 -1t68 -1q14 0 28.5 -3.5t23.5 -3.5q12 0 15.5 8t3.5 21t-6.5 28.5t-21.5 26.5l-20 14q-11 8 -27 8t-28.5 -5t-11.5 -5h-94q-10 3 -13.5 15t-3.5 27q0 14 2 28t4 23q4 19 32 19t63 1.5t69 15t50 58.5z" />
    <glyph glyph-name="FLW232" unicode="&#xe8;" horiz-adv-x="739" 
d="M600 700h-19q-13 0 -26.5 12.5t-25.5 12.5q-18 0 -29.5 -19t-25.5 -40l-185 -182q-15 3 -24.5 18.5t-14.5 37t-7 46t-2 47.5q0 24 5.5 12t12.5 -33q3 -10 5.5 -10t4 5.5t2 13t0.5 11.5l-1 10q-2 28 -7 40q-2 7 -5 7t-6 -2.5t-5.5 -6t-4.5 -3.5t-6.5 12.5t-15.5 12.5
q-4 0 -9 -3t-8 -3q-4 0 -15 14t-19 14q3 0 -20 -1t-57 -1q-20 0 -29 8t-23 8q-12 0 -16 -15t-4 -37q0 -28 3.5 -64t3.5 -64v-39q0 -7 0.5 -19t1.5 -29l4 -71q6 -110 6 -99q0 -56 -6 -85q-3 -5 -10 -86q5 -15 15.5 -10t20.5 5q1 0 17 -11.5t39 -11.5q7 0 20 7t16 7q6 0 12 -8
l36 32q16 0 16 -10v-6q0 -15 10 -15q7 0 18 6t23 15l23.5 18.5l19.5 16.5l18 16l53 55q29 29 58 48q2 2 4 2q15 0 15 -34v-14q0 -63 16 -82h3q4 0 13 4t12 4q1 -1 6.5 -10.5t14 -22.5t15.5 -18l22 -16q11 -8 16 -19q1 0 9 6t19.5 13t24 13t22.5 6q6 0 16.5 -1t16.5 -1
q2 0 6 0.5t10 1.5l10 30q0 -2 -3 100l-2 66q-1 16 -1 27v19v12q0 24 1 44t3 36q6 24 6 62q0 12 -1 37t-1 37v18q0 3 1 9t1 9q0 11 3 32.5t3 32.5q0 27 -10 27q-4 0 -11 -5t-8 -5q-7 2 -16 4t-22 6q-21 8 -27 28q-2 0 -5 -6l-6.5 -13.5t-7 -14t-6.5 -8.5z" />
    <glyph glyph-name="FLW232" unicode="&#x438;" horiz-adv-x="739" 
d="M600 700h-19q-13 0 -26.5 12.5t-25.5 12.5q-18 0 -29.5 -19t-25.5 -40l-185 -182q-15 3 -24.5 18.5t-14.5 37t-7 46t-2 47.5q0 24 5.5 12t12.5 -33q3 -10 5.5 -10t4 5.5t2 13t0.5 11.5l-1 10q-2 28 -7 40q-2 7 -5 7t-6 -2.5t-5.5 -6t-4.5 -3.5t-6.5 12.5t-15.5 12.5
q-4 0 -9 -3t-8 -3q-4 0 -15 14t-19 14q3 0 -20 -1t-57 -1q-20 0 -29 8t-23 8q-12 0 -16 -15t-4 -37q0 -28 3.5 -64t3.5 -64v-39q0 -7 0.5 -19t1.5 -29l4 -71q6 -110 6 -99q0 -56 -6 -85q-3 -5 -10 -86q5 -15 15.5 -10t20.5 5q1 0 17 -11.5t39 -11.5q7 0 20 7t16 7q6 0 12 -8
l36 32q16 0 16 -10v-6q0 -15 10 -15q7 0 18 6t23 15l23.5 18.5l19.5 16.5l18 16l53 55q29 29 58 48q2 2 4 2q15 0 15 -34v-14q0 -63 16 -82h3q4 0 13 4t12 4q1 -1 6.5 -10.5t14 -22.5t15.5 -18l22 -16q11 -8 16 -19q1 0 9 6t19.5 13t24 13t22.5 6q6 0 16.5 -1t16.5 -1
q2 0 6 0.5t10 1.5l10 30q0 -2 -3 100l-2 66q-1 16 -1 27v19v12q0 24 1 44t3 36q6 24 6 62q0 12 -1 37t-1 37v18q0 3 1 9t1 9q0 11 3 32.5t3 32.5q0 27 -10 27q-4 0 -11 -5t-8 -5q-7 2 -16 4t-22 6q-21 8 -27 28q-2 0 -5 -6l-6.5 -13.5t-7 -14t-6.5 -8.5z" />
    <glyph glyph-name="FLW233" unicode="&#xe9;" horiz-adv-x="739" 
d="M139 120h19q14 0 27 -12.5t25 -12.5q18 0 29.5 19t25.5 40l185 182q15 -3 24.5 -18.5t14.5 -37t7 -46t2 -47.5q0 -24 -5.5 -12t-12.5 33q-3 10 -5.5 10t-4 -5.5t-2 -13t-0.5 -11.5l1 -10q2 -28 7 -40q2 -7 5 -7t6 2.5t6 6t4 3.5q2 0 6.5 -12.5t15.5 -12.5q4 0 9 3t8 3
q4 0 15 -14t19 -14q-3 0 19.5 1t57.5 1q19 0 29 -8t23 -8q12 0 16 15t4 37q0 28 -3.5 64t-3.5 64v39q0 7 -0.5 19t-1.5 29l-4 71q-6 110 -6 99q0 56 6 85q3 5 10 86q-5 15 -15.5 10t-20.5 -5q-1 0 -17 11.5t-39 11.5q-7 0 -20 -7t-16 -7q-6 0 -12 8l-36 -32q-16 0 -16 10v6
q0 15 -10 15q-8 0 -18.5 -6t-22.5 -15l-23.5 -18.5l-19.5 -16.5l-18 -16l-53 -55q-29 -29 -58 -48q-2 -2 -4 -2q-15 0 -15 34v14q0 63 -16 82h-3q-4 0 -13 -4t-12 -4q-1 1 -6.5 10.5t-14 22.5t-15.5 18l-22 16q-11 8 -16 19q-2 0 -9.5 -6t-19 -13t-23.5 -13t-23 -6
q-6 0 -16.5 1t-16.5 1q-2 0 -6 -0.5t-10 -1.5l-10 -30q0 2 3 -100l2 -66q1 -16 1 -27v-19v-12q0 -24 -1 -44t-3 -36q-6 -24 -6 -62q0 -12 1 -37t1 -37v-18q0 -3 -1 -9t-1 -9q0 -11 -3 -32.5t-3 -32.5q0 -27 10 -27q4 0 11 5t8 5q7 -2 16 -4t22 -6q21 -8 27 -28q2 0 5 6
l6.5 13.5t7 14t6.5 8.5zM404 890l80 -118q2 -4 2 -7v-7q0 -12 -6 -12q-2 0 -9.5 3t-13.5 3q-11 0 -31 -7l-4 -5q-27 -30 -41 -30q-3 0 -10 4t-15.5 8l-17.5 8t-16 4t-12 -8q-8 0 -22 10.5t-27.5 24.5t-23 28.5t-9.5 22.5q18 11 56 62q2 2 44 14l31 8q13 4 20 4q14 0 25 -10z
" />
    <glyph glyph-name="FLW233" unicode="&#x439;" horiz-adv-x="739" 
d="M139 120h19q14 0 27 -12.5t25 -12.5q18 0 29.5 19t25.5 40l185 182q15 -3 24.5 -18.5t14.5 -37t7 -46t2 -47.5q0 -24 -5.5 -12t-12.5 33q-3 10 -5.5 10t-4 -5.5t-2 -13t-0.5 -11.5l1 -10q2 -28 7 -40q2 -7 5 -7t6 2.5t6 6t4 3.5q2 0 6.5 -12.5t15.5 -12.5q4 0 9 3t8 3
q4 0 15 -14t19 -14q-3 0 19.5 1t57.5 1q19 0 29 -8t23 -8q12 0 16 15t4 37q0 28 -3.5 64t-3.5 64v39q0 7 -0.5 19t-1.5 29l-4 71q-6 110 -6 99q0 56 6 85q3 5 10 86q-5 15 -15.5 10t-20.5 -5q-1 0 -17 11.5t-39 11.5q-7 0 -20 -7t-16 -7q-6 0 -12 8l-36 -32q-16 0 -16 10v6
q0 15 -10 15q-8 0 -18.5 -6t-22.5 -15l-23.5 -18.5l-19.5 -16.5l-18 -16l-53 -55q-29 -29 -58 -48q-2 -2 -4 -2q-15 0 -15 34v14q0 63 -16 82h-3q-4 0 -13 -4t-12 -4q-1 1 -6.5 10.5t-14 22.5t-15.5 18l-22 16q-11 8 -16 19q-2 0 -9.5 -6t-19 -13t-23.5 -13t-23 -6
q-6 0 -16.5 1t-16.5 1q-2 0 -6 -0.5t-10 -1.5l-10 -30q0 2 3 -100l2 -66q1 -16 1 -27v-19v-12q0 -24 -1 -44t-3 -36q-6 -24 -6 -62q0 -12 1 -37t1 -37v-18q0 -3 -1 -9t-1 -9q0 -11 -3 -32.5t-3 -32.5q0 -27 10 -27q4 0 11 5t8 5q7 -2 16 -4t22 -6q21 -8 27 -28q2 0 5 6
l6.5 13.5t7 14t6.5 8.5zM404 890l80 -118q2 -4 2 -7v-7q0 -12 -6 -12q-2 0 -9.5 3t-13.5 3q-11 0 -31 -7l-4 -5q-27 -30 -41 -30q-3 0 -10 4t-15.5 8l-17.5 8t-16 4t-12 -8q-8 0 -22 10.5t-27.5 24.5t-23 28.5t-9.5 22.5q18 11 56 62q2 2 44 14l31 8q13 4 20 4q14 0 25 -10z
" />
    <glyph glyph-name="FLW234" unicode="&#xea;" horiz-adv-x="594" 
d="M423 738q1 -5 1.5 -8.5t0.5 -4.5q0 -7 -3.5 -20t-3.5 -20q0 -16 12 -16q6 0 13.5 2t14.5 2q11 0 26.5 -5.5t25.5 -5.5q19 0 16 -16q-1 -4 -1.5 -7t-1.5 -7q-1 -7 5 -10l8 6q8 6 15 6t12 -8l2 -2q1 -2 -10.5 -21l-29 -46l-36.5 -57l-33 -52v-26l100 -144q18 -26 18 -34
t-7 -14l-19 -30q-10 -16 -28 -19q0 -5 -13 -23t-23 -35h-4q-5 0 -17 -6.5t-15 -6.5t-8 5.5t-10 5.5q-4 0 -15.5 -9.5t-16.5 -9.5h-2l-29 45q-7 10 -11.5 17.5t-8.5 11.5q-19 27 -36 42h-2q-10 0 -12.5 -14.5t-5 -31.5t-8 -31.5t-22.5 -14.5q-3 0 -14.5 -11t-16.5 -11
q-6 0 -15 6t-19 6q-13 0 -26 -4l-22 -6q-25 2 -39 3t-16 2q-32 6 -48 25q0 33 0.5 68t1.5 72v36v79q0 19 -1.5 39t-3.5 43v3q0 3 -3.5 10l-7.5 14.5l-7.5 14t-3.5 9.5q0 6 12 15t12 29q2 -2 0.5 5l-4 19.5t-4.5 28.5t-2 31q0 13 -4 39.5t-4 39.5q0 19 14 19q15 0 23 -7.5
t11.5 -18.5t4.5 -24t3 -24q1 2 4 11l6.5 20t8 19.5t7.5 8.5q4 0 13 -2.5t13 -2.5q7 0 12 8h2q3 0 8.5 -4.5t11 -10.5l10 -10.5t5.5 -4.5t5.5 6t11.5 13t15 13t17 6q38 0 49 -26t11 -68v-30q9 -6 11 -6v0l42 58.5l59 81.5q13 -1 19 -18z" />
    <glyph glyph-name="FLW234" unicode="&#x43a;" horiz-adv-x="594" 
d="M423 738q1 -5 1.5 -8.5t0.5 -4.5q0 -7 -3.5 -20t-3.5 -20q0 -16 12 -16q6 0 13.5 2t14.5 2q11 0 26.5 -5.5t25.5 -5.5q19 0 16 -16q-1 -4 -1.5 -7t-1.5 -7q-1 -7 5 -10l8 6q8 6 15 6t12 -8l2 -2q1 -2 -10.5 -21l-29 -46l-36.5 -57l-33 -52v-26l100 -144q18 -26 18 -34
t-7 -14l-19 -30q-10 -16 -28 -19q0 -5 -13 -23t-23 -35h-4q-5 0 -17 -6.5t-15 -6.5t-8 5.5t-10 5.5q-4 0 -15.5 -9.5t-16.5 -9.5h-2l-29 45q-7 10 -11.5 17.5t-8.5 11.5q-19 27 -36 42h-2q-10 0 -12.5 -14.5t-5 -31.5t-8 -31.5t-22.5 -14.5q-3 0 -14.5 -11t-16.5 -11
q-6 0 -15 6t-19 6q-13 0 -26 -4l-22 -6q-25 2 -39 3t-16 2q-32 6 -48 25q0 33 0.5 68t1.5 72v36v79q0 19 -1.5 39t-3.5 43v3q0 3 -3.5 10l-7.5 14.5l-7.5 14t-3.5 9.5q0 6 12 15t12 29q2 -2 0.5 5l-4 19.5t-4.5 28.5t-2 31q0 13 -4 39.5t-4 39.5q0 19 14 19q15 0 23 -7.5
t11.5 -18.5t4.5 -24t3 -24q1 2 4 11l6.5 20t8 19.5t7.5 8.5q4 0 13 -2.5t13 -2.5q7 0 12 8h2q3 0 8.5 -4.5t11 -10.5l10 -10.5t5.5 -4.5t5.5 6t11.5 13t15 13t17 6q38 0 49 -26t11 -68v-30q9 -6 11 -6v0l42 58.5l59 81.5q13 -1 19 -18z" />
    <glyph glyph-name="FLW235" unicode="&#xeb;" horiz-adv-x="748" 
d="M306 192l64 180h2q10 0 14 -15l91 -267q1 -5 7.5 -2t14 9.5t13 14.5t5.5 14v8q0 5 7 5q4 0 10 -7t12 -16t13 -16t13 -7h4q6 0 6 10q0 5 -3 15t5 10q9 0 24 -14t26 -16v5q0 9 -7 28t-7 23q0 16 12 8t26.5 -22.5l26.5 -26t12 -1.5q0 4 -3 12t-3 10q0 5 6 7.5t12.5 4.5
t12.5 6t6 13q0 20 -15.5 45t-26.5 51l-81 185l-59 155q-9 23 -19.5 58l-24.5 81v16q0 23 -19 23q-10 0 -10 -6v-15q0 -12 -10 -11l-11 3q-8 2 -11.5 -4t-3.5 -13q0 -6 2 -17t2 -17q0 -11 -3 -11q-2 0 -5.5 7t-7.5 16t-7.5 18.5t-5.5 14.5l-6 16q-4 0 -8 -5.5t-7.5 -11.5
t-8 -11.5t-8.5 -5.5q-1 1 -10.5 7l-20.5 13.5t-13 7.5q-4 0 -12 -4.5t-10 -4.5l-10 17q-4 6 -8 6q-21 0 -35.5 -14t-25.5 -37t-21.5 -52t-22.5 -59q-22 -89 -75 -214l-88 -210l-2 -6q0 -20 5 -20q3 0 8.5 7l12 16t14 16t14.5 7q3 0 12.5 -8l20 -17l19 -16t8.5 -6
q-1 -5 -1 -16q0 -8 2 -9.5t5.5 0t7.5 4.5t8 3t15 -7.5t14 -7.5q9 0 13 18q-3 -3 5.5 3.5l20 16l21 18t8.5 8.5q4 0 4 -11q0 -7 -3.5 -19t-8 -24.5l-8 -23t-3.5 -14.5q0 -11 10 -0.5t23 29.5t24.5 39.5t14.5 29.5z" />
    <glyph glyph-name="FLW235" unicode="&#x43b;" horiz-adv-x="748" 
d="M306 192l64 180h2q10 0 14 -15l91 -267q1 -5 7.5 -2t14 9.5t13 14.5t5.5 14v8q0 5 7 5q4 0 10 -7t12 -16t13 -16t13 -7h4q6 0 6 10q0 5 -3 15t5 10q9 0 24 -14t26 -16v5q0 9 -7 28t-7 23q0 16 12 8t26.5 -22.5l26.5 -26t12 -1.5q0 4 -3 12t-3 10q0 5 6 7.5t12.5 4.5
t12.5 6t6 13q0 20 -15.5 45t-26.5 51l-81 185l-59 155q-9 23 -19.5 58l-24.5 81v16q0 23 -19 23q-10 0 -10 -6v-15q0 -12 -10 -11l-11 3q-8 2 -11.5 -4t-3.5 -13q0 -6 2 -17t2 -17q0 -11 -3 -11q-2 0 -5.5 7t-7.5 16t-7.5 18.5t-5.5 14.5l-6 16q-4 0 -8 -5.5t-7.5 -11.5
t-8 -11.5t-8.5 -5.5q-1 1 -10.5 7l-20.5 13.5t-13 7.5q-4 0 -12 -4.5t-10 -4.5l-10 17q-4 6 -8 6q-21 0 -35.5 -14t-25.5 -37t-21.5 -52t-22.5 -59q-22 -89 -75 -214l-88 -210l-2 -6q0 -20 5 -20q3 0 8.5 7l12 16t14 16t14.5 7q3 0 12.5 -8l20 -17l19 -16t8.5 -6
q-1 -5 -1 -16q0 -8 2 -9.5t5.5 0t7.5 4.5t8 3t15 -7.5t14 -7.5q9 0 13 18q-3 -3 5.5 3.5l20 16l21 18t8.5 8.5q4 0 4 -11q0 -7 -3.5 -19t-8 -24.5l-8 -23t-3.5 -14.5q0 -11 10 -0.5t23 29.5t24.5 39.5t14.5 29.5z" />
    <glyph glyph-name="FLW236" unicode="&#xec;" horiz-adv-x="875" 
d="M186 742l12 2l11 -23l7 -5l15.5 -11t16.5 -11t10 -5l21.5 7t26.5 8h6l109 -220q3 -7 11 -7t15.5 9.5t14 22t12.5 26.5l10 23l23 48q2 2 9 2q3 0 7.5 -12.5t6.5 -19.5q12 2 16.5 18.5t7.5 36.5t6.5 39.5t13.5 27.5v24q0 12 8 18h2q4 0 11 -5l15.5 -11t17 -11t16.5 -5
q5 0 22 14q2 0 8.5 -3t15 -6.5t18.5 -7t17 -3.5q11 0 18.5 -14t14 -34.5t11.5 -44.5l9 -44l30 -134l9 -24q13 -35 21.5 -62.5t13.5 -47.5q3 -11 3 -17q0 -8 -5 -8q-9 0 -19 15t-20.5 37.5t-21 49l-19.5 49.5q-7 -1 -7 -8q0 -3 1.5 -11.5t3.5 -18t4 -18t2 -11.5l45 -114
q4 -10 20 -46t16 -92q0 -2 -2 -2q-1 0 -10.5 4t-18.5 4h-23q-1 -2 -8 -4t-15.5 -5.5t-15 -8t-6.5 -10.5v-3q0 -2 -4 -1.5t-9 2l-8.5 2.5t-2.5 0l-28 6l-75 78l-40 82l-4 1q-3 1 -7 1l-19 -32q-32 -55 -54 -80q-16 -19 -28 -26v-4q0 -5 6.5 -15.5t6.5 -15.5q0 -12 -26 9
t-59 53l-64 64.5l-42 44.5q-14 0 -22 -26.5t-18 -51.5l-21 -54q-18 -19 -25 -19q-5 0 -6.5 6.5l-3 13.5t-5 13.5t-12.5 6.5h-4q-6 0 -14 -10.5l-17 -22.5t-18.5 -22.5t-18.5 -10.5q-5 0 -8.5 8.5t-3.5 30.5v2q0 7 -16 7l-7 -4.5l-15 -9.5t-16 -9.5t-11 -4.5q-17 0 -17 30
q0 25 10 62.5t21 64.5l9 22t2 7t-1 6t-1 15q0 9 23 93l2 7l17.5 80.5t26.5 112.5q0 1 6 24t14 51t18 51t19 25z" />
    <glyph glyph-name="FLW236" unicode="&#x43c;" horiz-adv-x="875" 
d="M186 742l12 2l11 -23l7 -5l15.5 -11t16.5 -11t10 -5l21.5 7t26.5 8h6l109 -220q3 -7 11 -7t15.5 9.5t14 22t12.5 26.5l10 23l23 48q2 2 9 2q3 0 7.5 -12.5t6.5 -19.5q12 2 16.5 18.5t7.5 36.5t6.5 39.5t13.5 27.5v24q0 12 8 18h2q4 0 11 -5l15.5 -11t17 -11t16.5 -5
q5 0 22 14q2 0 8.5 -3t15 -6.5t18.5 -7t17 -3.5q11 0 18.5 -14t14 -34.5t11.5 -44.5l9 -44l30 -134l9 -24q13 -35 21.5 -62.5t13.5 -47.5q3 -11 3 -17q0 -8 -5 -8q-9 0 -19 15t-20.5 37.5t-21 49l-19.5 49.5q-7 -1 -7 -8q0 -3 1.5 -11.5t3.5 -18t4 -18t2 -11.5l45 -114
q4 -10 20 -46t16 -92q0 -2 -2 -2q-1 0 -10.5 4t-18.5 4h-23q-1 -2 -8 -4t-15.5 -5.5t-15 -8t-6.5 -10.5v-3q0 -2 -4 -1.5t-9 2l-8.5 2.5t-2.5 0l-28 6l-75 78l-40 82l-4 1q-3 1 -7 1l-19 -32q-32 -55 -54 -80q-16 -19 -28 -26v-4q0 -5 6.5 -15.5t6.5 -15.5q0 -12 -26 9
t-59 53l-64 64.5l-42 44.5q-14 0 -22 -26.5t-18 -51.5l-21 -54q-18 -19 -25 -19q-5 0 -6.5 6.5l-3 13.5t-5 13.5t-12.5 6.5h-4q-6 0 -14 -10.5l-17 -22.5t-18.5 -22.5t-18.5 -10.5q-5 0 -8.5 8.5t-3.5 30.5v2q0 7 -16 7l-7 -4.5l-15 -9.5t-16 -9.5t-11 -4.5q-17 0 -17 30
q0 25 10 62.5t21 64.5l9 22t2 7t-1 6t-1 15q0 9 23 93l2 7l17.5 80.5t26.5 112.5q0 1 6 24t14 51t18 51t19 25z" />
    <glyph glyph-name="FLW237" unicode="&#xed;" horiz-adv-x="614" 
d="M374 702l12 -28h2q4 0 8.5 7t6.5 7q7 0 13.5 -15t11.5 -15q-1 0 14 12.5t37 12.5q3 0 7 3.5t8 3.5q15 -8 23 -5t12 22q4 18 15.5 12t11.5 -21v-17l-2 -19q-2 -14 7 -23l21 15l6 -7q2 -3 2.5 -26t1.5 -51l2 -54v-32q0 -15 -1 -44t-1 -43v-29q0 -14 -12 -29.5t-12 -26.5
v-14q0 -7 3 -28l5 -46q4 -34 6 -56t2 -32q0 -16 -11 -39.5t-11 -42.5v-18q0 -2 -5 -4l-5 -2q-3 -1 -8 3t-10 9.5t-9 10.5l-4 5q-6 0 -12 -5t-7 -5q-4 0 -7.5 7.5t-7 16t-8 15.5t-10.5 6q-8 -2 -21.5 -5t-31.5 -5l-4.5 15t-9.5 8q-17 -29 -28 -36q-10 0 -13 7t-2 14.5t3 12
t2 0.5q0 9 -6 38l-5 19q-3 11 -1 23t2 22q0 24 -8 51q-9 9 -22 9l-24 -3q-12 -1 -15.5 -12.5t-3.5 -25.5q0 -7 0.5 -13t0.5 -10q0 -6 -1 -19.5t-6 -34.5q-3 -16 -18.5 -31t-20.5 -25h-2q-2 0 -9 5t-11 5q-2 0 -16 -14q-7 -3 -10.5 -0.5t-5.5 6.5t-5 8t-9 4q-3 0 -8.5 -5
t-9.5 -5q-1 0 -18.5 13.5t-26.5 24.5h-11l-27 -30q-23 -24 -31 -24q-6 0 -14 4l-2 5l9 80q1 10 2 23.5t3 29.5q4 43 5 76t1 58l-2 193q0 8 -1 25.5t-1 26.5l-4 37q8 4 10 11t2 13q0 12 2.5 13t6.5 -2.5t9 -8.5t10 -5q9 0 12.5 13t9.5 32h4q8 0 12.5 -7t7 -16t5 -16t5.5 -7
q6 0 15 14t17 22l8 14q6 10 10.5 10t7.5 -6.5t4.5 -17t1.5 -19.5q0 -17 10 -16t21 1q20 0 24 31q2 14 5 16t6 -3t5 -15.5t3 -20.5l1 -12v-15q0 -12 -1 -34.5t-1 -34.5q0 -38 8 -60q5 -5 13 -5q22 0 28.5 10t6.5 33v16q0 3 -0.5 8t-0.5 8v19q0 -1 0 4t1 15l2 40l2 2h1
q3 0 8.5 -4t7.5 -4q4 0 7 6v18q0 3 -0.5 8t-0.5 7q0 27 9 27q10 0 17 -18z" />
    <glyph glyph-name="FLW237" unicode="&#x43d;" horiz-adv-x="614" 
d="M374 702l12 -28h2q4 0 8.5 7t6.5 7q7 0 13.5 -15t11.5 -15q-1 0 14 12.5t37 12.5q3 0 7 3.5t8 3.5q15 -8 23 -5t12 22q4 18 15.5 12t11.5 -21v-17l-2 -19q-2 -14 7 -23l21 15l6 -7q2 -3 2.5 -26t1.5 -51l2 -54v-32q0 -15 -1 -44t-1 -43v-29q0 -14 -12 -29.5t-12 -26.5
v-14q0 -7 3 -28l5 -46q4 -34 6 -56t2 -32q0 -16 -11 -39.5t-11 -42.5v-18q0 -2 -5 -4l-5 -2q-3 -1 -8 3t-10 9.5t-9 10.5l-4 5q-6 0 -12 -5t-7 -5q-4 0 -7.5 7.5t-7 16t-8 15.5t-10.5 6q-8 -2 -21.5 -5t-31.5 -5l-4.5 15t-9.5 8q-17 -29 -28 -36q-10 0 -13 7t-2 14.5t3 12
t2 0.5q0 9 -6 38l-5 19q-3 11 -1 23t2 22q0 24 -8 51q-9 9 -22 9l-24 -3q-12 -1 -15.5 -12.5t-3.5 -25.5q0 -7 0.5 -13t0.5 -10q0 -6 -1 -19.5t-6 -34.5q-3 -16 -18.5 -31t-20.5 -25h-2q-2 0 -9 5t-11 5q-2 0 -16 -14q-7 -3 -10.5 -0.5t-5.5 6.5t-5 8t-9 4q-3 0 -8.5 -5
t-9.5 -5q-1 0 -18.5 13.5t-26.5 24.5h-11l-27 -30q-23 -24 -31 -24q-6 0 -14 4l-2 5l9 80q1 10 2 23.5t3 29.5q4 43 5 76t1 58l-2 193q0 8 -1 25.5t-1 26.5l-4 37q8 4 10 11t2 13q0 12 2.5 13t6.5 -2.5t9 -8.5t10 -5q9 0 12.5 13t9.5 32h4q8 0 12.5 -7t7 -16t5 -16t5.5 -7
q6 0 15 14t17 22l8 14q6 10 10.5 10t7.5 -6.5t4.5 -17t1.5 -19.5q0 -17 10 -16t21 1q20 0 24 31q2 14 5 16t6 -3t5 -15.5t3 -20.5l1 -12v-15q0 -12 -1 -34.5t-1 -34.5q0 -38 8 -60q5 -5 13 -5q22 0 28.5 10t6.5 33v16q0 3 -0.5 8t-0.5 8v19q0 -1 0 4t1 15l2 40l2 2h1
q3 0 8.5 -4t7.5 -4q4 0 7 6v18q0 3 -0.5 8t-0.5 7q0 27 9 27q10 0 17 -18z" />
    <glyph glyph-name="FLW238" unicode="&#xee;" horiz-adv-x="688" 
d="M398 734l19 -15q122 -22 187 -93q24 -27 24 -46q0 -6 -1 -8q41 -134 41 -271q-10 -48 -15 -63q-10 -35 -22.5 -58.5t-28.5 -39.5q-10 -2 -20.5 -1t-19.5 1q-3 0 -11 -2q-132 -45 -233 -45q-26 11 -40 28q-45 0 -82.5 23.5t-86.5 65.5q-4 3 -17 14.5t-26.5 28t-24.5 36
t-11 39.5q0 5 0.5 17t0.5 17q0 26 -11 40q11 82 30 134q48 129 182 185h2q9 0 17 -9q7 -8 24 -5.5t37.5 9l40.5 13t32 6.5q11 0 13 -1zM434 475l-44 42q-28 0 -58 -8q-10 -3 -25.5 -7t-30 -12.5t-24.5 -24t-10 -42.5q0 -15 6.5 -29.5t16.5 -26.5t21 -21.5t20 -13.5h14
q4 0 10 1t11 -1l26 -2q15 -1 28.5 3t21.5 14l21 55q6 16 6 35q0 22 -10 38zM608 276l-6 -4l-42 -74q4 -6 12 -6h7q16 0 16.5 8t6.5 13l10 47q2 9 -4 16z" />
    <glyph glyph-name="FLW238" unicode="&#x43e;" horiz-adv-x="688" 
d="M398 734l19 -15q122 -22 187 -93q24 -27 24 -46q0 -6 -1 -8q41 -134 41 -271q-10 -48 -15 -63q-10 -35 -22.5 -58.5t-28.5 -39.5q-10 -2 -20.5 -1t-19.5 1q-3 0 -11 -2q-132 -45 -233 -45q-26 11 -40 28q-45 0 -82.5 23.5t-86.5 65.5q-4 3 -17 14.5t-26.5 28t-24.5 36
t-11 39.5q0 5 0.5 17t0.5 17q0 26 -11 40q11 82 30 134q48 129 182 185h2q9 0 17 -9q7 -8 24 -5.5t37.5 9l40.5 13t32 6.5q11 0 13 -1zM434 475l-44 42q-28 0 -58 -8q-10 -3 -25.5 -7t-30 -12.5t-24.5 -24t-10 -42.5q0 -15 6.5 -29.5t16.5 -26.5t21 -21.5t20 -13.5h14
q4 0 10 1t11 -1l26 -2q15 -1 28.5 3t21.5 14l21 55q6 16 6 35q0 22 -10 38zM608 276l-6 -4l-42 -74q4 -6 12 -6h7q16 0 16.5 8t6.5 13l10 47q2 9 -4 16z" />
    <glyph glyph-name="FLW239" unicode="&#xef;" horiz-adv-x="614" 
d="M359 670l27 4h2q4 0 8.5 7t6.5 7q7 0 13.5 -15t11.5 -15q-1 0 14 12.5t37 12.5q13 0 26 -3.5t20 -3.5q5 0 8.5 0.5t6.5 0.5q12 0 12.5 -15t8.5 -23l21 15l6 -7q2 -3 2.5 -26t1.5 -51l2 -54v-32q0 -15 -1 -44t-1 -43v-29q0 -14 -12 -29.5t-12 -26.5v-14q0 -7 3 -28l5 -46
q4 -34 6 -56t2 -32q0 -16 -11 -39.5t-11 -42.5v-18q0 -2 -5 -4l-5 -2q-3 -1 -8 3t-10 9.5t-9 10.5l-4 5q-6 0 -12 -5t-7 -5q-4 0 -7.5 7.5t-7 16t-8 15.5t-10.5 6q-8 -2 -21.5 -5t-31.5 -5l-4.5 15t-9.5 8q-17 -29 -28 -36q-10 0 -13 7t-2 14.5t3 12t2 0.5q0 9 -6 38l-5 19
q-3 11 -1 23t2 22q0 24 -8 51q1 18 2 43l2 52t1.5 53t0.5 46q0 41 -3 41h-56q-5 0 -7.5 -11t-4.5 -29t-2.5 -41.5t-0.5 -48.5q0 -27 0.5 -54.5t1.5 -49.5t1.5 -37.5t0.5 -18.5q0 -6 -1 -19.5t-6 -34.5q-3 -16 -18.5 -31t-20.5 -25h-2q-2 0 -9 5t-11 5q-2 0 -16 -14
q-7 -3 -10.5 -0.5t-5.5 6.5t-5 8t-9 4q-3 0 -8.5 -5t-9.5 -5q-1 0 -18.5 13.5t-26.5 24.5h-11l-27 -30q-23 -24 -31 -24q-6 0 -14 4l-2 5l9 80q1 10 2 23.5t3 29.5q4 43 5 76t1 58l-2 193q0 8 -1 25.5t-1 26.5l-4 37q8 4 10 11t2 13q0 14 -1.5 19t16.5 5q7 0 11.5 -1.5
t8.5 -1.5q5 0 8 4t7 17h4q4 0 8 -7t8 -16t7.5 -16t6.5 -7q6 0 14 16.5t18 19.5q8 2 13.5 -3t12.5 -12t15.5 -13t21.5 -6q12 0 16.5 4.5t7.5 9t7 7t15 -1.5l54 -19q-1 0 0.5 1l1.5 1h1q3 0 8.5 -4t7.5 -4q4 0 7 6z" />
    <glyph glyph-name="FLW239" unicode="&#x43f;" horiz-adv-x="614" 
d="M359 670l27 4h2q4 0 8.5 7t6.5 7q7 0 13.5 -15t11.5 -15q-1 0 14 12.5t37 12.5q13 0 26 -3.5t20 -3.5q5 0 8.5 0.5t6.5 0.5q12 0 12.5 -15t8.5 -23l21 15l6 -7q2 -3 2.5 -26t1.5 -51l2 -54v-32q0 -15 -1 -44t-1 -43v-29q0 -14 -12 -29.5t-12 -26.5v-14q0 -7 3 -28l5 -46
q4 -34 6 -56t2 -32q0 -16 -11 -39.5t-11 -42.5v-18q0 -2 -5 -4l-5 -2q-3 -1 -8 3t-10 9.5t-9 10.5l-4 5q-6 0 -12 -5t-7 -5q-4 0 -7.5 7.5t-7 16t-8 15.5t-10.5 6q-8 -2 -21.5 -5t-31.5 -5l-4.5 15t-9.5 8q-17 -29 -28 -36q-10 0 -13 7t-2 14.5t3 12t2 0.5q0 9 -6 38l-5 19
q-3 11 -1 23t2 22q0 24 -8 51q1 18 2 43l2 52t1.5 53t0.5 46q0 41 -3 41h-56q-5 0 -7.5 -11t-4.5 -29t-2.5 -41.5t-0.5 -48.5q0 -27 0.5 -54.5t1.5 -49.5t1.5 -37.5t0.5 -18.5q0 -6 -1 -19.5t-6 -34.5q-3 -16 -18.5 -31t-20.5 -25h-2q-2 0 -9 5t-11 5q-2 0 -16 -14
q-7 -3 -10.5 -0.5t-5.5 6.5t-5 8t-9 4q-3 0 -8.5 -5t-9.5 -5q-1 0 -18.5 13.5t-26.5 24.5h-11l-27 -30q-23 -24 -31 -24q-6 0 -14 4l-2 5l9 80q1 10 2 23.5t3 29.5q4 43 5 76t1 58l-2 193q0 8 -1 25.5t-1 26.5l-4 37q8 4 10 11t2 13q0 14 -1.5 19t16.5 5q7 0 11.5 -1.5
t8.5 -1.5q5 0 8 4t7 17h4q4 0 8 -7t8 -16t7.5 -16t6.5 -7q6 0 14 16.5t18 19.5q8 2 13.5 -3t12.5 -12t15.5 -13t21.5 -6q12 0 16.5 4.5t7.5 9t7 7t15 -1.5l54 -19q-1 0 0.5 1l1.5 1h1q3 0 8.5 -4t7.5 -4q4 0 7 6z" />
    <glyph glyph-name="FLW240" unicode="&#xf0;" horiz-adv-x="566" 
d="M160 725h4q4 0 12.5 -2t12.5 -2q11 0 12 13.5t7 15.5h2q9 0 13 -4l13 -10q68 0 136 -20q5 -4 9.5 -9t12 -11.5t20 -16.5t34.5 -24l50 -33l16.5 -10.5t8 -7t3.5 -8.5t3 -16l7 -39q10 -50 10 -69q0 -40 -19 -72q-3 -2 -7.5 -12.5l-10 -23.5t-11 -24t-10.5 -14
q-17 -29 -64 -50q-116 -51 -120 -57q0 -8 2 -24l5 -40l4 -34q1 -8 1.5 -12.5t0.5 -6.5q-10 -10 -15 -10h-2q-7 0 -15 13t-12 13q-2 0 -6 -2t-7 -2q-4 0 -9 3t-7 3h-3q-1 0 -9 -15t-14 -15q-8 0 -13 6t-8 14t-6 14t-8 6q-8 0 -19 -16q-7 -7 -30 -9.5t-48 -2.5q-8 0 -8 17
q0 8 -7 12h-2q-8 0 -15.5 -12.5t-13.5 -12.5h-2q3 0 6.5 24.5l7.5 55t6.5 58.5t2.5 34q-3 10 -7 42t-7.5 68.5t-6 69.5t-2.5 46q0 21 4 32l-22 178v26l39 2q9 -7 16 -22l12 -26q5 -13 6.5 -4t1.5 32q0 10 3 9.5t7.5 -5l10 -10.5t9.5 -6q7 0 7 25t6 25q5 0 10.5 -13.5
t11.5 -21.5zM362 486l-54 42q-4 4 -9 5t-7 1q-15 0 -15 -36q0 -10 1 -22.5t3.5 -24t5.5 -19t7 -7.5l11 5q58 25 58 50q0 5 -1 6z" />
    <glyph glyph-name="FLW240" unicode="&#x440;" horiz-adv-x="566" 
d="M160 725h4q4 0 12.5 -2t12.5 -2q11 0 12 13.5t7 15.5h2q9 0 13 -4l13 -10q68 0 136 -20q5 -4 9.5 -9t12 -11.5t20 -16.5t34.5 -24l50 -33l16.5 -10.5t8 -7t3.5 -8.5t3 -16l7 -39q10 -50 10 -69q0 -40 -19 -72q-3 -2 -7.5 -12.5l-10 -23.5t-11 -24t-10.5 -14
q-17 -29 -64 -50q-116 -51 -120 -57q0 -8 2 -24l5 -40l4 -34q1 -8 1.5 -12.5t0.5 -6.5q-10 -10 -15 -10h-2q-7 0 -15 13t-12 13q-2 0 -6 -2t-7 -2q-4 0 -9 3t-7 3h-3q-1 0 -9 -15t-14 -15q-8 0 -13 6t-8 14t-6 14t-8 6q-8 0 -19 -16q-7 -7 -30 -9.5t-48 -2.5q-8 0 -8 17
q0 8 -7 12h-2q-8 0 -15.5 -12.5t-13.5 -12.5h-2q3 0 6.5 24.5l7.5 55t6.5 58.5t2.5 34q-3 10 -7 42t-7.5 68.5t-6 69.5t-2.5 46q0 21 4 32l-22 178v26l39 2q9 -7 16 -22l12 -26q5 -13 6.5 -4t1.5 32q0 10 3 9.5t7.5 -5l10 -10.5t9.5 -6q7 0 7 25t6 25q5 0 10.5 -13.5
t11.5 -21.5zM362 486l-54 42q-4 4 -9 5t-7 1q-15 0 -15 -36q0 -10 1 -22.5t3.5 -24t5.5 -19t7 -7.5l11 5q58 25 58 50q0 5 -1 6z" />
    <glyph glyph-name="FLW241" unicode="&#xf1;" horiz-adv-x="569" 
d="M424 710v-4q0 -2 -10.5 -8.5t-20 -14t-12.5 -13.5t12 -6q5 0 15 1.5t16 1.5q5 0 5 -2q0 -1 -4.5 -5t-16.5 -10q-12 -8 -15.5 -16t17.5 -8q10 0 29 4.5t29 4.5q2 -2 2 -15q0 -6 5 -8h25q-2 -5 -18 -14t-28 -18q0 -5 9.5 -9t10.5 -5v-2q0 -3 -3 -7t-3 -7q0 -9 20 -9
q3 0 11 0.5t11 0.5q9 0 9 -3t-4 -6.5t-8.5 -7t-4.5 -5.5q0 -8 33 -12q17 -2 14 -5t-15 -5.5t-28 -5t-26 -4.5q-19 -3 -51 -12.5t-62.5 -23.5t-52.5 -33t-22 -43q0 -14 10.5 -27t25.5 -24t32.5 -20t31.5 -14q15 -5 118 -30q-14 -14 -14 -17q0 -6 2 -18t2 -21q0 -6 -8 -13.5
t-8 -11.5v-2q0 -3 -16 -3h-7q-6 0 -9 1l-17 2q-21 2 -21 -4q0 -4 6.5 -9.5t16.5 -11t20.5 -10.5t18.5 -8v-2q3 -9 -30 -17l-29 -8q-16 -4 -26 -10l23 -30l-6 -6q-22 0 -39.5 6t-40.5 15q-16 6 -39 20.5l-48 29.5t-49 27.5t-43 15.5q-17 12 -30 23.5t-26 26.5l-29 34.5
l-38 46.5q-6 18 -6 37q0 13 5 35t12.5 46t16 46t16.5 36q54 103 110 103q86 74 171 98q-22 -7 -25 -23l6 -4l38 13q11 4 24.5 8t29.5 8z" />
    </font>
</defs>
</svg>
